<?xml version="1.0" encoding="UTF-8"?>
<!DOCTYPE svg PUBLIC "-//W3C//DTD SVG 1.1//EN" "http://www.w3.org/Graphics/SVG/1.1/DTD/svg11.dtd">
<svg xmlns="http://www.w3.org/2000/svg" version="1.1" width="397px" height="628px" style="shape-rendering:geometricPrecision; text-rendering:geometricPrecision; image-rendering:optimizeQuality; fill-rule:evenodd; clip-rule:evenodd" xmlns:xlink="http://www.w3.org/1999/xlink">
<g><path style="opacity:0.969" fill="#757773" d="M 353.5,57.5 C 353.5,55.5 353.5,53.5 353.5,51.5C 349.143,51.5865 344.81,51.9198 340.5,52.5C 344.881,50.7895 349.547,50.1228 354.5,50.5C 354.802,53.0593 354.468,55.3926 353.5,57.5 Z"/></g>
<g><path style="opacity:0.976" fill="#595959" d="M 38.5,168.5 C 33.3839,169.806 28.0506,170.473 22.5,170.5C 27.598,169.043 32.9313,168.376 38.5,168.5 Z"/></g>
<g><path style="opacity:1" fill="#121110" d="M 208.5,-0.5 C 211.833,-0.5 215.167,-0.5 218.5,-0.5C 221.513,7.0234 225.013,14.3567 229,21.5C 243,41.4924 256,62.1591 268,83.5C 283.404,77.1421 298.904,70.9754 314.5,65C 322.761,60.0364 331.428,55.8698 340.5,52.5C 344.81,51.9198 349.143,51.5865 353.5,51.5C 353.5,53.5 353.5,55.5 353.5,57.5C 352.934,68.1617 350.768,78.495 347,88.5C 340.587,104.916 333.254,120.916 325,136.5C 320.771,146.783 317.271,157.283 314.5,168C 319.307,169.865 324.307,170.698 329.5,170.5C 345.115,168.471 360.781,167.638 376.5,168C 378.101,168.273 379.601,168.773 381,169.5C 381.667,172.5 381.667,175.5 381,178.5C 366.146,212.562 347.479,244.228 325,273.5C 324.517,274.448 324.351,275.448 324.5,276.5C 343.553,279.674 362.553,283.174 381.5,287C 383.235,288.182 384.235,289.849 384.5,292C 383.907,297.017 382.074,301.517 379,305.5C 361.046,328.576 343.212,351.743 325.5,375C 345.818,380.328 365.818,386.661 385.5,394C 389.975,396.314 393.642,399.48 396.5,403.5C 396.5,405.833 396.5,408.167 396.5,410.5C 392.773,415.735 388.44,420.568 383.5,425C 365.163,437.691 347.163,450.691 329.5,464C 335.885,481.822 343.052,499.322 351,516.5C 353.719,523.594 355.219,530.927 355.5,538.5C 356.12,544.926 355.453,550.926 353.5,556.5C 335.633,555.361 318.3,552.027 301.5,546.5C 299.485,545.076 297.152,544.41 294.5,544.5C 288.028,543.299 281.695,541.632 275.5,539.5C 273.162,537.96 270.495,537.294 267.5,537.5C 266.325,537.281 265.325,537.614 264.5,538.5C 246.288,564.918 230.121,592.585 216,621.5C 214.64,624.023 212.807,626.023 210.5,627.5C 208.167,627.5 205.833,627.5 203.5,627.5C 202.164,625.99 200.997,624.323 200,622.5C 193.555,600.144 184.221,579.144 172,559.5C 148.644,566.73 125.477,574.563 102.5,583C 92.9816,586.034 83.315,586.867 73.5,585.5C 73.3776,580.768 73.8776,576.102 75,571.5C 79,558.167 83,544.833 87,531.5C 90.7728,511.923 93.9394,492.256 96.5,472.5C 72.1739,467.252 48.1739,460.752 24.5,453C 17.4476,448.646 16.6143,443.146 22,436.5C 37.583,419.915 53.583,403.582 70,387.5C 73.3395,382.825 76.1729,377.825 78.5,372.5C 75.057,367.554 71.057,363.054 66.5,359C 49.8333,348 33.1667,337 16.5,326C 9.93127,320.933 4.26461,315.1 -0.5,308.5C -0.5,306.167 -0.5,303.833 -0.5,301.5C 3.04654,297.71 7.37988,294.876 12.5,293C 25.5627,289.152 38.5627,285.152 51.5,281C 62.1919,275.994 72.1919,269.994 81.5,263C 77.3918,257.221 72.8918,251.721 68,246.5C 48.2665,228.768 29.9332,209.768 13,189.5C 10.0871,184.515 8.75374,179.182 9,173.5C 13.2549,171.478 17.7549,170.478 22.5,170.5C 28.0506,170.473 33.3839,169.806 38.5,168.5C 55.6657,166.396 72.6657,163.396 89.5,159.5C 83.264,127.349 78.0973,95.0161 74,62.5C 73.1743,57.4107 73.5076,52.4107 75,47.5C 77.1529,45.5561 79.6529,45.0561 82.5,46C 87.3964,49.3 92.7297,51.6333 98.5,53C 114.613,64.1131 130.447,75.6131 146,87.5C 165.92,57.4305 186.753,28.0971 208.5,-0.5 Z"/></g>
<g><path style="opacity:1" fill="#fdd004" d="M 369.5,299.5 C 355.311,319.532 340.144,338.865 324,357.5C 320.667,362.833 317.333,368.167 314,373.5C 312.589,375.65 311.755,377.984 311.5,380.5C 330.591,387.276 349.924,393.442 369.5,399C 374.844,401.005 379.844,403.505 384.5,406.5C 377.916,413.127 370.916,419.294 363.5,425C 348.606,435.559 333.439,445.725 318,455.5C 319.153,462.975 321.153,470.308 324,477.5C 330.686,491.198 336.519,505.198 341.5,519.5C 343.252,527.091 344.585,534.757 345.5,542.5C 343.5,542.5 341.5,542.5 339.5,542.5C 339.5,541.5 339.5,540.5 339.5,539.5C 328.036,536.307 316.036,534.307 303.5,533.5C 288.927,530.692 274.593,527.192 260.5,523C 245.946,544.597 232.779,567.097 221,590.5C 217.067,596.712 212.901,602.712 208.5,608.5C 198.267,587.821 188.601,566.821 179.5,545.5C 178.167,545.5 176.833,545.5 175.5,545.5C 178.878,544.724 181.545,543.724 183.5,542.5C 183.5,537.5 183.5,532.5 183.5,527.5C 188.833,527.5 194.167,527.5 199.5,527.5C 199.5,522.167 199.5,516.833 199.5,511.5C 202.167,511.5 204.833,511.5 207.5,511.5C 207.666,505.824 207.499,500.157 207,494.5C 201.579,497.317 196.412,496.984 191.5,493.5C 191.62,490.795 190.62,490.128 188.5,491.5C 186.821,489.896 184.821,489.229 182.5,489.5C 182.5,488.5 182.5,487.5 182.5,486.5C 194.453,492.314 206.12,491.814 217.5,485C 228.614,487.027 237.114,483.194 243,473.5C 249.379,462.22 251.546,450.22 249.5,437.5C 251.086,436.325 252.586,434.991 254,433.5C 254.333,433.833 254.667,434.167 255,434.5C 255.374,433.584 255.874,432.75 256.5,432C 258.81,431.503 261.143,431.337 263.5,431.5C 263.5,426.167 263.5,420.833 263.5,415.5C 266.167,415.5 268.833,415.5 271.5,415.5C 271.5,410.167 271.5,404.833 271.5,399.5C 276.833,399.5 282.167,399.5 287.5,399.5C 287.5,394.167 287.5,388.833 287.5,383.5C 290.833,383.5 294.167,383.5 297.5,383.5C 297.5,378.167 297.5,372.833 297.5,367.5C 299.5,367.5 301.5,367.5 303.5,367.5C 303.577,362.281 304.911,357.448 307.5,353C 309.067,351.924 310.734,351.091 312.5,350.5C 314.427,352.293 316.761,353.293 319.5,353.5C 317.911,350.036 318.411,347.036 321,344.5C 321.572,337.822 324.572,337.155 330,342.5C 330.417,339.716 329.25,337.716 326.5,336.5C 326.833,335.5 327.5,334.833 328.5,334.5C 329.494,329.544 329.827,324.544 329.5,319.5C 331.92,319.708 334.253,319.374 336.5,318.5C 336.833,319.167 337.167,319.833 337.5,320.5C 336.577,321.836 336.077,323.17 336,324.5C 336.725,323.941 337.558,323.608 338.5,323.5C 340.003,324.523 341.503,325.523 343,326.5C 344.769,325.629 345.436,324.296 345,322.5C 343.701,322.034 342.201,322.034 340.5,322.5C 340.5,321.167 340.5,319.833 340.5,318.5C 341.5,318.5 342.5,318.5 343.5,318.5C 344.1,312.86 343.267,307.527 341,302.5C 340.667,303.167 340.333,303.833 340,304.5C 338.034,304.284 335.867,303.618 333.5,302.5C 330.846,300.105 331.179,298.105 334.5,296.5C 335.452,298.045 335.785,299.712 335.5,301.5C 340.833,301.5 346.167,301.5 351.5,301.5C 351.5,300.5 351.5,299.5 351.5,298.5C 346.4,298.571 341.4,297.904 336.5,296.5C 337.025,295.808 337.692,295.308 338.5,295C 334.703,292.639 334.87,291.472 339,291.5C 340.955,291.641 342.455,292.474 343.5,294C 342.5,294.333 341.5,294.667 340.5,295C 344.518,295.852 348.351,295.352 352,293.5C 353.762,293.944 353.595,294.444 351.5,295C 352,295.167 352.5,295.333 353,295.5C 357.827,294.245 362.66,294.245 367.5,295.5C 368.853,296.524 369.52,297.857 369.5,299.5 Z"/></g>
<g><path style="opacity:1" fill="#fee401" d="M 149.5,275.5 C 152.129,285.925 154.129,296.592 155.5,307.5C 157.201,321.444 158.368,335.444 159,349.5C 161.255,360.372 163.255,371.372 165,382.5C 165.499,386.821 165.666,391.154 165.5,395.5C 166.833,395.5 168.167,395.5 169.5,395.5C 167.019,396.758 164.519,398.092 162,399.5C 160.373,420.63 159.539,420.63 159.5,399.5C 158.167,399.5 156.833,399.5 155.5,399.5C 155.5,404.833 155.5,410.167 155.5,415.5C 153.5,415.5 151.5,415.5 149.5,415.5C 149.5,420.833 149.5,426.167 149.5,431.5C 148.127,431.343 146.793,431.51 145.5,432C 140.747,435.247 136.413,439.08 132.5,443.5C 130.316,448.589 128.983,453.922 128.5,459.5C 127.672,455.204 127.172,450.871 127,446.5C 125.989,447.337 124.822,447.67 123.5,447.5C 123.5,452.833 123.5,458.167 123.5,463.5C 120.068,463.59 116.568,463.924 113,464.5C 112.974,461.895 111.807,460.729 109.5,461C 109.661,464.07 109.661,467.236 109.5,470.5C 109.977,471.478 110.643,472.311 111.5,473C 110.056,474.707 108.723,476.54 107.5,478.5C 110.167,479.833 110.167,481.167 107.5,482.5C 108.89,484.169 109.223,485.836 108.5,487.5C 107.818,486.757 107.151,486.091 106.5,485.5C 106.899,477.492 107.065,469.492 107,461.5C 106.167,460.667 105.333,459.833 104.5,459C 100.23,457.925 95.8967,457.425 91.5,457.5C 78.5304,455.707 65.8637,453.041 53.5,449.5C 55.1992,449.66 56.8659,449.494 58.5,449C 57.3659,447.984 57.6992,447.317 59.5,447C 58.2068,446.51 56.8734,446.343 55.5,446.5C 55.5,441.833 55.5,437.167 55.5,432.5C 56.8734,432.657 58.2068,432.49 59.5,432C 60.6133,428.412 62.28,427.912 64.5,430.5C 66.0453,431.452 67.712,431.785 69.5,431.5C 69.3339,425.824 69.5006,420.157 70,414.5C 72.1476,413.195 73.6476,411.362 74.5,409C 76.2396,407.306 78.2396,406.139 80.5,405.5C 80.5,403.833 80.5,402.167 80.5,400.5C 83.3678,399.983 86.0345,399.65 88.5,399.5C 87.6363,397.038 86.303,394.871 84.5,393C 86.9734,391.598 86.9734,390.098 84.5,388.5C 84.8333,388.167 85.1667,387.833 85.5,387.5C 88.0469,388.621 89.0469,390.288 88.5,392.5C 90.4572,394.555 91.9572,396.888 93,399.5C 95.8288,400.674 96.8288,399.674 96,396.5C 93.8308,394.83 92.3308,392.664 91.5,390C 92.6035,388.111 92.6035,386.277 91.5,384.5C 92.6667,381.833 93.8333,379.167 95,376.5C 95.662,378.813 96.162,381.146 96.5,383.5C 98.8333,383.5 101.167,383.5 103.5,383.5C 103.5,378.167 103.5,372.833 103.5,367.5C 106.167,367.5 108.833,367.5 111.5,367.5C 111.5,362.167 111.5,356.833 111.5,351.5C 116.833,351.5 122.167,351.5 127.5,351.5C 127.5,346.167 127.5,340.833 127.5,335.5C 130.167,335.5 132.833,335.5 135.5,335.5C 135.5,330.167 135.5,324.833 135.5,319.5C 138.518,319.335 141.518,319.502 144.5,320C 145.187,323.766 145.354,327.599 145,331.5C 147.091,328.937 148.258,325.937 148.5,322.5C 146.691,320.437 145.691,317.937 145.5,315C 146.12,308.95 147.12,302.784 148.5,296.5C 149.331,302.807 149.831,309.141 150,315.5C 150.583,317.002 151.416,318.335 152.5,319.5C 155.021,316.824 155.021,313.99 152.5,311C 153.517,309.951 153.684,308.784 153,307.5C 152.667,308.167 152.333,308.833 152,309.5C 151.336,305.304 151.503,301.138 152.5,297C 150.513,289.986 149.513,282.819 149.5,275.5 Z"/></g>
<g><path style="opacity:1" fill="#fdd603" d="M 359.5,200.5 C 351.033,220.09 339.533,237.757 325,253.5C 318.983,262.184 313.817,271.351 309.5,281C 309.645,281.772 309.978,282.439 310.5,283C 329.985,287.593 349.651,291.26 369.5,294C 371.873,295.758 371.873,297.591 369.5,299.5C 369.52,297.857 368.853,296.524 367.5,295.5C 362.66,294.245 357.827,294.245 353,295.5C 352.5,295.333 352,295.167 351.5,295C 353.595,294.444 353.762,293.944 352,293.5C 348.351,295.352 344.518,295.852 340.5,295C 341.5,294.667 342.5,294.333 343.5,294C 342.455,292.474 340.955,291.641 339,291.5C 334.87,291.472 334.703,292.639 338.5,295C 337.692,295.308 337.025,295.808 336.5,296.5C 341.4,297.904 346.4,298.571 351.5,298.5C 351.5,299.5 351.5,300.5 351.5,301.5C 346.167,301.5 340.833,301.5 335.5,301.5C 335.785,299.712 335.452,298.045 334.5,296.5C 331.179,298.105 330.846,300.105 333.5,302.5C 335.867,303.618 338.034,304.284 340,304.5C 340.333,303.833 340.667,303.167 341,302.5C 343.267,307.527 344.1,312.86 343.5,318.5C 342.5,318.5 341.5,318.5 340.5,318.5C 340.5,319.833 340.5,321.167 340.5,322.5C 342.201,322.034 343.701,322.034 345,322.5C 345.436,324.296 344.769,325.629 343,326.5C 341.503,325.523 340.003,324.523 338.5,323.5C 337.558,323.608 336.725,323.941 336,324.5C 336.077,323.17 336.577,321.836 337.5,320.5C 337.167,319.833 336.833,319.167 336.5,318.5C 334.253,319.374 331.92,319.708 329.5,319.5C 329.827,324.544 329.494,329.544 328.5,334.5C 327.5,334.833 326.833,335.5 326.5,336.5C 329.25,337.716 330.417,339.716 330,342.5C 324.572,337.155 321.572,337.822 321,344.5C 318.411,347.036 317.911,350.036 319.5,353.5C 316.761,353.293 314.427,352.293 312.5,350.5C 310.734,351.091 309.067,351.924 307.5,353C 304.911,357.448 303.577,362.281 303.5,367.5C 301.5,367.5 299.5,367.5 297.5,367.5C 297.5,372.833 297.5,378.167 297.5,383.5C 294.167,383.5 290.833,383.5 287.5,383.5C 287.5,388.833 287.5,394.167 287.5,399.5C 282.167,399.5 276.833,399.5 271.5,399.5C 271.5,404.833 271.5,410.167 271.5,415.5C 268.833,415.5 266.167,415.5 263.5,415.5C 263.5,420.833 263.5,426.167 263.5,431.5C 261.143,431.337 258.81,431.503 256.5,432C 255.874,432.75 255.374,433.584 255,434.5C 254.667,434.167 254.333,433.833 254,433.5C 252.586,434.991 251.086,436.325 249.5,437.5C 248.246,433.824 246.579,430.324 244.5,427C 241.205,424.566 237.538,422.899 233.5,422C 218.191,418.882 202.857,418.715 187.5,421.5C 188.421,419.731 189.588,418.065 191,416.5C 191.414,416.957 191.914,417.291 192.5,417.5C 194.683,415.941 196.849,415.274 199,415.5C 201.833,410.833 204.667,406.167 207.5,401.5C 206.802,400.137 206.802,398.971 207.5,398C 212.864,397.829 218.198,397.329 223.5,396.5C 219.765,395.847 216.099,395.014 212.5,394C 213.056,393.617 213.389,393.117 213.5,392.5C 215.5,391.833 217.5,391.167 219.5,390.5C 226.047,389.624 232.547,388.29 239,386.5C 240.477,385.556 241.477,384.223 242,382.5C 245.077,372.041 247.077,361.375 248,350.5C 248.333,336.167 248.667,321.833 249,307.5C 249.21,305.942 249.71,304.609 250.5,303.5C 250.333,315.505 250.5,327.505 251,339.5C 251.5,338.5 252,337.5 252.5,336.5C 251.572,335.232 251.405,333.899 252,332.5C 252.556,334.595 253.056,334.762 253.5,333C 253.095,332.055 252.428,331.388 251.5,331C 252.191,329.933 252.691,328.766 253,327.5C 256.483,332.905 258.816,332.239 260,325.5C 263.222,320.596 266.889,315.93 271,311.5C 273.073,308.411 274.74,305.077 276,301.5C 279.222,296.596 282.889,291.93 287,287.5C 287.483,286.552 287.649,285.552 287.5,284.5C 292.029,284.063 293.529,281.729 292,277.5C 295.935,272.216 299.935,266.882 304,261.5C 304.689,262.357 305.522,263.023 306.5,263.5C 306.931,260.715 306.931,258.048 306.5,255.5C 307.243,256.908 308.077,258.241 309,259.5C 310.857,254.452 313.19,249.786 316,245.5C 317.264,243.393 319.097,242.393 321.5,242.5C 323.188,235.986 326.355,230.319 331,225.5C 331.113,223.026 332.113,221.026 334,219.5C 334.308,220.308 334.808,220.975 335.5,221.5C 337.816,218.573 339.316,218.907 340,222.5C 340.5,222 341,221.5 341.5,221C 340.446,219.612 340.28,218.112 341,216.5C 342.833,215.333 344.333,213.833 345.5,212C 346.742,211.689 347.742,212.189 348.5,213.5C 349.251,212.624 349.751,211.624 350,210.5C 351.073,211.28 352.24,211.113 353.5,210C 350.833,209 350.833,208 353.5,207C 352.664,205.757 352.997,204.59 354.5,203.5C 357.06,204.435 357.726,203.601 356.5,201C 357.448,200.517 358.448,200.351 359.5,200.5 Z"/></g>
<g><path style="opacity:1" fill="#dcce28" d="M 142.5,239.5 C 145.193,250.967 147.527,262.633 149.5,274.5C 145.305,263.368 142.972,251.702 142.5,239.5 Z"/></g>
<g><path style="opacity:1" fill="#e1cd30" d="M 256.5,199.5 C 255.961,226.84 255.295,254.173 254.5,281.5C 254.665,284.85 254.498,288.183 254,291.5C 252.826,295.046 252.16,298.713 252,302.5C 251.617,303.056 251.117,303.389 250.5,303.5C 251.848,292.534 253.015,281.534 254,270.5C 254.333,250.167 254.667,229.833 255,209.5C 255.179,205.975 255.679,202.641 256.5,199.5 Z"/></g>
<g><path style="opacity:1" fill="#ddc524" d="M 360.5,198.5 C 360.336,195.813 360.503,193.146 361,190.5C 361.333,191.167 361.667,191.833 362,192.5C 364.266,187.919 366.1,183.252 367.5,178.5C 354.827,178.652 342.161,178.985 329.5,179.5C 342.973,177.419 356.64,177.086 370.5,178.5C 367.339,185.358 364.006,192.025 360.5,198.5 Z"/></g>
<g><path style="opacity:1" fill="#fedc00" d="M 303.5,178.5 C 312.142,179.299 320.809,179.632 329.5,179.5C 342.161,178.985 354.827,178.652 367.5,178.5C 366.1,183.252 364.266,187.919 362,192.5C 361.667,191.833 361.333,191.167 361,190.5C 360.503,193.146 360.336,195.813 360.5,198.5C 360.672,199.492 360.338,200.158 359.5,200.5C 358.448,200.351 357.448,200.517 356.5,201C 357.726,203.601 357.06,204.435 354.5,203.5C 352.997,204.59 352.664,205.757 353.5,207C 350.833,208 350.833,209 353.5,210C 352.24,211.113 351.073,211.28 350,210.5C 349.751,211.624 349.251,212.624 348.5,213.5C 347.742,212.189 346.742,211.689 345.5,212C 344.333,213.833 342.833,215.333 341,216.5C 340.28,218.112 340.446,219.612 341.5,221C 341,221.5 340.5,222 340,222.5C 339.316,218.907 337.816,218.573 335.5,221.5C 334.808,220.975 334.308,220.308 334,219.5C 332.113,221.026 331.113,223.026 331,225.5C 326.355,230.319 323.188,235.986 321.5,242.5C 319.097,242.393 317.264,243.393 316,245.5C 313.19,249.786 310.857,254.452 309,259.5C 308.077,258.241 307.243,256.908 306.5,255.5C 306.931,258.048 306.931,260.715 306.5,263.5C 305.522,263.023 304.689,262.357 304,261.5C 299.935,266.882 295.935,272.216 292,277.5C 293.529,281.729 292.029,284.063 287.5,284.5C 287.649,285.552 287.483,286.552 287,287.5C 282.889,291.93 279.222,296.596 276,301.5C 274.74,305.077 273.073,308.411 271,311.5C 266.889,315.93 263.222,320.596 260,325.5C 258.816,332.239 256.483,332.905 253,327.5C 252.691,328.766 252.191,329.933 251.5,331C 252.428,331.388 253.095,332.055 253.5,333C 253.056,334.762 252.556,334.595 252,332.5C 251.405,333.899 251.572,335.232 252.5,336.5C 252,337.5 251.5,338.5 251,339.5C 250.5,327.505 250.333,315.505 250.5,303.5C 251.117,303.389 251.617,303.056 252,302.5C 252.16,298.713 252.826,295.046 254,291.5C 254.498,288.183 254.665,284.85 254.5,281.5C 255.785,278.411 256.451,275.078 256.5,271.5C 258.451,271.773 259.951,271.107 261,269.5C 261.499,264.845 261.666,260.179 261.5,255.5C 265.437,255.793 269.27,255.46 273,254.5C 273.499,249.511 273.666,244.511 273.5,239.5C 275.5,239.5 277.5,239.5 279.5,239.5C 279.5,234.167 279.5,228.833 279.5,223.5C 284.167,223.5 288.833,223.5 293.5,223.5C 293.5,218.167 293.5,212.833 293.5,207.5C 297.437,207.793 301.27,207.46 305,206.5C 305.514,199.952 306.181,193.619 307,187.5C 307.333,187.833 307.667,188.167 308,188.5C 311.79,187.864 315.623,187.197 319.5,186.5C 316.634,185.792 313.8,185.125 311,184.5C 309.757,185.336 308.59,185.003 307.5,183.5C 308.729,182.719 310.062,182.219 311.5,182C 308.334,181.678 305.667,180.511 303.5,178.5 Z"/></g>
<g><path style="opacity:1" fill="#dccf24" d="M 155.5,122.5 C 147.596,123.315 139.762,124.982 132,127.5C 131.411,141.517 131.744,155.517 133,169.5C 135.748,192.901 138.915,216.235 142.5,239.5C 141.732,238.737 141.232,237.737 141,236.5C 140.667,237.167 140.333,237.833 140,238.5C 138.818,231.229 138.151,223.896 138,216.5C 131.616,186.928 129.282,156.928 131,126.5C 138.731,123.325 146.898,121.992 155.5,122.5 Z"/></g>
<g><path style="opacity:1" fill="#0f0401" d="M 231.5,118.5 C 234.627,119.581 237.96,120.247 241.5,120.5C 245.762,122.208 250.096,124.041 254.5,126C 257.237,127.614 259.403,129.781 261,132.5C 258.895,154.765 257.395,177.098 256.5,199.5C 255.679,202.641 255.179,205.975 255,209.5C 254.667,229.833 254.333,250.167 254,270.5C 253.015,281.534 251.848,292.534 250.5,303.5C 249.71,304.609 249.21,305.942 249,307.5C 248.667,321.833 248.333,336.167 248,350.5C 247.077,361.375 245.077,372.041 242,382.5C 241.477,384.223 240.477,385.556 239,386.5C 232.547,388.29 226.047,389.624 219.5,390.5C 204.298,390.784 189.298,391.784 174.5,393.5C 174.167,393.5 173.833,393.5 173.5,393.5C 171.833,393.5 170.167,393.5 168.5,393.5C 163.99,364.73 159.657,336.063 155.5,307.5C 154.129,296.592 152.129,285.925 149.5,275.5C 149.5,275.167 149.5,274.833 149.5,274.5C 147.527,262.633 145.193,250.967 142.5,239.5C 138.915,216.235 135.748,192.901 133,169.5C 131.744,155.517 131.411,141.517 132,127.5C 139.762,124.982 147.596,123.315 155.5,122.5C 163.811,121.63 172.144,120.963 180.5,120.5C 191.168,119.5 201.835,118.5 212.5,117.5C 218.84,117.8 225.173,118.134 231.5,118.5 Z"/></g>
<g><path style="opacity:1" fill="#981c1d" d="M 241.5,271.5 C 242.5,271.5 243.5,271.5 244.5,271.5C 244.389,284.84 244.055,298.173 243.5,311.5C 242.594,315.678 241.76,320.012 241,324.5C 239.578,337.449 238.578,350.449 238,363.5C 237.559,354.583 236.726,354.416 235.5,363C 236.333,366.484 236.499,369.984 236,373.5C 233.577,372.288 231.244,370.954 229,369.5C 229.868,342.219 231.035,314.885 232.5,287.5C 233.5,287.5 234.5,287.5 235.5,287.5C 235.177,283.774 235.511,280.107 236.5,276.5C 237.962,277.471 239.295,277.138 240.5,275.5C 241.429,274.311 241.762,272.978 241.5,271.5 Z"/></g>
<g><path style="opacity:1" fill="#c7250e" d="M 226.5,281.5 C 226.5,283.5 226.5,285.5 226.5,287.5C 224.585,295.251 223.585,303.251 223.5,311.5C 223.829,325.01 223.496,338.344 222.5,351.5C 222.333,331.831 222.5,312.164 223,292.5C 224.244,289.362 224.911,286.028 225,282.5C 225.383,281.944 225.883,281.611 226.5,281.5 Z"/></g>
<g><path style="opacity:1" fill="#440602" d="M 226.5,287.5 C 226.217,295.727 225.217,303.727 223.5,311.5C 223.585,303.251 224.585,295.251 226.5,287.5 Z"/></g>
<g><path style="opacity:1" fill="#c24416" d="M 153.5,266.5 C 154.687,268.072 155.687,269.739 156.5,271.5C 156.335,274.85 156.502,278.183 157,281.5C 157.278,282.416 157.778,283.082 158.5,283.5C 158.646,287.519 158.979,291.519 159.5,295.5C 156.52,286.155 154.52,276.488 153.5,266.5 Z"/></g>
<g><path style="opacity:1" fill="#892d2e" d="M 248.5,232.5 C 247.442,259.027 245.775,285.36 243.5,311.5C 244.055,298.173 244.389,284.84 244.5,271.5C 243.5,271.5 242.5,271.5 241.5,271.5C 243.143,269.127 243.976,265.794 244,261.5C 244.333,262.833 244.667,264.167 245,265.5C 246.081,256.865 246.581,248.199 246.5,239.5C 247.167,237.167 247.833,234.833 248.5,232.5 Z"/></g>
<g><path style="opacity:1" fill="#ad3738" d="M 246.5,239.5 C 246.581,248.199 246.081,256.865 245,265.5C 244.667,264.167 244.333,262.833 244,261.5C 243.976,265.794 243.143,269.127 241.5,271.5C 241.762,272.978 241.429,274.311 240.5,275.5C 239.295,277.138 237.962,277.471 236.5,276.5C 235.511,280.107 235.177,283.774 235.5,287.5C 234.5,287.5 233.5,287.5 232.5,287.5C 232.5,284.167 232.5,280.833 232.5,277.5C 234.239,270.412 234.906,263.079 234.5,255.5C 235.222,255.918 235.722,256.584 236,257.5C 235.606,252.942 237.273,249.609 241,247.5C 241.853,249.125 242.853,249.458 244,248.5C 244.973,245.421 245.806,242.421 246.5,239.5 Z"/></g>
<g><path style="opacity:1" fill="#fe2300" d="M 226.5,223.5 C 226.5,242.833 226.5,262.167 226.5,281.5C 225.883,281.611 225.383,281.944 225,282.5C 224.911,286.028 224.244,289.362 223,292.5C 222.5,312.164 222.333,331.831 222.5,351.5C 222.5,351.833 222.5,352.167 222.5,352.5C 220.745,359.923 220.079,367.589 220.5,375.5C 220.5,375.833 220.5,376.167 220.5,376.5C 218.952,376.821 218.285,377.821 218.5,379.5C 216.409,379.682 214.409,379.348 212.5,378.5C 200.072,381.224 187.405,382.558 174.5,382.5C 173.771,366.146 171.104,350.48 166.5,335.5C 165.124,327.277 164.457,318.943 164.5,310.5C 166.04,308.271 167.54,305.938 169,303.5C 169.317,305.301 169.984,305.634 171,304.5C 171.38,300.847 172.547,297.18 174.5,293.5C 175.425,294.641 176.259,294.641 177,293.5C 179.153,288.763 182.153,284.763 186,281.5C 187.094,276.9 189.594,273.234 193.5,270.5C 203.093,255.08 213.26,240.08 224,225.5C 224.333,226.167 224.667,226.833 225,227.5C 225.333,225.5 225.667,223.5 226,221.5C 226.464,222.094 226.631,222.761 226.5,223.5 Z"/></g>
<g><path style="opacity:1" fill="#bd4a4c" d="M 246.5,239.5 C 245.806,242.421 244.973,245.421 244,248.5C 242.853,249.458 241.853,249.125 241,247.5C 237.273,249.609 235.606,252.942 236,257.5C 235.722,256.584 235.222,255.918 234.5,255.5C 235.813,248.24 236.479,240.907 236.5,233.5C 237.327,229.885 238.827,226.552 241,223.5C 242.61,213.047 243.443,213.047 243.5,223.5C 244.5,223.5 245.5,223.5 246.5,223.5C 246.5,228.833 246.5,234.167 246.5,239.5 Z"/></g>
<g><path style="opacity:1" fill="#934848" d="M 238.5,196.5 C 238.5,198.833 238.5,201.167 238.5,203.5C 238.19,213.528 237.523,223.528 236.5,233.5C 236.479,240.907 235.813,248.24 234.5,255.5C 234.906,263.079 234.239,270.412 232.5,277.5C 232.5,275.5 232.5,273.5 232.5,271.5C 233.575,246.278 235.575,221.278 238.5,196.5 Z"/></g>
<g><path style="opacity:1" fill="#c22f10" d="M 229.5,207.5 C 229.5,210.167 229.5,212.833 229.5,215.5C 227.291,232.951 226.957,250.451 228.5,268C 228.634,272.758 227.968,277.258 226.5,281.5C 226.5,262.167 226.5,242.833 226.5,223.5C 227.645,218.189 228.645,212.856 229.5,207.5 Z"/></g>
<g><path style="opacity:1" fill="#db6319" d="M 142.5,191.5 C 143.167,193.5 143.833,195.5 144.5,197.5C 145.089,200.504 146.089,203.337 147.5,206C 147.002,208.477 146.669,210.977 146.5,213.5C 147.98,222.108 148.98,230.774 149.5,239.5C 145.927,223.82 143.594,207.82 142.5,191.5 Z"/></g>
<g><path style="opacity:1" fill="#3f0702" d="M 231.5,199.5 C 231.624,205.069 230.957,210.402 229.5,215.5C 229.5,212.833 229.5,210.167 229.5,207.5C 230.167,204.833 230.833,202.167 231.5,199.5 Z"/></g>
<g><path style="opacity:1" fill="#fe3700" d="M 230.5,187.5 C 230.046,194.159 229.713,200.826 229.5,207.5C 228.645,212.856 227.645,218.189 226.5,223.5C 226.631,222.761 226.464,222.094 226,221.5C 225.667,223.5 225.333,225.5 225,227.5C 224.667,226.833 224.333,226.167 224,225.5C 213.26,240.08 203.093,255.08 193.5,270.5C 189.594,273.234 187.094,276.9 186,281.5C 182.153,284.763 179.153,288.763 177,293.5C 176.259,294.641 175.425,294.641 174.5,293.5C 172.547,297.18 171.38,300.847 171,304.5C 169.984,305.634 169.317,305.301 169,303.5C 167.54,305.938 166.04,308.271 164.5,310.5C 162.296,307.957 161.962,305.123 163.5,302C 161.011,298.541 160.177,294.708 161,290.5C 165.032,284.298 168.865,277.965 172.5,271.5C 174.491,269.543 176.491,267.543 178.5,265.5C 181.104,261.508 183.77,257.508 186.5,253.5C 187.429,252.311 187.762,250.978 187.5,249.5C 189.103,249.688 190.437,249.188 191.5,248C 191.167,247.667 190.833,247.333 190.5,247C 194.762,242.872 197.929,238.039 200,232.5C 208.283,223.962 215.117,214.295 220.5,203.5C 224.169,201.656 226.002,198.656 226,194.5C 226.333,195.5 226.667,196.5 227,197.5C 228.483,194.197 229.65,190.864 230.5,187.5 Z"/></g>
<g><path style="opacity:1" fill="#fc4201" d="M 232.5,167.5 C 232.867,174.415 232.201,181.081 230.5,187.5C 229.65,190.864 228.483,194.197 227,197.5C 226.667,196.5 226.333,195.5 226,194.5C 226.002,198.656 224.169,201.656 220.5,203.5C 215.117,214.295 208.283,223.962 200,232.5C 197.929,238.039 194.762,242.872 190.5,247C 190.833,247.333 191.167,247.667 191.5,248C 190.437,249.188 189.103,249.688 187.5,249.5C 187.762,250.978 187.429,252.311 186.5,253.5C 183.77,257.508 181.104,261.508 178.5,265.5C 176.491,267.543 174.491,269.543 172.5,271.5C 168.865,277.965 165.032,284.298 161,290.5C 160.177,294.708 161.011,298.541 163.5,302C 161.962,305.123 162.296,307.957 164.5,310.5C 164.457,318.943 165.124,327.277 166.5,335.5C 163.321,322.433 160.988,309.1 159.5,295.5C 158.979,291.519 158.646,287.519 158.5,283.5C 158.737,279.195 158.404,275.028 157.5,271C 162.89,266.453 166.89,260.953 169.5,254.5C 172.884,251.285 176.051,247.951 179,244.5C 183.841,234.999 189.841,226.332 197,218.5C 199.488,215.197 200.988,211.53 201.5,207.5C 202.675,207.719 203.675,207.386 204.5,206.5C 207.754,200.418 211.921,195.084 217,190.5C 217.94,188.058 219.106,185.725 220.5,183.5C 225.43,179.32 228.597,173.987 230,167.5C 230.77,166.402 231.603,166.402 232.5,167.5 Z"/></g>
<g><path style="opacity:1" fill="#ca4316" d="M 234.5,164.5 C 233.962,176.216 232.962,187.883 231.5,199.5C 230.833,202.167 230.167,204.833 229.5,207.5C 229.713,200.826 230.046,194.159 230.5,187.5C 232.201,181.081 232.867,174.415 232.5,167.5C 233.167,166.5 233.833,165.5 234.5,164.5 Z"/></g>
<g><path style="opacity:1" fill="#c1621a" d="M 139.5,165.5 C 141.308,173.927 142.308,182.594 142.5,191.5C 140.843,183.052 139.843,174.386 139.5,165.5 Z"/></g>
<g><path style="opacity:1" fill="#b36162" d="M 250.5,134.5 C 248.5,134.5 246.5,134.5 244.5,134.5C 244.666,142.507 244.5,150.507 244,158.5C 243.667,156.833 243.333,155.167 243,153.5C 241.233,169.449 240.233,185.449 240,201.5C 239.722,202.416 239.222,203.082 238.5,203.5C 238.5,201.167 238.5,198.833 238.5,196.5C 239.01,175.762 240.51,155.096 243,134.5C 245.479,132.026 247.979,132.026 250.5,134.5 Z"/></g>
<g><path style="opacity:1" fill="#fe4d00" d="M 234.5,153.5 C 234.5,157.167 234.5,160.833 234.5,164.5C 233.833,165.5 233.167,166.5 232.5,167.5C 231.603,166.402 230.77,166.402 230,167.5C 228.597,173.987 225.43,179.32 220.5,183.5C 219.106,185.725 217.94,188.058 217,190.5C 211.921,195.084 207.754,200.418 204.5,206.5C 203.675,207.386 202.675,207.719 201.5,207.5C 200.988,211.53 199.488,215.197 197,218.5C 189.841,226.332 183.841,234.999 179,244.5C 176.051,247.951 172.884,251.285 169.5,254.5C 166.89,260.953 162.89,266.453 157.5,271C 158.404,275.028 158.737,279.195 158.5,283.5C 157.778,283.082 157.278,282.416 157,281.5C 156.502,278.183 156.335,274.85 156.5,271.5C 155.405,266.57 154.739,261.57 154.5,256.5C 155.421,256.93 155.921,258.264 156,260.5C 157,260.833 158,261.167 159,261.5C 159.333,259.833 159.667,258.167 160,256.5C 166.393,250.46 171.56,243.627 175.5,236C 182.782,226.61 189.448,216.776 195.5,206.5C 201.61,201.749 205.777,195.749 208,188.5C 210.167,186.167 212.333,183.833 214.5,181.5C 217.844,175.819 221.177,170.153 224.5,164.5C 225.425,165.641 226.259,165.641 227,164.5C 228.43,161.647 229.263,158.647 229.5,155.5C 231.514,155.608 233.18,154.942 234.5,153.5 Z"/></g>
<g><path style="opacity:1" fill="#d15214" d="M 233.5,128.5 C 234.833,128.5 236.167,128.5 237.5,128.5C 237.122,140.696 236.122,152.696 234.5,164.5C 234.5,160.833 234.5,157.167 234.5,153.5C 234.5,147.5 234.5,141.5 234.5,135.5C 236.063,132.868 235.73,130.535 233.5,128.5 Z"/></g>
<g><path style="opacity:1" fill="#c86060" d="M 250.5,134.5 C 251.458,134.953 252.292,135.619 253,136.5C 253.167,138.667 253.333,140.833 253.5,143C 251.964,172.854 250.297,202.688 248.5,232.5C 247.833,234.833 247.167,237.167 246.5,239.5C 246.5,234.167 246.5,228.833 246.5,223.5C 245.5,223.5 244.5,223.5 243.5,223.5C 243.443,213.047 242.61,213.047 241,223.5C 238.827,226.552 237.327,229.885 236.5,233.5C 237.523,223.528 238.19,213.528 238.5,203.5C 239.222,203.082 239.722,202.416 240,201.5C 240.233,185.449 241.233,169.449 243,153.5C 243.333,155.167 243.667,156.833 244,158.5C 244.5,150.507 244.666,142.507 244.5,134.5C 246.5,134.5 248.5,134.5 250.5,134.5 Z"/></g>
<g><path style="opacity:1" fill="#fe5600" d="M 234.5,135.5 C 234.5,141.5 234.5,147.5 234.5,153.5C 233.18,154.942 231.514,155.608 229.5,155.5C 229.263,158.647 228.43,161.647 227,164.5C 226.259,165.641 225.425,165.641 224.5,164.5C 221.177,170.153 217.844,175.819 214.5,181.5C 212.333,183.833 210.167,186.167 208,188.5C 205.777,195.749 201.61,201.749 195.5,206.5C 189.448,216.776 182.782,226.61 175.5,236C 171.56,243.627 166.393,250.46 160,256.5C 159.667,258.167 159.333,259.833 159,261.5C 158,261.167 157,260.833 156,260.5C 155.921,258.264 155.421,256.93 154.5,256.5C 153.252,255.666 152.585,254.333 152.5,252.5C 152.667,251.167 152.833,249.833 153,248.5C 157.168,240.859 162.335,233.859 168.5,227.5C 169.429,226.311 169.762,224.978 169.5,223.5C 170.675,223.719 171.675,223.386 172.5,222.5C 181.144,209.503 189.81,196.503 198.5,183.5C 203.215,179.387 206.382,174.387 208,168.5C 211.502,166.993 213.502,164.327 214,160.5C 215.011,159.663 216.178,159.33 217.5,159.5C 220.034,155.433 222.201,151.1 224,146.5C 224.667,145.167 225.333,145.167 226,146.5C 227.617,145.464 227.784,144.297 226.5,143C 227.672,142.581 228.672,141.915 229.5,141C 228.289,139.887 228.289,138.72 229.5,137.5C 231.022,136.438 232.688,135.771 234.5,135.5 Z"/></g>
<g><path style="opacity:1" fill="#8f3e0a" d="M 139.5,133.5 C 139.5,133.833 139.5,134.167 139.5,134.5C 138.515,138.634 138.182,142.968 138.5,147.5C 137.837,145.359 137.503,143.025 137.5,140.5C 137.529,137.731 138.195,135.397 139.5,133.5 Z"/></g>
<g><path style="opacity:1" fill="#fc6d02" d="M 184.5,128.5 C 184.426,130.411 183.426,131.578 181.5,132C 182.167,132.333 182.833,132.667 183.5,133C 180.549,133.096 177.882,133.929 175.5,135.5C 177.589,137.595 177.589,139.428 175.5,141C 175.833,141.333 176.167,141.667 176.5,142C 173.688,144.076 172.188,146.91 172,150.5C 170.644,151.38 169.144,151.714 167.5,151.5C 167.679,153.954 167.013,156.121 165.5,158C 162.434,161.511 159.434,165.011 156.5,168.5C 156.152,171.41 154.652,173.41 152,174.5C 151.667,176.167 151.333,177.833 151,179.5C 148.667,182.167 146.333,184.833 144,187.5C 144.201,190.777 144.368,194.111 144.5,197.5C 143.833,195.5 143.167,193.5 142.5,191.5C 142.308,182.594 141.308,173.927 139.5,165.5C 138.835,159.523 138.502,153.523 138.5,147.5C 138.182,142.968 138.515,138.634 139.5,134.5C 144.939,134.436 150.272,133.77 155.5,132.5C 159.955,132.322 164.122,133.322 168,135.5C 168.833,135.333 169.667,135.167 170.5,135C 168.606,133.899 167.939,132.566 168.5,131C 174.04,130.851 179.373,130.018 184.5,128.5 Z"/></g>
<g><path style="opacity:1" fill="#fe6101" d="M 231.5,128.5 C 232.167,128.5 232.833,128.5 233.5,128.5C 235.73,130.535 236.063,132.868 234.5,135.5C 232.688,135.771 231.022,136.438 229.5,137.5C 228.289,138.72 228.289,139.887 229.5,141C 228.672,141.915 227.672,142.581 226.5,143C 227.784,144.297 227.617,145.464 226,146.5C 225.333,145.167 224.667,145.167 224,146.5C 222.201,151.1 220.034,155.433 217.5,159.5C 216.178,159.33 215.011,159.663 214,160.5C 213.502,164.327 211.502,166.993 208,168.5C 206.382,174.387 203.215,179.387 198.5,183.5C 189.81,196.503 181.144,209.503 172.5,222.5C 171.675,223.386 170.675,223.719 169.5,223.5C 169.762,224.978 169.429,226.311 168.5,227.5C 162.335,233.859 157.168,240.859 153,248.5C 152.833,249.833 152.667,251.167 152.5,252.5C 152.585,254.333 153.252,255.666 154.5,256.5C 154.739,261.57 155.405,266.57 156.5,271.5C 155.687,269.739 154.687,268.072 153.5,266.5C 152.018,259.57 151.018,252.57 150.5,245.5C 150.735,240.124 150.402,234.791 149.5,229.5C 150.459,225.592 152.792,222.925 156.5,221.5C 154.899,220.796 153.565,219.629 152.5,218C 152.248,215.148 152.582,212.148 153.5,209C 153.833,208.5 154.167,208 154.5,207.5C 156.915,211.268 159.581,211.434 162.5,208C 162.043,207.586 161.709,207.086 161.5,206.5C 162.861,202.429 165.195,199.095 168.5,196.5C 169.452,194.955 169.785,193.288 169.5,191.5C 170.675,191.719 171.675,191.386 172.5,190.5C 174.02,188.338 175.02,186.005 175.5,183.5C 176.833,183.5 178.167,183.5 179.5,183.5C 180.563,178.119 183.23,173.786 187.5,170.5C 188.18,168.111 189.014,165.778 190,163.5C 191.955,162.547 193.622,161.213 195,159.5C 196.223,155.385 198.223,151.718 201,148.5C 201.494,146.866 201.66,145.199 201.5,143.5C 205.938,144.575 207.938,142.908 207.5,138.5C 208.675,138.719 209.675,138.386 210.5,137.5C 211.195,134.72 212.195,132.053 213.5,129.5C 219.463,128.504 225.463,128.171 231.5,128.5 Z"/></g>
<g><path style="opacity:1" fill="#fe6601" d="M 223.5,127.5 C 226.385,127.194 229.052,127.527 231.5,128.5C 225.463,128.171 219.463,128.504 213.5,129.5C 212.195,132.053 211.195,134.72 210.5,137.5C 209.675,138.386 208.675,138.719 207.5,138.5C 207.938,142.908 205.938,144.575 201.5,143.5C 201.66,145.199 201.494,146.866 201,148.5C 198.223,151.718 196.223,155.385 195,159.5C 193.622,161.213 191.955,162.547 190,163.5C 189.014,165.778 188.18,168.111 187.5,170.5C 183.23,173.786 180.563,178.119 179.5,183.5C 178.167,183.5 176.833,183.5 175.5,183.5C 175.02,186.005 174.02,188.338 172.5,190.5C 171.675,191.386 170.675,191.719 169.5,191.5C 169.785,193.288 169.452,194.955 168.5,196.5C 165.195,199.095 162.861,202.429 161.5,206.5C 161.709,207.086 162.043,207.586 162.5,208C 159.581,211.434 156.915,211.268 154.5,207.5C 154.167,208 153.833,208.5 153.5,209C 152.582,212.148 152.248,215.148 152.5,218C 153.565,219.629 154.899,220.796 156.5,221.5C 152.792,222.925 150.459,225.592 149.5,229.5C 150.402,234.791 150.735,240.124 150.5,245.5C 149.539,243.735 149.205,241.735 149.5,239.5C 148.98,230.774 147.98,222.108 146.5,213.5C 146.669,210.977 147.002,208.477 147.5,206C 146.089,203.337 145.089,200.504 144.5,197.5C 144.368,194.111 144.201,190.777 144,187.5C 146.333,184.833 148.667,182.167 151,179.5C 151.333,177.833 151.667,176.167 152,174.5C 154.652,173.41 156.152,171.41 156.5,168.5C 159.434,165.011 162.434,161.511 165.5,158C 167.013,156.121 167.679,153.954 167.5,151.5C 169.144,151.714 170.644,151.38 172,150.5C 172.188,146.91 173.688,144.076 176.5,142C 176.167,141.667 175.833,141.333 175.5,141C 177.589,139.428 177.589,137.595 175.5,135.5C 177.882,133.929 180.549,133.096 183.5,133C 182.833,132.667 182.167,132.333 181.5,132C 183.426,131.578 184.426,130.411 184.5,128.5C 197.48,127.646 210.48,127.313 223.5,127.5 Z"/></g>
<g><path style="opacity:1" fill="#fce304" d="M 303.5,178.5 C 305.667,180.511 308.334,181.678 311.5,182C 310.062,182.219 308.729,182.719 307.5,183.5C 308.59,185.003 309.757,185.336 311,184.5C 313.8,185.125 316.634,185.792 319.5,186.5C 315.623,187.197 311.79,187.864 308,188.5C 307.667,188.167 307.333,187.833 307,187.5C 306.181,193.619 305.514,199.952 305,206.5C 301.27,207.46 297.437,207.793 293.5,207.5C 293.5,212.833 293.5,218.167 293.5,223.5C 288.833,223.5 284.167,223.5 279.5,223.5C 279.5,228.833 279.5,234.167 279.5,239.5C 277.5,239.5 275.5,239.5 273.5,239.5C 273.666,244.511 273.499,249.511 273,254.5C 269.27,255.46 265.437,255.793 261.5,255.5C 261.666,260.179 261.499,264.845 261,269.5C 259.951,271.107 258.451,271.773 256.5,271.5C 256.451,275.078 255.785,278.411 254.5,281.5C 255.295,254.173 255.961,226.84 256.5,199.5C 257.395,177.098 258.895,154.765 261,132.5C 259.403,129.781 257.237,127.614 254.5,126C 250.096,124.041 245.762,122.208 241.5,120.5C 244.119,120.768 246.619,120.435 249,119.5C 251.295,122.065 254.128,123.731 257.5,124.5C 261.124,127.638 262.958,131.638 263,136.5C 265.304,138.431 267.138,140.764 268.5,143.5C 269.321,140.553 269.821,137.553 270,134.5C 270.5,134 271,133.5 271.5,133C 270.446,131.612 270.28,130.112 271,128.5C 272.087,130.932 272.587,130.598 272.5,127.5C 274.833,127.5 277.167,127.5 279.5,127.5C 279.5,122.167 279.5,116.833 279.5,111.5C 284.167,111.5 288.833,111.5 293.5,111.5C 293.173,106.456 293.506,101.456 294.5,96.5C 295.5,96.1667 296.167,95.5 296.5,94.5C 293.006,93.2264 290.006,91.2264 287.5,88.5C 288.025,87.8076 288.692,87.3076 289.5,87C 286.562,87.4462 283.562,87.9462 280.5,88.5C 300.847,79.3338 321.514,70.6671 342.5,62.5C 342.833,63.3333 343.167,64.1667 343.5,65C 341.143,74.9835 338.31,84.8168 335,94.5C 326.377,112.077 318.044,129.743 310,147.5C 305.93,157.692 303.764,168.025 303.5,178.5 Z"/></g>
<g><path style="opacity:1" fill="#fdea04" d="M 280.5,88.5 C 283.562,87.9462 286.562,87.4462 289.5,87C 288.692,87.3076 288.025,87.8076 287.5,88.5C 290.006,91.2264 293.006,93.2264 296.5,94.5C 296.167,95.5 295.5,96.1667 294.5,96.5C 293.506,101.456 293.173,106.456 293.5,111.5C 288.833,111.5 284.167,111.5 279.5,111.5C 279.5,116.833 279.5,122.167 279.5,127.5C 277.167,127.5 274.833,127.5 272.5,127.5C 272.587,130.598 272.087,130.932 271,128.5C 270.28,130.112 270.446,131.612 271.5,133C 271,133.5 270.5,134 270,134.5C 269.821,137.553 269.321,140.553 268.5,143.5C 267.138,140.764 265.304,138.431 263,136.5C 262.958,131.638 261.124,127.638 257.5,124.5C 254.128,123.731 251.295,122.065 249,119.5C 246.619,120.435 244.119,120.768 241.5,120.5C 237.96,120.247 234.627,119.581 231.5,118.5C 225.369,117.17 218.869,116.503 212,116.5C 205.5,116.667 199,116.833 192.5,117C 188.397,118.004 184.397,119.171 180.5,120.5C 172.144,120.963 163.811,121.63 155.5,122.5C 146.898,121.992 138.731,123.325 131,126.5C 129.282,156.928 131.616,186.928 138,216.5C 138.151,223.896 138.818,231.229 140,238.5C 140.333,237.833 140.667,237.167 141,236.5C 141.232,237.737 141.732,238.737 142.5,239.5C 142.972,251.702 145.305,263.368 149.5,274.5C 149.5,274.833 149.5,275.167 149.5,275.5C 149.513,282.819 150.513,289.986 152.5,297C 151.503,301.138 151.336,305.304 152,309.5C 152.333,308.833 152.667,308.167 153,307.5C 153.684,308.784 153.517,309.951 152.5,311C 155.021,313.99 155.021,316.824 152.5,319.5C 151.416,318.335 150.583,317.002 150,315.5C 149.831,309.141 149.331,302.807 148.5,296.5C 147.12,302.784 146.12,308.95 145.5,315C 145.691,317.937 146.691,320.437 148.5,322.5C 148.258,325.937 147.091,328.937 145,331.5C 145.354,327.599 145.187,323.766 144.5,320C 141.518,319.502 138.518,319.335 135.5,319.5C 135.5,324.833 135.5,330.167 135.5,335.5C 132.833,335.5 130.167,335.5 127.5,335.5C 127.5,340.833 127.5,346.167 127.5,351.5C 122.167,351.5 116.833,351.5 111.5,351.5C 111.5,356.833 111.5,362.167 111.5,367.5C 108.833,367.5 106.167,367.5 103.5,367.5C 103.5,372.833 103.5,378.167 103.5,383.5C 101.167,383.5 98.8333,383.5 96.5,383.5C 96.162,381.146 95.662,378.813 95,376.5C 93.8333,379.167 92.6667,381.833 91.5,384.5C 92.6035,386.277 92.6035,388.111 91.5,390C 92.3308,392.664 93.8308,394.83 96,396.5C 96.8288,399.674 95.8288,400.674 93,399.5C 91.9572,396.888 90.4572,394.555 88.5,392.5C 89.0469,390.288 88.0469,388.621 85.5,387.5C 85.1667,387.833 84.8333,388.167 84.5,388.5C 86.9734,390.098 86.9734,391.598 84.5,393C 86.303,394.871 87.6363,397.038 88.5,399.5C 86.0345,399.65 83.3678,399.983 80.5,400.5C 80.5,402.167 80.5,403.833 80.5,405.5C 78.2396,406.139 76.2396,407.306 74.5,409C 73.6476,411.362 72.1476,413.195 70,414.5C 69.5006,420.157 69.3339,425.824 69.5,431.5C 67.712,431.785 66.0453,431.452 64.5,430.5C 62.28,427.912 60.6133,428.412 59.5,432C 58.2068,432.49 56.8734,432.657 55.5,432.5C 55.5,437.167 55.5,441.833 55.5,446.5C 56.8734,446.343 58.2068,446.51 59.5,447C 57.6992,447.317 57.3659,447.984 58.5,449C 56.8659,449.494 55.1992,449.66 53.5,449.5C 45.6583,447.942 38.3249,445.109 31.5,441C 44.0214,426.146 57.5214,412.313 72,399.5C 80.94,389.461 87.44,377.961 91.5,365C 89.8878,362.384 87.8878,360.05 85.5,358C 66.8333,345.333 48.1667,332.667 29.5,320C 23.684,315.351 18.3507,310.184 13.5,304.5C 29.2963,298.114 45.2963,291.947 61.5,286C 71.1513,281.509 80.4847,276.509 89.5,271C 92.7843,268.741 94.7843,265.741 95.5,262C 95.4581,260.033 94.9581,258.199 94,256.5C 69.2597,233.095 45.9263,208.428 24,182.5C 23.5172,181.552 23.3505,180.552 23.5,179.5C 48.1678,177.333 72.5011,173.166 96.5,167C 97.5827,164.835 98.916,162.835 100.5,161C 94.646,136.711 89.8127,112.211 86,87.5C 85.5002,78.5062 85.3336,69.5062 85.5,60.5C 90.0319,61.7632 94.3653,63.5965 98.5,66C 109.425,74.2539 119.758,83.2539 129.5,93C 136.073,97.9082 142.906,102.408 150,106.5C 165.059,71.2842 185.892,39.9508 212.5,12.5C 226.039,35.543 240.205,58.2097 255,80.5C 257.333,85.1667 259.667,89.8333 262,94.5C 262.561,95.0219 263.228,95.3552 264,95.5C 269.402,92.8683 274.902,90.535 280.5,88.5 Z"/></g>
<g><path style="opacity:1" fill="#d76412" d="M 223.5,127.5 C 210.48,127.313 197.48,127.646 184.5,128.5C 179.373,130.018 174.04,130.851 168.5,131C 167.939,132.566 168.606,133.899 170.5,135C 169.667,135.167 168.833,135.333 168,135.5C 164.122,133.322 159.955,132.322 155.5,132.5C 150.272,133.77 144.939,134.436 139.5,134.5C 139.5,134.167 139.5,133.833 139.5,133.5C 165.225,128.134 191.225,125.634 217.5,126C 219.708,126.191 221.708,126.691 223.5,127.5 Z"/></g>
<g><path style="opacity:1" fill="#dacc27" d="M 231.5,118.5 C 225.173,118.134 218.84,117.8 212.5,117.5C 201.835,118.5 191.168,119.5 180.5,120.5C 184.397,119.171 188.397,118.004 192.5,117C 199,116.833 205.5,116.667 212,116.5C 218.869,116.503 225.369,117.17 231.5,118.5 Z"/></g>
<g><path style="opacity:1" fill="#dcc923" d="M 155.5,307.5 C 159.657,336.063 163.99,364.73 168.5,393.5C 170.167,393.5 171.833,393.5 173.5,393.5C 172.713,395.104 171.38,395.771 169.5,395.5C 168.167,395.5 166.833,395.5 165.5,395.5C 165.666,391.154 165.499,386.821 165,382.5C 163.255,371.372 161.255,360.372 159,349.5C 158.368,335.444 157.201,321.444 155.5,307.5 Z"/></g>
<g><path style="opacity:1" fill="#bf2014" d="M 222.5,352.5 C 222.799,360.396 222.132,368.063 220.5,375.5C 220.079,367.589 220.745,359.923 222.5,352.5 Z"/></g>
<g><path style="opacity:1" fill="#7e191a" d="M 232.5,271.5 C 232.5,273.5 232.5,275.5 232.5,277.5C 232.5,280.833 232.5,284.167 232.5,287.5C 231.035,314.885 229.868,342.219 229,369.5C 231.244,370.954 233.577,372.288 236,373.5C 236.499,369.984 236.333,366.484 235.5,363C 236.726,354.416 237.559,354.583 238,363.5C 238.578,350.449 239.578,337.449 241,324.5C 241.76,320.012 242.594,315.678 243.5,311.5C 242.15,332.186 240.65,352.853 239,373.5C 238.37,377.963 235.87,380.629 231.5,381.5C 229.971,381.471 228.804,380.804 228,379.5C 227.674,343.278 229.174,307.278 232.5,271.5 Z"/></g>
<g><path style="opacity:1" fill="#c02512" d="M 166.5,335.5 C 171.104,350.48 173.771,366.146 174.5,382.5C 187.405,382.558 200.072,381.224 212.5,378.5C 214.409,379.348 216.409,379.682 218.5,379.5C 218.285,377.821 218.952,376.821 220.5,376.5C 220.714,378.144 220.38,379.644 219.5,381C 204.136,381.836 188.803,383.003 173.5,384.5C 171.703,368.057 169.37,351.724 166.5,335.5 Z"/></g>
<g><path style="opacity:1" fill="#d1ba28" d="M 219.5,390.5 C 217.5,391.167 215.5,391.833 213.5,392.5C 200.494,392.631 187.494,392.964 174.5,393.5C 189.298,391.784 204.298,390.784 219.5,390.5 Z"/></g>
<g><path style="opacity:1" fill="#fedc01" d="M 213.5,392.5 C 213.389,393.117 213.056,393.617 212.5,394C 216.099,395.014 219.765,395.847 223.5,396.5C 218.198,397.329 212.864,397.829 207.5,398C 206.802,398.971 206.802,400.137 207.5,401.5C 204.667,406.167 201.833,410.833 199,415.5C 196.849,415.274 194.683,415.941 192.5,417.5C 191.914,417.291 191.414,416.957 191,416.5C 189.588,418.065 188.421,419.731 187.5,421.5C 187.158,422.338 186.492,422.672 185.5,422.5C 182.801,422.466 180.301,423.133 178,424.5C 177.667,424.167 177.333,423.833 177,423.5C 173.79,427.254 171.623,431.587 170.5,436.5C 167.724,436.089 167.057,436.922 168.5,439C 167.148,440.964 166.314,443.131 166,445.5C 165.097,446.701 163.931,447.535 162.5,448C 163.167,449 163.833,450 164.5,451C 164.037,454.926 164.037,458.926 164.5,463C 161.49,466.015 158.823,469.349 156.5,473C 155.391,475.047 154.724,477.213 154.5,479.5C 153.5,479.5 152.5,479.5 151.5,479.5C 148.833,484.833 146.167,490.167 143.5,495.5C 142.167,495.5 140.833,495.5 139.5,495.5C 140.111,498.961 138.944,501.628 136,503.5C 135.517,504.448 135.351,505.448 135.5,506.5C 134.448,506.351 133.448,506.517 132.5,507C 131.864,509.775 130.364,511.941 128,513.5C 127.505,515.473 127.338,517.473 127.5,519.5C 123.26,520.57 120.427,523.237 119,527.5C 113.575,532.684 109.575,538.684 107,545.5C 104.526,548.378 102.193,551.378 100,554.5C 99.2797,556.112 99.4464,557.612 100.5,559C 98.8934,560.049 98.2267,561.549 98.5,563.5C 96.4078,563.561 94.9078,564.561 94,566.5C 93.4153,567.998 93.9153,568.998 95.5,569.5C 92.6888,570.475 89.6888,571.142 86.5,571.5C 86.6159,568.14 86.9492,564.807 87.5,561.5C 92.4798,542.247 97.1465,522.914 101.5,503.5C 103.651,497.716 105.318,491.716 106.5,485.5C 107.151,486.091 107.818,486.757 108.5,487.5C 109.223,485.836 108.89,484.169 107.5,482.5C 110.167,481.167 110.167,479.833 107.5,478.5C 108.723,476.54 110.056,474.707 111.5,473C 110.643,472.311 109.977,471.478 109.5,470.5C 109.661,467.236 109.661,464.07 109.5,461C 111.807,460.729 112.974,461.895 113,464.5C 116.568,463.924 120.068,463.59 123.5,463.5C 123.5,458.167 123.5,452.833 123.5,447.5C 124.822,447.67 125.989,447.337 127,446.5C 127.172,450.871 127.672,455.204 128.5,459.5C 128.983,453.922 130.316,448.589 132.5,443.5C 136.413,439.08 140.747,435.247 145.5,432C 146.793,431.51 148.127,431.343 149.5,431.5C 149.5,426.167 149.5,420.833 149.5,415.5C 151.5,415.5 153.5,415.5 155.5,415.5C 155.5,410.167 155.5,404.833 155.5,399.5C 156.833,399.5 158.167,399.5 159.5,399.5C 159.539,420.63 160.373,420.63 162,399.5C 164.519,398.092 167.019,396.758 169.5,395.5C 171.38,395.771 172.713,395.104 173.5,393.5C 173.833,393.5 174.167,393.5 174.5,393.5C 187.494,392.964 200.494,392.631 213.5,392.5 Z"/></g>
<g><path style="opacity:1" fill="#0f0502" d="M 249.5,437.5 C 251.546,450.22 249.379,462.22 243,473.5C 237.114,483.194 228.614,487.027 217.5,485C 206.12,491.814 194.453,492.314 182.5,486.5C 171.888,478.61 166.555,467.943 166.5,454.5C 167.254,440.297 173.587,429.631 185.5,422.5C 186.492,422.672 187.158,422.338 187.5,421.5C 202.857,418.715 218.191,418.882 233.5,422C 237.538,422.899 241.205,424.566 244.5,427C 246.579,430.324 248.246,433.824 249.5,437.5 Z"/></g>
<g><path style="opacity:1" fill="#cc611b" d="M 211.5,431.5 C 202.124,429.48 193.124,430.48 184.5,434.5C 187.557,431.638 191.224,429.805 195.5,429C 200.167,428.333 204.833,428.333 209.5,429C 210.381,429.708 211.047,430.542 211.5,431.5 Z"/></g>
<g><path style="opacity:1" fill="#fc6502" d="M 211.5,431.5 C 211.833,431.5 212.167,431.5 212.5,431.5C 212.631,432.239 212.464,432.906 212,433.5C 210.092,432.921 208.425,432.921 207,433.5C 198.58,445.071 190.413,456.737 182.5,468.5C 181.967,470.432 181.967,472.432 182.5,474.5C 183.167,475.5 183.833,476.5 184.5,477.5C 179.662,475.329 176.662,471.663 175.5,466.5C 173.253,457.265 174.42,448.598 179,440.5C 181.04,438.63 182.873,436.63 184.5,434.5C 193.124,430.48 202.124,429.48 211.5,431.5 Z"/></g>
<g><path style="opacity:1" fill="#b55353" d="M 239.5,435.5 C 237.088,435.244 235.421,436.244 234.5,438.5C 232.886,443.02 232.22,447.686 232.5,452.5C 232.167,452.5 231.833,452.5 231.5,452.5C 231.323,443.912 228.656,436.245 223.5,429.5C 228.571,427.885 233.238,428.719 237.5,432C 238.823,432.816 239.489,433.983 239.5,435.5 Z"/></g>
<g><path style="opacity:1" fill="#fb4f02" d="M 212.5,431.5 C 215.047,432.934 217.381,434.6 219.5,436.5C 216.455,436.658 213.621,435.991 211,434.5C 210.445,436.721 210.612,439.054 211.5,441.5C 208.956,441.104 206.789,441.771 205,443.5C 198.964,452.857 192.964,462.191 187,471.5C 185.591,472.781 184.091,473.781 182.5,474.5C 181.967,472.432 181.967,470.432 182.5,468.5C 190.413,456.737 198.58,445.071 207,433.5C 208.425,432.921 210.092,432.921 212,433.5C 212.464,432.906 212.631,432.239 212.5,431.5 Z"/></g>
<g><path style="opacity:1" fill="#ca681a" d="M 184.5,434.5 C 182.873,436.63 181.04,438.63 179,440.5C 174.42,448.598 173.253,457.265 175.5,466.5C 171.162,457.194 171.996,448.194 178,439.5C 179.777,437.21 181.944,435.543 184.5,434.5 Z"/></g>
<g><path style="opacity:1" fill="#6e1b1e" d="M 239.5,435.5 C 241.311,437.385 242.478,439.719 243,442.5C 243.667,446.167 243.667,449.833 243,453.5C 242.722,454.416 242.222,455.082 241.5,455.5C 241.934,448.617 241.267,441.95 239.5,435.5 Z"/></g>
<g><path style="opacity:1" fill="#fb2502" d="M 219.5,436.5 C 220.343,439.516 221.843,442.183 224,444.5C 224.5,450.825 224.666,457.158 224.5,463.5C 223.048,468.399 220.548,472.733 217,476.5C 214.135,478.515 210.968,479.848 207.5,480.5C 199.515,481.13 191.849,480.13 184.5,477.5C 183.833,476.5 183.167,475.5 182.5,474.5C 184.091,473.781 185.591,472.781 187,471.5C 192.964,462.191 198.964,452.857 205,443.5C 206.789,441.771 208.956,441.104 211.5,441.5C 210.612,439.054 210.445,436.721 211,434.5C 213.621,435.991 216.455,436.658 219.5,436.5 Z"/></g>
<g><path style="opacity:1" fill="#9f2526" d="M 239.5,435.5 C 241.267,441.95 241.934,448.617 241.5,455.5C 239.177,458.722 237.677,462.388 237,466.5C 235.921,468.394 234.587,468.727 233,467.5C 232.501,462.511 232.334,457.511 232.5,452.5C 232.22,447.686 232.886,443.02 234.5,438.5C 235.421,436.244 237.088,435.244 239.5,435.5 Z"/></g>
<g><path style="opacity:1" fill="#c02412" d="M 219.5,436.5 C 220.643,436.908 221.643,437.575 222.5,438.5C 226.872,446.631 227.539,454.964 224.5,463.5C 224.666,457.158 224.5,450.825 224,444.5C 221.843,442.183 220.343,439.516 219.5,436.5 Z"/></g>
<g><path style="opacity:1" fill="#fdd602" d="M 185.5,422.5 C 173.587,429.631 167.254,440.297 166.5,454.5C 166.555,467.943 171.888,478.61 182.5,486.5C 182.5,487.5 182.5,488.5 182.5,489.5C 184.821,489.229 186.821,489.896 188.5,491.5C 190.62,490.128 191.62,490.795 191.5,493.5C 196.412,496.984 201.579,497.317 207,494.5C 207.499,500.157 207.666,505.824 207.5,511.5C 204.833,511.5 202.167,511.5 199.5,511.5C 199.5,516.833 199.5,522.167 199.5,527.5C 194.167,527.5 188.833,527.5 183.5,527.5C 183.5,532.5 183.5,537.5 183.5,542.5C 181.545,543.724 178.878,544.724 175.5,545.5C 159.267,550.799 142.933,556.133 126.5,561.5C 119.014,563.709 111.347,564.875 103.5,565C 104.706,566.018 104.373,566.518 102.5,566.5C 100.541,566.125 98.7073,565.459 97,564.5C 96.4926,565.996 96.9926,567.163 98.5,568C 97.4734,568.513 96.4734,569.013 95.5,569.5C 93.9153,568.998 93.4153,567.998 94,566.5C 94.9078,564.561 96.4078,563.561 98.5,563.5C 98.2267,561.549 98.8934,560.049 100.5,559C 99.4464,557.612 99.2797,556.112 100,554.5C 102.193,551.378 104.526,548.378 107,545.5C 109.575,538.684 113.575,532.684 119,527.5C 120.427,523.237 123.26,520.57 127.5,519.5C 127.338,517.473 127.505,515.473 128,513.5C 130.364,511.941 131.864,509.775 132.5,507C 133.448,506.517 134.448,506.351 135.5,506.5C 135.351,505.448 135.517,504.448 136,503.5C 138.944,501.628 140.111,498.961 139.5,495.5C 140.833,495.5 142.167,495.5 143.5,495.5C 146.167,490.167 148.833,484.833 151.5,479.5C 152.5,479.5 153.5,479.5 154.5,479.5C 154.724,477.213 155.391,475.047 156.5,473C 158.823,469.349 161.49,466.015 164.5,463C 164.037,458.926 164.037,454.926 164.5,451C 163.833,450 163.167,449 162.5,448C 163.931,447.535 165.097,446.701 166,445.5C 166.314,443.131 167.148,440.964 168.5,439C 167.057,436.922 167.724,436.089 170.5,436.5C 171.623,431.587 173.79,427.254 177,423.5C 177.333,423.833 177.667,424.167 178,424.5C 180.301,423.133 182.801,422.466 185.5,422.5 Z"/></g>
<g><path style="opacity:1" fill="#781b1a" d="M 231.5,452.5 C 231.833,452.5 232.167,452.5 232.5,452.5C 232.334,457.511 232.501,462.511 233,467.5C 234.587,468.727 235.921,468.394 237,466.5C 237.677,462.388 239.177,458.722 241.5,455.5C 240.866,462.581 237.866,468.414 232.5,473C 231.552,473.483 230.552,473.649 229.5,473.5C 230.427,466.528 231.094,459.528 231.5,452.5 Z"/></g>
<g><path style="opacity:1" fill="#e0cb23" d="M 91.5,457.5 C 95.8967,457.425 100.23,457.925 104.5,459C 105.333,459.833 106.167,460.667 107,461.5C 107.065,469.492 106.899,477.492 106.5,485.5C 105.318,491.716 103.651,497.716 101.5,503.5C 103.821,489.596 105.155,475.596 105.5,461.5C 100.645,460.456 95.9785,459.123 91.5,457.5 Z"/></g>
<g><path style="opacity:1" fill="#c22811" d="M 184.5,477.5 C 191.849,480.13 199.515,481.13 207.5,480.5C 203.469,482.439 199.136,482.939 194.5,482C 191.012,480.562 187.679,479.062 184.5,477.5 Z"/></g>
<g><path style="opacity:1" fill="#e4be1d" d="M 341.5,519.5 C 343.797,525.911 345.63,532.577 347,539.5C 347.808,541.579 347.641,543.579 346.5,545.5C 332.094,541.319 317.761,537.319 303.5,533.5C 316.036,534.307 328.036,536.307 339.5,539.5C 339.5,540.5 339.5,541.5 339.5,542.5C 341.5,542.5 343.5,542.5 345.5,542.5C 344.585,534.757 343.252,527.091 341.5,519.5 Z"/></g>
<g><path style="opacity:0.741" fill="#696768" d="M 267.5,537.5 C 270.495,537.294 273.162,537.96 275.5,539.5C 272.572,539.435 269.905,538.768 267.5,537.5 Z"/></g>
<g><path style="opacity:0.988" fill="#6a6a6a" d="M 294.5,544.5 C 297.152,544.41 299.485,545.076 301.5,546.5C 298.848,546.59 296.515,545.924 294.5,544.5 Z"/></g>
<g><path style="opacity:0.845" fill="#5d5d5d" d="M 355.5,538.5 C 356.49,544.645 356.823,550.978 356.5,557.5C 355.209,557.737 354.209,557.404 353.5,556.5C 355.453,550.926 356.12,544.926 355.5,538.5 Z"/></g>
<g><path style="opacity:1" fill="#e9cb21" d="M 87.5,561.5 C 86.9492,564.807 86.6159,568.14 86.5,571.5C 89.6888,571.142 92.6888,570.475 95.5,569.5C 96.4734,569.013 97.4734,568.513 98.5,568C 96.9926,567.163 96.4926,565.996 97,564.5C 98.7073,565.459 100.541,566.125 102.5,566.5C 104.373,566.518 104.706,566.018 103.5,565C 111.347,564.875 119.014,563.709 126.5,561.5C 113.167,566.274 99.5001,570.274 85.5,573.5C 84.8333,573.167 84.1667,572.833 83.5,572.5C 84.4662,568.593 85.7995,564.926 87.5,561.5 Z"/></g>
</svg>
