<?xml version="1.0" encoding="UTF-8" standalone="no" ?>
<!DOCTYPE svg PUBLIC "-//W3C//DTD SVG 1.1//EN" "http://www.w3.org/Graphics/SVG/1.1/DTD/svg11.dtd">
<svg xmlns="http://www.w3.org/2000/svg" xmlns:xlink="http://www.w3.org/1999/xlink" version="1.1" width="550" height="400" viewBox="0 0 550 400" xml:space="preserve">
<desc>Created with Fabric.js 5.2.4</desc>
<defs>
</defs>
<rect x="0" y="0" width="100%" height="100%" fill="transparent"></rect>
<g transform="matrix(1 0 0 1 275 200)" id="0e659c5f-fa97-4ec7-a6cc-9f79d149e497"  >
<rect style="stroke: none; stroke-width: 1; stroke-dasharray: none; stroke-linecap: butt; stroke-dashoffset: 0; stroke-linejoin: miter; stroke-miterlimit: 4; fill: rgb(255,255,255); fill-rule: nonzero; opacity: 1; visibility: hidden;" vector-effect="non-scaling-stroke"  x="-275" y="-200" rx="0" ry="0" width="550" height="400" />
</g>
<g transform="matrix(Infinity NaN NaN Infinity 0 0)" id="cdb07288-a07d-412e-b956-47571096d1b6"  >
</g>
<g transform="matrix(1.07 0 0 2.43 276.12 200)" id="合体_13_00000065057218155460181310000005005897152813588650_"  >
<path style="stroke: none; stroke-width: 1; stroke-dasharray: none; stroke-linecap: butt; stroke-dashoffset: 0; stroke-linejoin: miter; stroke-miterlimit: 4; fill: rgb(8,8,8); fill-rule: nonzero; opacity: 1;" vector-effect="non-scaling-stroke"  transform=" translate(-344.23, -1980.23)" d="M 192.8746185 2052.0200195 C 192.2555999 2051.6149902 191.6336517 2051.2089843000003 190.9905853 2050.7910156000003 C 187.2906341 2049.4511718000003 184.203598 2047.7380371000002 183.33958429999998 2044.6311035000003 C 181.00352469999999 2043.9260254000003 179.7875823 2042.6411133000004 179.4965667 2040.8760986000004 C 173.7026214 2036.4350586000005 168.5516204 2031.6990966000005 166.0225677 2025.7680664000004 C 162.1485443 2023.0841064000003 157.9066009 2020.6450195000004 154.86351009999998 2017.4071045000005 C 158.35545349999998 2016.9730225000005 163.092514 2017.4951172000005 161.43345639999998 2013.1070557000005 C 157.2004242 2011.6950684000005 153.3414154 2009.9680176000004 150.4444427 2007.4300537000006 C 139.580429 2008.5300293000007 130.0193939 2009.1850586000005 130.3184661 2007.7370605000006 C 130.7034759 2005.8790283000005 132.9374847 2006.1080322000005 135.1854095 2006.3370361000007 C 136.1458587 2006.4718017000007 137.1171722 2006.5117187000008 138.0854339 2006.4560547000005 C 139.6268157 2005.3972168000005 141.5773773 2005.1274414000006 143.34837339999999 2005.7280274000007 C 146.5123138 2006.9190674000006 146.342392 2006.3120118000006 145.7014007 2005.4570313000006 C 143.1334075 2004.7360840000006 142.4413909 2002.4940186000006 140.94041439999998 2000.9100342000006 L 140.06346129999997 2000.9851074000005 L 139.18345639999998 2000.8610840000006 C 136.01646419999997 2001.1860352000006 133.2784271 2000.0870361000007 130.3334808 1999.6760254000005 C 131.7814788 1998.3961182000005 133.64952079999998 1998.4190674000006 135.51853939999998 1998.4470215000006 C 136.17955009999997 1998.4550781000005 136.83958429999998 1998.4650879000005 137.4825287 1998.4190674000006 C 138.0547943 1998.3289795000005 138.63706969999998 1998.3212891000005 139.2115326 1998.3961182000005 C 139.7576752 1998.2285157000006 140.321518 1998.1254883000006 140.8915863 1998.0891114000005 C 143.210556 1995.4650880000006 148.0635834 1996.2580567000005 151.0235443 1994.4960938000006 C 150.9355316 1994.3433838000005 150.8538666 1994.1877442000007 150.7785492 1994.0290528000005 C 149.2944183 1992.6824952000004 147.677475 1991.4899903000005 145.9524994 1990.4700928000004 C 144.736557 1989.8790283000005 143.83946229999998 1989.3031006000003 143.8205414 1988.7250977000003 C 143.0335541 1988.6340332000004 142.2045746 1988.5720215000003 141.361557 1988.5140381000003 C 143.26377870000002 1986.6202393000003 144.31700130000002 1984.0360108000004 144.2805023 1981.3520508000004 L 145.0324554 1980.8131104000004 C 144.9835052 1980.7500000000005 144.9384613 1980.6881104000004 144.8964691 1980.6270752000003 C 143.6865082 1978.8690186000003 140.217514 1980.7480469000002 137.78440859999998 1981.2150879000003 C 133.7564545 1981.9890137000002 131.49546819999998 1985.9150391000003 125.58445739999998 1984.2420654000002 C 133.31346129999997 1984.1260986000002 126.54441829999998 1976.6420898000001 133.82444759999998 1976.2960205000002 C 129.99546809999998 1974.3961182000003 124.90843199999999 1975.9350586000003 121.42442319999998 1973.6900635000002 L 117.87644959999997 1972.5900879 C 116.45445249999997 1972.4720459 115.03245549999997 1972.3527832 113.61045839999997 1972.2320557 C 111.16648869999997 1969.7590332 133.77549749999997 1965.2390137 129.84446719999997 1965.0731202 C 124.23228459999997 1964.7069093 118.71739199999996 1963.4284668999999 113.51646429999997 1961.288086 C 109.58042909999996 1959.7990723 122.40550239999996 1955.3391114 118.27049259999997 1954.9160157000001 C 111.52745059999997 1952.8830567000002 131.29051209999997 1944.4750977 132.64244079999997 1938.3229981000002 C 133.11741639999997 1936.1630860000002 131.43748469999997 1934.6719971000002 129.4424896 1933.2780762000002 C 128.09544369999998 1932.2780762000002 127.67051689999998 1930.6970215000001 125.71849059999998 1930.0780030000003 C 124.87718199999998 1929.9138184000003 124.09129329999998 1929.5388184000003 123.43443299999998 1928.9880372000002 C 123.08323669999999 1928.3400880000002 122.63426209999999 1927.7502442000002 122.10337829999999 1927.2390138000003 C 117.92234799999999 1924.4390870000002 114.21641539999999 1921.5280763000003 117.41636659999999 1917.0920411000002 C 117.84922789999999 1916.9422608000002 118.2924652 1916.8239747000002 118.7424164 1916.7380372000002 C 118.68235779999999 1916.6740724000003 118.6214447 1916.6090089000002 118.5644379 1916.5450440000002 C 114.02745060000001 1913.1311036000002 108.0324555 1914.6140137000002 102.82444770000001 1913.4450684 C 103.52439890000001 1910.0740967000002 106.5615082 1909.1580811000001 110.8115082 1909.0650635000002 C 111.4634857 1909.0672608000002 112.11473090000001 1909.1049805000002 112.76255800000001 1909.1781006 C 115.3625336 1909.413086 118.16856390000001 1909.6511231000002 117.11460880000001 1905.8850098 C 116.81456000000001 1904.8090821 118.69859320000002 1904.7420655 119.60655220000001 1905.0310059 C 126.9255219 1907.3690186000001 135.1146088 1907.0250245 142.36851510000002 1909.5130616000001 C 143.16429150000002 1909.6076661000002 143.92210400000002 1909.9062501 144.5684663 1910.3800050000002 L 150.97850050000002 1910.8260499000003 C 152.56370560000002 1909.8848878000003 154.4825288 1909.6884767000004 156.22544870000002 1910.2890626000003 L 167.3174897 1912.7180177000002 C 169.4041596 1912.7387697000001 171.495102 1912.7600099000003 173.5904389 1912.7821046000001 L 173.755478 1909.4820558000001 C 171.7241059 1909.2994386 169.6907807 1909.1186525 167.65550240000002 1908.9400636 C 172.9174653 1906.4169923 178.87644970000002 1906.6619874 184.96751410000002 1906.9190675 C 191.86753850000002 1907.2139894 198.53050240000002 1910.2590333 204.91355900000002 1909.9899904 C 221.65354920000001 1909.2830812 238.05760200000003 1912.0570069999999 254.6135102 1912.9530031 C 255.3748627 1912.9714357 256.1335145 1913.0496828 256.8825379 1913.1870119 C 261.0015565 1914.0100099000001 266.65548709999996 1912.3350832 268.2145691 1917.319092 C 282.5192566 1918.5190432 296.8229675 1919.716675 311.1255798 1920.9119875 C 315.30160520000004 1919.20105 319.88754270000004 1920.0729981999998 324.30062860000004 1920.3980714999998 C 335.5215759 1921.2290040999999 346.7316589 1922.2270509999998 357.93759150000005 1923.2290040999999 C 362.44357290000005 1923.6290284999998 366.91757200000006 1924.1290284999998 371.16061400000007 1922.7290040999999 C 371.20260620000005 1922.1690675999998 371.2515564000001 1921.6149904 371.30758670000006 1921.0570069999999 L 385.01864630000006 1922.1950685 C 396.55966190000004 1922.4260255 392.76864630000006 1921.1090089 388.53659060000007 1920.1290285 C 390.99655150000007 1920.2386476 393.45455940000005 1919.8723146 395.77560430000005 1919.050049 C 403.455658 1916.043091 411.92062380000004 1916.7500002 420.07565310000007 1917.1400148 C 426.30770880000006 1917.4400636 433.17562870000006 1916.5780031 438.8056336000001 1920.1259767 C 449.9616395000001 1921.2459718 460.9895936000001 1923.6719971999999 472.3306580000001 1923.1259767 C 472.8516541000001 1923.1010744 473.3576355000001 1923.1049805999999 473.8486023000001 1923.1099855 C 475.7066345000001 1923.1330568 477.3665466000001 1923.1569826 479.0046082000001 1921.4840089 C 483.4825135000001 1916.906006 489.7347107000001 1916.9580079 496.2486268000001 1920.130005 C 500.23861700000015 1920.0059816 503.2705995000001 1922.4300538 507.1075135000001 1922.7210694999999 C 508.0674744000001 1923.1910401999999 509.0535584000001 1923.6350099 509.9825135000001 1924.1350099 C 516.9566651000001 1927.9030762999998 517.2135010000001 1930.6719971999999 511.12362680000007 1934.4350587 C 507.7535096000001 1936.5200195999998 504.56161510000004 1938.7600099 501.28866590000007 1940.9279786 C 500.49642960000006 1941.1568604 499.6434022000001 1941.0236817 498.9585878000001 1940.5639649 C 498.9085390000001 1940.7089844 498.8584901000001 1940.8530274 498.8174745000001 1940.9959717 C 500.5589296000001 1941.0627442 502.3018495000001 1941.1660156 504.0464784000001 1941.3060303 C 506.9356386000001 1941.4029541 509.82553110000015 1941.1322022 512.6466066000002 1940.5 C 515.1124269000002 1939.9907227 517.6185304000002 1939.7016602 520.1356203000001 1939.6359863 C 525.0177004000002 1939.6490478 529.7977297000001 1939.6640625 533.9136965000001 1941.7810058 C 532.7135012000001 1941.8330078 531.5137942000001 1941.8836669 530.3135988000001 1941.9329833 C 529.7635500000001 1942.7919921 529.2135011000001 1943.6490477999998 528.6646730000001 1944.5109862 C 529.8887941000002 1944.5490720999999 531.1165773000001 1944.5880126 532.3426515000001 1944.6290282 L 541.3697511000001 1944.0570067 C 543.0557863000001 1942.7387694000001 545.3922120000002 1942.6347655000002 547.1888429000002 1943.7979735000001 L 552.3887941000002 1943.6409911 C 552.9176027000002 1943.3194579 553.5155031000002 1943.1281737000002 554.1326906000002 1943.0830077 C 560.0325929000002 1941.4270018 566.5767824000002 1941.9710692 572.5257570000001 1940.4279784 C 573.2637941000002 1940.2370604 574.7738039000001 1940.3530272 574.4898683000001 1941.1660155 C 573.4969484000002 1944.0269773999999 575.7669679000002 1943.9350585 577.8577882000001 1943.8420409 C 578.4097902000001 1943.8189696 578.9498292000001 1943.7960204 579.4117433000001 1943.8239745 C 582.8116456000001 1944.0429686 585.2117921000001 1944.8480224 585.6368410000001 1947.4580077 C 584.1231691000002 1947.6680907 582.5943605000001 1947.7507323 581.0667726000001 1947.705078 C 578.2147218000001 1947.705078 575.3607179000002 1947.6950682 572.9197999000002 1949.2919921 L 572.7708741000001 1949.4350585 C 573.1260987000002 1949.5162353 573.4752198000001 1949.6220702 573.8157960000001 1949.7520751 C 576.2088624 1953.2630614 573.1287843000001 1955.3670653 569.6759034 1957.3749999 C 569.2327882000001 1957.7474364 568.8497315000001 1958.185913 568.5399171 1958.6750487 C 567.9886476 1959.0764159 567.3472901 1959.3360593999998 566.6719972000001 1959.4310301 C 565.0850831000001 1959.8360594 564.6829835000001 1961.0310057000002 563.5718995000001 1961.7559813 C 561.9259034 1962.7559813 560.5238038000001 1963.8410643 560.8209229000001 1965.5190428 C 561.6649170000002 1970.2830809000002 577.1600342000002 1977.4110106 571.6859131000001 1978.7399901 C 568.3590088000001 1978.9210204 578.4498291000001 1982.7810057000002 575.2418213000001 1983.7910155000002 C 570.9857178000001 1985.2568358 566.5264893000001 1986.0473632000003 562.0257568000001 1986.1340331000001 C 558.8726806000001 1986.1240233 576.7977295000001 1990.3709716 574.7467041000001 1992.1810302000001 L 571.0736084000001 1992.3200683000002 C 570.4796143000001 1992.3540038000003 569.8861084000001 1992.3909912000001 569.2935791000001 1992.4310302000001 C 566.4056396000001 1994.9520263000002 561.8765869000001 1993.1430663 558.4075928000001 1994.6090087000002 C 564.2215576000001 1995.1230468000003 558.5155030000001 2000.6320800000003 564.6995850000001 2000.9860839000003 C 559.8995362000001 2002.0700683000002 558.2406006000001 1998.9780273000003 555.0455323000001 1998.2490234000002 C 553.1146241000001 1997.8050537000001 550.4124757000001 1996.243042 549.3756104000001 1997.5490722000002 C 548.3387452000002 1998.8549804000002 544.6995850000002 2000.9560546000002 548.9166260000002 2002.8560790000001 C 550.7677002000001 2003.6920165000001 549.8165283000002 2004.3780517000002 548.1495362000002 2005.0650634 C 546.7344971000002 2005.7847900000002 545.3946534000002 2006.6433105 544.1495362000002 2007.6280517 C 543.3489991000001 2008.9578857 542.0733643000002 2009.9343261 540.5804444000001 2010.3599853 L 540.4803467000002 2007.9780273000001 C 540.4112549000001 2007.9780273000001 540.3382569000001 2007.9780273000001 540.2662354000001 2007.9780273000001 C 538.3973389000001 2009.5939941000001 533.1121827000002 2009.4909668 535.1021729000001 2013.0410156 L 537.2181397000002 2014.2800293 C 538.4200440000002 2014.2318115 539.6041260000002 2014.5834961 540.5850831000001 2015.2800293 C 541.8231202000002 2014.6923828000001 543.2677003000001 2014.7336426 544.4700929000002 2015.3909912 C 545.6954347000002 2015.3443602999998 546.9210206000001 2015.2960205 548.1470949000002 2015.2459717 C 549.1300051000002 2015.1010741999999 548.5841066000002 2015.6800537 548.0469972000002 2016.2550049 C 547.3380128000002 2017.0219726999999 546.6558839000002 2017.7879638999998 549.6470949000002 2016.8549805 C 551.0823976000001 2016.4561768 552.6209719000002 2016.727417 553.8331301000002 2017.5930176 C 554.6051028000002 2017.6697998 555.3826906000002 2017.6724854 556.1551516000002 2017.6010741999999 C 557.9620364000002 2017.5009764999998 559.7630618000002 2017.401001 559.9981692000002 2018.8420409999999 C 560.2301028000003 2020.2420653999998 548.1842044000002 2018.5920409999999 537.2281497000002 2016.9420166 C 528.8670657000002 2015.677002 521.1431888000002 2014.4160156 519.9991458000003 2014.5130615 C 518.5738528000003 2014.5347900000002 517.1983646000003 2015.0412597 516.0992435000003 2015.9489746000002 C 516.9532474000002 2018.1030273000001 513.7452396000003 2017.6020508000001 512.7132572000003 2018.5290527000002 C 511.14413490000027 2020.1340332000002 508.92514070000027 2020.1109619000001 506.69223060000024 2020.0880127000003 C 506.21029700000025 2020.0880127000003 505.72421300000025 2020.0780029000002 505.2471622000002 2020.0880127000003 C 505.3213810000002 2020.9807129000003 505.3960880000002 2021.8720703000004 505.4722599000002 2022.7619629000003 C 503.4331974000002 2022.8620606000004 501.3973087000002 2023.0310059000003 499.3611759000002 2023.0429688000004 C 495.3772892000002 2023.0710450000004 494.4261173000002 2024.7509766000003 494.6492618000002 2027.1330567000005 C 490.5823673000002 2028.9040528000005 486.1121524000002 2028.8499756000006 481.6392520000002 2028.7700196000005 C 476.7142032000002 2028.7490235000005 468.03927640000023 2028.0080567000005 458.92526270000025 2027.3540040000005 C 456.01620510000026 2028.1943360000005 453.25961330000024 2029.4930421000006 450.75924710000027 2031.2010499000005 C 450.28622460000025 2033.4820558000006 448.6922305000003 2035.0849610000005 445.73422270000026 2035.8720704000004 C 444.46322660000027 2039.8640138000005 440.49923730000023 2041.9240724000003 435.80917390000025 2043.4570313000004 C 434.9831241000002 2043.9680176000004 434.18319730000024 2044.4570313000004 433.38021880000025 2044.9510499000003 C 416.7402042000002 2050.7509767 399.82919340000024 2048.8168946 382.82223540000024 2044.0970460000003 C 372.0055850000002 2040.4302980000002 361.1896670000002 2036.7617189000002 350.37423740000025 2033.0910646000002 C 344.97018470000023 2033.3476564000002 339.56588780000027 2033.5906984000003 334.1612247000003 2033.8200685000002 C 320.26120030000027 2034.4289552000002 307.30819740000027 2037.8720705 293.86117590000026 2039.7740480000002 C 286.3981632000003 2040.8320314000002 279.0691837000003 2042.432007 271.6801456000003 2043.7900392000001 C 267.9201358000003 2044.1280519000002 264.49313390000026 2045.6350099000001 260.6121524000003 2045.5369874 C 251.5380710000003 2048.0556642 242.4645847000003 2050.5754395 233.3912204000003 2053.0959474 C 226.7355808000003 2054.6530763 219.9308933000003 2055.4853517 213.0961765000003 2055.5781251000003 C 206.1935883 2055.6535645 199.3368988 2054.4470215 192.8746185 2052.0200195 z M 383.6226501 1919.1480713 C 383.6226501 1919.1480713 386.1486511 1919.5930176000002 388.5336608 1920.1480713 C 386.84579460000003 1920.1522217000002 385.1747741 1919.8123779 383.6226501 1919.1490479000001 L 383.6226501 1919.1480713 z" stroke-linecap="round" />
</g>
</svg>