<?xml version="1.0" encoding="UTF-8"?><svg id="_レイヤー_2" xmlns="http://www.w3.org/2000/svg" viewBox="0 0 208.25 98.78"><defs><style>.cls-1{fill:#000;stroke-width:0px;}</style></defs><g id="_レイヤー_1-2"><rect class="cls-1" y="82.16" width="119.02" height="7.22"/><rect class="cls-1" width="208.25" height="7.23"/><path class="cls-1" d="M186.03,38.38h-2.68c-.17,0-.3-.13-.3-.3v-17.05h0c0-.82-.67-1.49-1.49-1.49h-22.34c-.82,0-1.49.67-1.49,1.49v46.62h0c0,.82.67,1.49,1.49,1.49l26.76-.04c.82,0,1.49-.67,1.49-1.49l.04-27.75c0-.82-.67-1.49-1.49-1.49ZM166.96,28.47h6.85c.17,0,.3.13.3.3v9.31c0,.17-.13.3-.3.3h-6.85c-.17,0-.3-.13-.3-.3v-9.31c0-.17.13-.3.3-.3ZM178.58,59.95c0,.17-.13.3-.3.3h-11.32c-.17,0-.3-.13-.3-.3v-13.09c0-.17.13-.3.3-.3h11.31c.17,0,.3.13.3.3v13.09s0,0,0,0Z"/><path class="cls-1" d="M192.87,69.19h7.15c.49,0,.89-.4.89-.89V20.43c0-.49-.4-.89-.89-.89h-7.15c-.49,0-.89.4-.89.89h0v47.86c0,.49.4.89.89.89h0"/><path class="cls-1" d="M151.77,19.54h-26.8c-.82,0-1.49.67-1.49,1.49v46.67c0,.82.67,1.49,1.49,1.49h26.8c.82,0,1.49-.67,1.49-1.49V21.02c0-.82-.67-1.49-1.49-1.49ZM144.34,59.95c0,.17-.13.3-.3.3h-11.32c-.17,0-.3-.13-.3-.3v-31.19c0-.17.13-.3.3-.3h11.32c.17,0,.3.13.3.3v31.19Z"/><path class="cls-1" d="M50.52,68.29v-19.16c0-.17.13-.3.3-.3h11.32c.17,0,.3.13.3.3h0v19.16c0,.49.4.89.89.89h7.15c.49,0,.89-.4.89-.89V20.43c0-.49-.4-.89-.89-.89h-7.15c-.49,0-.89.4-.89.89h0v19.92c0,.17-.13.3-.3.3h-11.31c-.17,0-.3-.13-.3-.3v-19.91c0-.49-.4-.89-.89-.89h-7.15c-.49,0-.89.4-.89.89h0v47.86c0,.49.4.89.89.89h7.15c.49,0,.89-.4.89-.89"/><path class="cls-1" d="M118.12,69.19c.49,0,.89-.4.89-.89h0V20.43c0-.49-.4-.89-.89-.89h-7.15c-.49,0-.89.4-.89.89v32.42s-.01.03-.03.03,1.11-.01,1.88-.04l-12.31-32.29c-.23-.61-.81-1.01-1.46-1.01h-8.03c-.49,0-.89.4-.89.89h0v47.86c0,.49.4.89.89.89h7.14c.49,0,.89-.4.89-.89v-32.38s.02-.06.05-.07c.01,0-1.14,0-1.92.01l12.33,32.33c.23.61.81,1.01,1.46,1.01h8.03Z"/><path class="cls-1" d="M84.77,68.29V20.43c0-.49-.4-.89-.89-.89h-7.15c-.49,0-.89.4-.89.89v47.86c0,.49.4.89.89.89h7.14c.49,0,.89-.4.89-.89"/><path class="cls-1" d="M8.23,69.19h27.4c.82,0,1.49-.67,1.49-1.49h0v-25.57c0-.82-.67-1.49-1.49-1.49h-19.06c-.17,0-.3-.13-.3-.3v-11.56c0-.17.13-.3.3-.3h19.65c.49,0,.89-.4.89-.89h0v-7.15c0-.49-.4-.89-.89-.89H8.83c-.82,0-1.49.67-1.49,1.49h0v26.9c0,.49.4.89.89.89h19.66c.17,0,.3.13.3.3v10.83c0,.17-.13.3-.3.3H8.23c-.49,0-.89.4-.89.89v7.15c0,.49.4.89.89.89"/><path class="cls-1" d="M155.34,74.63h-13.03c-.4,0-.72.32-.72.72v22.7c0,.4.32.72.72.72h13.03c.4,0,.72-.32.72-.72v-22.7c0-.4-.32-.72-.72-.72ZM151.72,94.28c0,.08-.06.15-.15.15h-5.5c-.08,0-.15-.06-.15-.15v-15.16c0-.08.06-.14.15-.14h5.5c.08,0,.15.06.15.14v15.16Z"/><path class="cls-1" d="M158.24,75.31v22.99c0,.24.2.43.43.43h3.48c.24,0,.43-.19.43-.43h0v-19.22c0-.08.06-.14.15-.14h5.5c.08,0,.14.06.14.14v6.68c0,.08-.06.14-.15.14h-3.34c-.21,0-.38.17-.38.38,0,.04,0,.08.02.11l3.75,12.03c.06.18.22.3.41.31h3.5c.21,0,.38-.17.38-.38,0-.04,0-.08-.02-.12l-2.83-8.71h2.26c.4,0,.72-.32.72-.72v-13.48c0-.4-.32-.72-.72-.72h-13.03c-.4,0-.72.32-.72.72"/><path class="cls-1" d="M203.52,77.19l-2.22-2.22c-.22-.22-.51-.34-.82-.34h-10.38c-.4,0-.72.32-.72.72v22.7c0,.4.32.72.72.72h8.93c.31,0,.6-.12.82-.34l3.67-3.67c.22-.22.34-.51.34-.82v-15.94c0-.31-.12-.6-.34-.82ZM199.51,91.89h0c0,.23-.09.45-.25.62l-1.66,1.66c-.16.16-.38.25-.61.25h-3.12c-.08,0-.14-.07-.14-.15v-15.16h0c0-.08.07-.15.14-.15h5.36c.16,0,.29.13.29.29v12.63Z"/><path class="cls-1" d="M178.8,74.63h-3.48c-.24,0-.43.2-.43.43v22.99c0,.4.32.72.72.72h11.15c.24,0,.43-.2.43-.43v-3.47c0-.24-.19-.43-.43-.43h-7.39c-.08,0-.15-.06-.15-.14h0v-19.22c0-.24-.19-.43-.43-.43"/><path class="cls-1" d="M135.07,89.76l-3.28-6.24c-.1-.19-.33-.26-.51-.16-.07.04-.12.09-.16.16l-3.28,6.24v-14.7c0-.24-.19-.43-.43-.43h-3.48c-.24,0-.43.2-.43.43v23.27c0,.24.19.43.43.43h3.43c.29,0,.56-.17.69-.44l3.41-7.26,3.41,7.26c.13.27.39.44.69.44h3.43c.24,0,.43-.2.43-.43v-23.27c0-.24-.19-.43-.43-.43h-3.48c-.24,0-.43.2-.43.43v14.7Z"/></g></svg>