<?xml version="1.0" encoding="UTF-8"?><svg id="_レイヤー_2" xmlns="http://www.w3.org/2000/svg" viewBox="0 0 133.86 89.27"><defs><style>.cls-1{fill:#000;stroke-width:0px;}</style></defs><g id="_レイヤー_1-2"><rect class="cls-1" x="0" y="82.05" width="133.86" height="7.22"/><rect class="cls-1" x="0" y="0" width="133.86" height="7.22"/><path class="cls-1" d="M122.3,19.43h-25.72c-.49,0-.89.4-.89.89h0v7.15c0,.49.4.89.89.89h14.07l-14.39,39.14c-.22.61.09,1.28.7,1.51.13.05.27.07.4.07h25.72c.49,0,.89-.4.89-.89h0v-7.15c0-.49-.4-.89-.89-.89h-14.07l14.39-39.14c.22-.61-.09-1.28-.7-1.51-.13-.05-.27-.07-.4-.07"/><path class="cls-1" d="M83.18,69.08h7.14c.49,0,.89-.4.89-.89h0V20.32c0-.49-.4-.89-.89-.89h-7.15c-.49,0-.89.4-.89.89h0v47.86c0,.49.4.89.89.89h0"/><path class="cls-1" d="M68.58,60.15l.3-.3c-.16,0-11.91.16-11.91,0V20.32c0-.49-.4-.89-.89-.89h-7.15c-.49,0-.89.4-.89.89h0v47.27c0,.82.67,1.49,1.49,1.49h26.8c.82,0,1.49-.67,1.49-1.49h0V20.32c0-.49-.4-.89-.89-.89h-7.15c-.49,0-.89.4-.89.89h0v39.53c0,.17-.13.3-.3.3"/><path class="cls-1" d="M42.08,19.43H11.37c-.82,0-1.49.67-1.49,1.49v46.67c0,.82.67,1.49,1.49,1.49h17.79c.18,0,.34.12.38.29l1.97,7.81c.18.69.8,1.18,1.52,1.18h7.03c.06,0,.13,0,.19-.02.42-.11.67-.53.57-.95l-2.05-8.12s0-.02,0-.04c0-.09.07-.16.16-.16h3.17c.82,0,1.49-.67,1.49-1.49V20.92h0c0-.82-.67-1.49-1.49-1.49ZM34.64,53.89c0,.17-.13.3-.3.3h-7.63c-.06,0-.13,0-.19.02-.42.11-.67.53-.57.95l1.21,4.79s0,.03,0,.04c0,.09-.07.16-.16.16h-7.89c-.17,0-.3-.13-.3-.3v-31.18c0-.17.13-.3.3-.3h15.23c.17,0,.3.13.3.3v25.23Z"/></g></svg>