<svg xmlns="http://www.w3.org/2000/svg" width="704.061" height="449.566" viewBox="0 0 704.061 449.566">
  <g id="main_lead" transform="translate(-284.655 -676.214)">
    <g id="main_lead-2" data-name="main_lead" transform="translate(0 -11.989)">
      <path id="合体_31" data-name="合体 31" d="M297.495,422.039a3.069,3.069,0,0,1-2.326,2.1l-.037.006a4.413,4.413,0,0,1-.663.047C294.2,422.477,296.438,422.717,297.495,422.039Zm1.824-.833a4.076,4.076,0,0,1,3.086.147c.059.416-.745.806-1.563.939a3.591,3.591,0,0,1-.563.048C299.51,422.339,298.919,422.036,299.319,421.206Zm-1.675-.776c.422-.055.907-.119,1.036-.285.045-.063-.075-.547-.013-.575.991-.458,3.492-.772,4.281-1.174-.333,2-4.112,1.3-5.482,2.492C296.55,420.566,297.032,420.509,297.644,420.431Zm7.816-.079c.317-1.438,2.283-1.6,3.638-2.235-.665.923-.629,1.495.656,1.635a1.986,1.986,0,0,1-1.3.591,8.415,8.415,0,0,1-1.316.089C306.573,420.432,305.988,420.4,305.46,420.351Zm7.965-1.687a6.113,6.113,0,0,1-1.985-.222c-.276.3-.567,1.147-.46,1.138-.32.029-.436-.234-.556-.5-.133-.29-.272-.579-.7-.479-.026-1.577,2.86-1.768,3.669-1.087-.7-1.842-1.758-1.233-3.245-.553a8.138,8.138,0,0,1-2.294.746c-.117-1.3,1.33-1.516,2.709-1.719a3.97,3.97,0,0,0,2.159-.687c.043-.05-.068-.555-.015-.575,2.106-.751,4.564-.826,6.736-1.515-.578,1.012-1.6,1.55-2.437.916.483,1.694-.58,2.182-.529,3.532,1.256-.335,1.184-1.706,1.783-2.552a1.928,1.928,0,0,1,1.242.1c.76.24,1.36.508,1.2-1.014a3.588,3.588,0,0,0,1.359-.194c.883-.228,1.768-.454,1.723.34.2,1-.552,1.261-.6.661-.9.379.262.7.042,1.724a4.582,4.582,0,0,1-3.054,1c-.754-.649-.262-.868-.044-1.722l-1.223.171c-.7.207-.329.625.014.574-.086.687-1.108.641-1.83.832.415.529,1.429.394,1.271,1.551-1.176-.083-1.151-1.486-3.1-.723-.009-.38-.018-.763-.028-1.147-1.077.29-1.373,1.182-1.171,2.469a.591.591,0,0,1-.191.039C313.4,419.768,313.71,418.836,313.425,418.665Zm7.32-2.749q.015.575.028,1.149L322,416.9c-.011-.384-.019-.768-.028-1.15Zm-6.182-.867.028,1.148,1.228-.171q-.015-.572-.029-1.148Zm8.564-2.345c.158-.545,2.241-2.248,2.442-.915a5.9,5.9,0,0,1,3.641-2.237c.613.506,1.238.993,1.88,1.468.855-.322.029-1.019-.642-1.064.009-1.045.547-.776,1.04-.5.473.265.9.535.789-.33.595-.068.492.637.642,1.065.9-.987,2.556-1.388,3.011-2.724.72-.006.544.973.653,1.637.542-.429,1.085-.848,1.229-.17.83-.3.474-1.509.557-2.384q1.539-.213,3.066-.427a2.88,2.88,0,0,0-.569,1.807c-1.29-.962-.6-1.057-1.84.257.2,1.33,2.726-.029,2.437-.914.922.121-.22.768.042,1.724-1.232-.027-1.912.382-1.809,1.4a2.77,2.77,0,0,0-1.753,0c-.572.154-.735.24-.118-.887-.41.055-.817.114-1.229.17-1.253.883,1.183.789-1.81,1.4-.376.077-.724.13-1.052.181a5.189,5.189,0,0,0-2.618.905c-.72.543-4.431,1.831-6.095,2.578C324.036,414.459,325.1,411.914,323.127,412.7Zm3.082.147c-.748.21-1.433.3-.6.66.305.137.994-.656,1.213-.745-.094.04.238.92.628.49a6.367,6.367,0,0,0-.03-1.148.5.5,0,0,0-.176-.032C326.745,412.074,326.32,412.82,326.21,412.851Zm-5.535.194c.925-1.22,1.455-.807,1.47-.311a.6.6,0,0,1-.492.643.762.762,0,0,1-.113.009A1.587,1.587,0,0,1,320.674,413.045Zm23.207-7.841c1.566-.243.759.323.643,1.063.232-.022.488-.067.743-.112.809-.144,1.62-.289,1.721.346.574-.736,3.552-2.421,2.4-2.642.7-1.842,2.352.08,3.076.148.462-.456,1.891-2.69,1.844-.257A11.7,11.7,0,0,0,356.1,401.2c2,.058,2.844-.787,4.279-1.17.757.649.265.868.044,1.722,1.319.087,1.151-.984,1.185-1.893a5.461,5.461,0,0,0,3.7.059c.849-.221.1-.889.587-1.233.315-.226.779-.1,1.223.033.83.245,1.594.5,1.2-1.525.625.21.5.878,1.255.978,1.2.162,1.943-.489,1.813-1.4.556.276,1.114.54,1.228-.171,1.786.074-.917,1.029-.572,1.809,1.625-.053,1.552-1.421,1.786-2.555a1.483,1.483,0,0,1,1.867.892,2.464,2.464,0,0,1,3.072-.426c.616-.648,1.21-1.309,1.8-1.98,1.052-.172,1.6.2,1.869.891.743-.192.668-1.579,1.185-1.893a2.762,2.762,0,0,1,1.345-.221,3.629,3.629,0,0,0,1.11-.121c.509-.185.6-.573,1.213-.745a2.345,2.345,0,0,1,.959.033c.713.124,1.326.265.869-.866,1.679,1.012,2.719,1.521,4.307-.022.358-.35.582,0,.6-.662.04-1.283.158-.671.535-.1.276.417.692.811,1.319.421.9-.377-.259-.7-.043-1.723a3.69,3.69,0,0,1,1.279.318c1.026.362,2.114.724,1.787-.745.758-.282.95.056,1.143.394.151.266.3.533.731.5.716-.193.49-1.12.57-1.809,1.5,1.036,3.837-.822,5.507-1.341a2.669,2.669,0,0,1,1.146-.007c.777.109,1.444.235,1.3-.909a3.471,3.471,0,0,1,1.272,1.551,1.784,1.784,0,0,1,2.45-.341c.771-.249.591-1.228-.029-1.149-.083-.779.806-.8,1.7-.817a3.638,3.638,0,0,0,1.361-.184c.148-.635,1.555-.919,2.439-.916,1.743,0,.493.837,2.487.806-1-1.14-.418-.923.657-.786a4.509,4.509,0,0,0,2.4-.214q.919-.976,1.8-1.983c1.9-.32,3.4-.212,4.32.552a1.83,1.83,0,0,0,1.187-1.892,36.272,36.272,0,0,0,4.964-1.162c2.689-.76,5.331-1.514,7.294-1.123.6-.1.459-.77.584-1.237,1.948.413,3.956-.272,6.144-.985a20.427,20.427,0,0,1,5.5-1.214c.015.574.029,1.149.044,1.724.715-.193.492-1.119.57-1.81,2.463-.159,4.118-.851,6.737-1.512a4.108,4.108,0,0,1,.467-.042,1.862,1.862,0,0,0,.759-.128c.55-.724.729-.528,1.065-.358a1.082,1.082,0,0,0,.779.1c.438-.094.688-.557,1.211-.745a7.684,7.684,0,0,1,2.154-.34,9.153,9.153,0,0,0,1.532-.174c1.39-.332,1.528-.547,3.664-1.087a4.01,4.01,0,0,1,.465-.041,1.824,1.824,0,0,0,.763-.13c.308-.406.5-.348,1-.292a5.374,5.374,0,0,0,.84.037c-.062,0-.019-.164.092-.329a.634.634,0,0,1,.51-.328c.143,0,.027.63.625.486.432-.1,1.122-.583,1.827-.828a2.1,2.1,0,0,1,.608-.084,2.021,2.021,0,0,0,.623-.088c.3-.115.7-.68.6-.659a4.092,4.092,0,0,1,1.531.076,3.972,3.972,0,0,0,1.551.072c1.185-.281,2.51-.716,3.669-1.089,1.46-.474,3.871-.868,6.736-1.516,1.409-.317,1.449-1.028,3.669-1.088a4.249,4.249,0,0,0,.442-.083c.328-.07.716-.152.784-.086.627.611,1.113.206,1.589-.2s.915-.783,1.479-.231c.4.387.365.273,2.457-.342.956-.282,6.6-2.5,7.977-1.111.219.218.012.726.628.489.9-.377-.258-.7-.042-1.724,1.822-.312,3.568-.521,5.3-.729,1.905-.229,3.794-.453,5.747-.808.993-.184,1.031-.632,1.83-.832a31.7,31.7,0,0,1,4.747-.677,34.741,34.741,0,0,0,4.458-.6c.937-.217,1.074-.7,1.827-.832a1.533,1.533,0,0,1,1.061.144,1.389,1.389,0,0,0,.792.176c.35-.029,1.137-.666,1.829-.832-.2.048.342.868.627.489.039-.049.857-1.092,1.214-.745.566.553.323.049,1.224-.171a36.951,36.951,0,0,1,5.31-.765,36.443,36.443,0,0,0,4.506-.6c.956-.212,1.063-.685,1.83-.832,1.237-.234,2.531-.379,3.833-.526,1.39-.158,2.79-.317,4.147-.585.989-.2,1.029-.625,1.827-.829-.2.052.349.865.629.488.566-.766.616-.534,1.132-.376a2.793,2.793,0,0,0,1.321.033c1.887-.314,3.652-1.514,6.737-1.511a2.636,2.636,0,0,1,.907.165,1.842,1.842,0,0,0,.951.149c-.014,0,.6-.311,1.426-.657,1.416-.594,3.462-1.29,4.082-.686.464.461.65.028,1.836-.256,6.219-1.483,16.551-2.542,23.934-3.334.148-.016.515-.1.945-.187a5.609,5.609,0,0,1,2.127-.242c.456.446.659.22,1.108-.047a2.973,2.973,0,0,1,1.959-.38c1.273.118,1.017.069,3.068-.427-.122.029.208.624.626.488.088-.027.1-.558.6-.659,2.776-.555,6.627-1.206,8.606-.626l2.454-.341,2.455-.343c-.081.688-1.106.643-1.828.832l-1.838.256a7.611,7.611,0,0,1-3.825,1.017,12.459,12.459,0,0,0-2.915.5,17.766,17.766,0,0,0-2.437.918c-.233.128-1.063,1.273-1.2,1.318a12.76,12.76,0,0,1-2.6.38,13.99,13.99,0,0,0-2.3.3c-1.055.28-1.316.784-2.443.917a5.981,5.981,0,0,1-1.486-.083,5.323,5.323,0,0,0-1.6-.065c-1.31.229-1.559.709-2.443.918a25.794,25.794,0,0,1-2.663.206c-1.961.113-4.291.283-4.7.819-.528.7-.722.538-1.083.382a1.407,1.407,0,0,0-.76-.125,3.013,3.013,0,0,0-1.2.552c-.752.491-1.438.97-1.872-.123-1.255.335-1.184,1.7-1.783,2.552-2.205-.241-2.11.109-4.3.6a81.992,81.992,0,0,1-9.39,1.3,84.206,84.206,0,0,0-9.633,1.347c-.958.216-1.059.68-1.827.833-1.157.229-2.282.353-3.413.478-1.094.121-2.194.242-3.34.464-.985.189-1.029.628-1.827.828a37.247,37.247,0,0,1-5.407.773,41.637,41.637,0,0,0-5.027.68c-.951.215-1.054.684-1.823.832-1.336.256-2.595.4-3.844.541-1.167.134-2.325.264-3.521.484-.985.184-1.039.678-1.826.832-1.1.216-2.271.35-3.448.485-1.11.127-2.227.256-3.3.456-.986.185-1.038.664-1.827.832-.932.193-1.869.292-2.806.393-.907.1-1.814.193-2.715.374-.989.2-1.033.623-1.829.832a73.046,73.046,0,0,1-8.169,1.5c-2.2.32-4.384.635-6.543,1.121-.366.084-2.445,1.6-3.057,1-.444-.434-.456-.227-1.227.172a1.776,1.776,0,0,1-.56.058c-.292.007-.592.014-.666.113-.354.464-.816.272-1.319.086-.565-.21-1.182-.41-1.751.341-.245.323-.57.576-2.454.343-.547-.068-.977-.589-1.859-.318-.688.205-.323.625.016.575-.093.445-.349.38-.6.317-.274-.071-.546-.142-.608.427a5.814,5.814,0,0,1-3.028.348c-1.335-.048-2.65-.1-3.107.508-.033.042.057.561.013.573a.789.789,0,0,1-.905-.172c-.12-.121-.2-.244-.337-.231a.951.951,0,0,0-.572.366,1.112,1.112,0,0,1-.643.381,3.257,3.257,0,0,1-1.436-.112,2.229,2.229,0,0,0-1.03-.123c-.437.073-1.078.635-1.831.833a5.331,5.331,0,0,1-1.086.125,4.273,4.273,0,0,0-1.366.216c-.652.262-.4,1.179-1.2,1.318a1.171,1.171,0,0,1-1.446-.04,3.54,3.54,0,0,0-.41-.276.922.922,0,0,0-.541.365.935.935,0,0,1-.672.381c-.471.022-.867.01-1.242,0a9.314,9.314,0,0,0-4.282.77c-1.016.38-1.27,1.265-2.455.342-.98-.761-.409.428-1.213.746a1.529,1.529,0,0,1-1.126-.02c-.562-.189-.939-.408-1.315.936-1.5-.038-2.191-.476-3.693-.062-1.835.5-1.943,2.07-4.886,1.831-.2-.014-2.8-1.348-2.439.917-1.888-.741-3.269-.05-4.8.664a9.68,9.68,0,0,1-3.165,1.022c-.021-.409-.422-.4-.824-.392a3.172,3.172,0,0,1-.419-.012c-.644-.668-.653-2.033-1.3-2.7-1.541.984.96,2.425.714,3.935a4.393,4.393,0,0,0-2.347-.132c-1.061.105-2.121.211-2.589-.333a4.738,4.738,0,0,0-1.189,1.894,1.116,1.116,0,0,0-1.277-.114c-.475.184-.867.353-1.205-.69-1.486.351-2.171,1.943-4.269,1.746-.287-.026-2.98-.255-4.28,1.173-1.382-.4-.976-1.241-3.082-.148-.452.234-.634.64-1.216.747a2.771,2.771,0,0,1-1.5-.094,2.135,2.135,0,0,0-.966-.141,2.45,2.45,0,0,0-1.065.472,1.807,1.807,0,0,1-1.377.446c-.136-.026.014-1.526-.64-1.061-.9.375.26.7.041,1.721-.225.294-.939.241-1.689.193-.816-.052-1.675-.1-1.99.321-.43.565-.6.387-1.1.264a3.489,3.489,0,0,0-1.976.163c-1.335.415-1.129,1.155-2.423,1.492a4.711,4.711,0,0,1-1.228.171c-.063-.049.006-1.158-.031-1.15a9.024,9.024,0,0,0-1.213.747c-.117.128-.476,1.18-.584,1.232a2.652,2.652,0,0,1-.791-.179,2.648,2.648,0,0,0-1.063-.136c-.5.09-1,.671-1.829.827a5.719,5.719,0,0,1-1.713.021,4.308,4.308,0,0,0-3.2.664c-.5-1.7,2.1-.994,1.16-3.042-.569.425-.514.952-1.2,1.319a4.116,4.116,0,0,1-1.555.3c-.859.063-1.732.13-2.112.787a.793.793,0,0,0-.847.721c-.057.377.1.72.263.51-.483.61-1.552.636-1.815,1.407-1.049-.229-.413-1.268.584-1.236-.39-.457-.762-.923-.028-1.147-.187-.626-.422-.417-.726-.2a.693.693,0,0,1-1.128-.122c-2.222.679,1.492,2.484-.543,2.956-2.5.524-.356-1.154-.669-2.211-1.238-.024-1.921.384-1.816,1.4-.809-.091-.986-.877-1.867-.889-1,.907-.889,2.686-1.755,3.7a4.7,4.7,0,0,0-4.339-1.123c.411.527,1.423.4,1.269,1.551a5.591,5.591,0,0,1-3.725-1.21c-1.525.275-1.873,1.341-3.069.428-.081.681.163,1,.644,1.061-.159.46-.432.376-.879.293a2.832,2.832,0,0,0-.965-.039,6.612,6.612,0,0,0-1.226.311c-.994.343-1.3.575-1.872-1.03-.8.315-.942,1.148-1.811,1.4.118.661,1.13.331,1.854.32-.381,1.5-1.582,1.249-2.766,1-1.3-.275-2.587-.556-2.714,1.5a2.585,2.585,0,0,1-1.884-1.471c-1.7.806.931,1.41-.557,2.383-.182-.342-.7-.318-1.209-.294-.606.029-1.211.057-1.272-.51-2.137.464.087,1.546-1.187,1.892-2.348.434-.237-.437-.657-1.636-.786.638-6.448,2-4.865,2.407-.164.564-.344.406-.637.266a.872.872,0,0,0-.592-.095,6.031,6.031,0,0,0-3.025,2.149C342.729,409,342.126,406.212,343.881,405.2Zm.3,1.579c-.672.109-1.314.617-.851,1.379q.929-.131,1.841-.257c.382-.8-.125-1.145-.723-1.145A1.686,1.686,0,0,0,344.185,406.783ZM398.6,392.311a.553.553,0,0,0-.227.114c.608,2.349,2.816.8,3.082.148-.095.229-.7.087-1.2-.074-.346-.112-.638-.234-.656-.242.018.021-.064.684-.6.658-.084,0-.07-.607-.363-.607Zm18.728-5.406c.011.384.019.765.029,1.148.407-.056.815-.112,1.227-.17-.011-.383-.019-.764-.03-1.147Zm3.4-1.435a2.318,2.318,0,0,0-1.528,2.329c.706.045.917-.483,1.215-.747.391-.348.751-.987,1.2-1.318a1.117,1.117,0,0,0-.718-.277A1.03,1.03,0,0,0,420.721,385.469Zm-5.867,1.2,1.229-.172c.546-.919-.308-1.239-1.034-1.121-.5.08-.934.365-.824.8.059,0,.117-.005.173-.005C414.7,386.178,414.94,386.249,414.854,386.673Zm9.209-1.282q.011.574.025,1.147c.409-.059.821-.117,1.229-.172-.01-.382-.019-.765-.029-1.147ZM303.934,408.463c-.8-.507-.895-.294-1.308-.03a2.5,2.5,0,0,1-1.148.373C301.15,407.728,304.475,406.315,303.934,408.463Zm4.254-2.32a42.58,42.58,0,0,1,4.268-1.748c.429,1.465-.519,1.6-1.376,1.727a1.8,1.8,0,0,0-1.036.339c-.407.445-.508.31-.778.2a1.427,1.427,0,0,0-1.065.053c-1.372.464-2.171,1.24-3.655,1.66C304.129,406.414,307.042,406.619,308.188,406.143Zm15.986-1.074c-.121.845-1.829.454-1.815,1.4C320.492,406.006,323.666,403.937,324.174,405.069Zm-10.5-1.418a1.9,1.9,0,0,0,1.7-.486,1.848,1.848,0,0,1,1.354-.516c.9,1.525-1.826,3.4.683,2.786-.1.469-.6.625-1.181.72-.148.023-.3.043-.455.063a7.521,7.521,0,0,0-.8.133C315.381,404.516,312.834,405.945,313.669,403.651Zm-32.6,1.659q-.925.131-1.841.257c.106-.582.774-.659,1.474-.741a4.916,4.916,0,0,0,.966-.176c1.9-.631,3.873-1.78,6.108-2-.241.937-1.921.759-1.168,2.467-.723.006-.549-.972-.658-1.637-.6.1-.458.768-.588,1.234a1.2,1.2,0,0,1-1.092-.124,1.194,1.194,0,0,0-.762-.194c-.537.332-1.085.658-1.2,1.322C281.811,405.675,281.685,405.222,281.073,405.31ZM326,404.24a2.251,2.251,0,0,0,1.167-.457,2.2,2.2,0,0,1,1.274-.461,1.381,1.381,0,0,0,1.27,1.551c-.1.671-.61.4-.612.085a11.591,11.591,0,0,1-1.949.709,1.656,1.656,0,0,1-.26.022C326.345,405.689,325.983,405.34,326,404.24Zm19.724.707c.926-1.221,1.458-.808,1.472-.311a.6.6,0,0,1-.492.643.66.66,0,0,1-.114.009A1.6,1.6,0,0,1,345.721,404.947Zm14.756-.9q.614-.086,1.225-.171c.011.383.022.764.03,1.147l-1.227.17C360.494,404.81,360.486,404.428,360.478,404.045ZM318.865,405c-.07,0,.2-.527.352-.975a1.389,1.389,0,0,1-1.265-1.552,1.846,1.846,0,0,0,1.349-.515,1.9,1.9,0,0,1,1.7-.486,3.526,3.526,0,0,1-1.8,1.977c.391.46.769.925.029,1.149-.22.279-.328.394-.364.4Zm12.069-.3c.2-1.008-.5-1.015-1.255-.977.138-.644,1.213-.56,1.2-1.32.7.014.357.53.013.575.6,1.6,4.917-.191,1.843-.257.634-1.227,5.063-1.69,4.325.552a6.9,6.9,0,0,0-3.063.713,8.255,8.255,0,0,1-1.975.637,6.345,6.345,0,0,1-1.012.077Zm-6.034-1.783c-.185-.527-.371-1.052-1.41-.637.029-1.663,2.59-1.361,2.38-3.213,1.53-.126.228,1.92.056,2.3-.411.99,2.921.525,2.458-.343,2.22,1.958-3.271.974-2.4,2.641-.043.011-.086.018-.125.025a1.258,1.258,0,0,1-.184.015C325.176,403.7,325.038,403.312,324.9,402.919Zm-26.061-1.236c-.039,1.094-2.019.681-1.8,1.979C295.372,403.379,297.27,401.292,298.838,401.684Zm-9.189,1.854c-.384-.381-.487-1.018-1.257-.975.709-1.125,1.935-1.249,3.033-1.353a3.513,3.513,0,0,0,1.85-.481c.516-.443,2.052-.406,2.439-.915.049-.063-.075-.547-.014-.574a3.165,3.165,0,0,1,1.119-.193c.68-.039,1.308-.068,1.327-.725.962.071-.515,1.085.637,1.064.96.4,1.091-.141,1.079-.663-.01-.464-.131-.911.12-.655.58.58,1.115.305,1.846-.257.176-.14,6.13-3.495,6.135-.855.751-.176.805-.861,1.2-1.323s1.012-.7,1.2-1.317a26.473,26.473,0,0,0,4.995-1.219c2.153-.721,3.636-1.332,5.422-.808.617-.65,1.214-1.31,1.8-1.98.84.653,2.929-.589,4.9-1.258a3.032,3.032,0,0,1,.876-.112,2.7,2.7,0,0,0,.967-.144c.873-.373,1.147-.96,1.238.4,1.03-1.639,4.049-1.731,6.723-2.09.235-.643,1.31-.387,1.83-.831.193-.165.414-1.139.585-1.234a2.252,2.252,0,0,1,1.006-.165,2.865,2.865,0,0,0,.833-.092c.4-.138,3.063-2.013,4.295-.6,1.756-2.39,7.331-1.8,9.138-4.155-.736-.93-2.412.067-3.685.513-1.057.372-2.508,1.333-3.651,1.663a9.613,9.613,0,0,1-1.876.271,12.134,12.134,0,0,0-1.805.241c-1.311.3-2.461.718-4.9,1.257-1.107.247-2.537,1.733-3.072.428-.591.1-.455.769-.581,1.234a2.579,2.579,0,0,0-2.6.28c-.737.439-1.327.856-2.326-.17-.611.649-1.212,1.309-1.795,1.978-2.549.14-6.594.479-8.593,1.2-.682.246-.336.594.015.575-.354,1.453-3.1.737-2.482-.8-.833.3-.475,1.507-.559,2.382a1.4,1.4,0,0,1-.932-.423c-.573-.456-1.019-.912-.912.68a2.221,2.221,0,0,0-1.237.444c-.739.448-1.316.869-1.229-.678-1.176.4-.43,2.294-2.416,2.065-1.567.243-.756-.323-.64-1.062-1.317-.086-1.151.983-1.184,1.892-.387-.81-1.333.154-1.227.171-.354-.06-1.229-.977-1.261-.975a3.346,3.346,0,0,0-1.326.486c-.782.417-1.553.832-2.353.026-.216-.222-.009-.73-.627-.489-.751.278-.655,1.465-1.187,1.891-.789.638-2.829.73-4.279,1.175,0-.6,1.382-.62,1.2-1.322-.2-.757-.906-.2-1.722.379-.9.639-1.939,1.3-2.575.219-1.076-.014-1.089.8-1.1,1.613-.014.857-.026,1.715-1.285,1.6.107-.482.606-.659.588-1.235-1.1-.821-2.322-.122-3.778.616a7.324,7.324,0,0,1-4.185,1.068c1.338-1.428-.2-1.174-1.686-.929-.274.044-.546.09-.8.124.315-1.184,1.306-1.183,2.152-1.157,1.069.033,1.906.1.846-2.141.811.091.992.877,1.869.893.77-.251.593-1.228-.03-1.15.246-.789.65-.589,1.085-.4a1.086,1.086,0,0,0,.761.139c.455-.152.131-2.2,1.211-.744.761-.072.794-1,1.2-1.318a1.13,1.13,0,0,1,.6-.075c.27.005.539.012.625-.1.536-.711,1.057-.564,3.056-1,.6-.134.407-.6.6-.661.448-.146.761.431.628.491.793-.346.973-1.05,1.814-1.408a5.9,5.9,0,0,1,1.619-.383,3.909,3.909,0,0,0,2.048-.7c.855-.637,1.566-.488,3.669-1.088,2.535-.724,4.832-2.244,7.309-3.323-.343-1.13-.863-.667-1.474-.19a2.269,2.269,0,0,1-.981.533,5.3,5.3,0,0,1-1.612-.014,2.176,2.176,0,0,0-2.073.528c-.724.538-1.236.341-3.052,1a27.278,27.278,0,0,1-7.967,1.685c-.716.193-.487,1.116-.566,1.808-.8-.507-.9-.294-1.309-.03a2.485,2.485,0,0,1-1.148.372,2.584,2.584,0,0,0-1.886-1.467,25.041,25.041,0,0,0-4.88,1.833c-.638.253-1.153.082-1.212.746a1.552,1.552,0,0,0,1.595.169,4.412,4.412,0,0,1,2.1-.11c-.2.046-.487,1.205-.586,1.235a.4.4,0,0,1-.529-.206c-.068-.139-.079-.286-.1-.283-2.106.473-2.075,1.036-3.7-.063-1.445.381-1.1,2.156-3.029,2.153-.172-.484-.414-.275-.8-.041a1.724,1.724,0,0,1-1.034.3,1.629,1.629,0,0,1,1.7-1.567,1.8,1.8,0,0,0,1.329-.585c.247-1.46-1.042-1.156-2.267-.865a5.491,5.491,0,0,1-1.443.229c-.119-.009-.1-.537-.628-.488-.868.078-1.74.409-1.858-.319-1.131,1.561-.557,1.282-2.036,1.336a20.363,20.363,0,0,0-2.792.326c-1.211.209-4.5,2.005-7.35,1.6a2,2,0,0,1-.4-.081.309.309,0,0,1-.048.022,9.7,9.7,0,0,1-1.557.29c-.131.018-.458.09-.852.172a6.2,6.2,0,0,1-2.213.256c-.576-.557-.325-.041-1.231.172a1.083,1.083,0,0,1-.873-.159c-.19-.122-.308-.258-.368-.244-.563.115-1.4.683-2.441.915-.284.063-1.26.086-2.421.14-1.971.091-4.474.266-5.023.873-.339.374-.6.37-1.326.368-.4,0-.954,0-1.742.06-.2.015-.771.154-1.464.31-1.344.307-3.13.683-3.444.374-.607-.593-.88-.372-1.18-.148s-.611.443-1.29-.086c-.409-.318-.969.016-1.362.351a2.852,2.852,0,0,0-.465.481.405.405,0,0,1-.51-.238c-.057-.129-.067-.257-.116-.251-.4.041-.813.119-1.227.2a10.17,10.17,0,0,1-1.844.231c-1.585,0-4.865.335-7.993.539-.986.062-1.051-.3-1.855-.32a11.077,11.077,0,0,0-2.652.364,9.045,9.045,0,0,1-2.256.32c-.1,0-.113-.535-.626-.485-.985.087-1.076-.237-1.857-.319.086-.682-.158-1-.643-1.064-.008-1.448.426-2.993-.186-4.113-.944-1.731,8.159-1.7,7.8-3.128-.049-.194-2,.1-3.965.386-2.046.3-4.113.6-4.09.362a2,2,0,0,0-1.63-2.438,13.478,13.478,0,0,0,.543-2.957c-.054-1.213-1.213-2.2-1.309-3.273-.113-1.259.513-1.531.554-2.381.065-1.286-.579-1.377-.668-2.213-.1-.932.622-1.074.567-1.81-.032-.434-.55-.911-.652-1.638a22.5,22.5,0,0,1-.3-2.717c-.109-.017-.21-.04-.312-.063a2.611,2.611,0,0,0-1.76.154c-1.074.543-.916,1.582-2.377,1.969-.063.46.2.651.692.646-.384.673-2.88.205-3.1.947-2.123-.194,1.222-1.164.459-2.009-2.808.455-2.245,2.264-2.87,3.6a2.124,2.124,0,0,0-1.952.285c-.441.285-.746.575-1.184.283-.484-1.988,2.22-.426,3.039-1.7.4-.733-.319-.606-1.009-.479a2.039,2.039,0,0,1-.941.061c-.046-.025.023-.38-.033-.379-.955.017-.891.535-1.222.606a.869.869,0,0,1-.57-.087,1,1,0,0,0-.717-.065,6.726,6.726,0,0,1-2.474.832c.414.268.816.543.067.76-.394.695,3.009.079,2.507-.454.891-.03.5.341-.207.707-.924.481-2.389.949-2.235.5l-1.885.341c-.543-.949,1.181-.989,1.124-1.743-.788.321-.958.795-1.815,1.1-1.79.634-4.2.229-5.612,1.4-.5.413-.61.191-1.883.341-.622.072-1.261.281-1.884.341.1-.009.047.127-.067.26-.134.162-.359.321-.526.23-.407-.216-.533-.628-1.322-.527,1.157-1.359,3.892-.993,4.953-1.67.514-.341,2.093-.458,2.474-.832.049-.048-.094-.355-.033-.379.9-.349,2.485-.148,2.48-.835.473-.021.382.153.284.328s-.213.38.4.316c.946.169,1.1-.156,1.09-.483s-.184-.655.1-.5c.615.33,1.155.1,1.886-.34.176-.11,6.179-2.884,6.272-1.137.765-.185.8-.645,1.188-.986s1.016-.557,1.186-.984c3.8-.686,5.981-1.655,7.939-2.1.009-.043.018-.086.028-.13-.145-.52-.958-.3-1.193-.725a1.456,1.456,0,0,1,0,.192,1.863,1.863,0,0,1-.989-.2c-.594-.247-1.056-.49-.9.543-1.212.038-2.6,1.655-2.54.075-1.193.374-.366,1.559-2.412,1.591-1.6.307-.787-.143-.691-.643-1.355.063-1.15.757-1.155,1.363-.423-.5-1.363.225-1.254.227a5.906,5.906,0,0,1-1.325-.528c-1.29.158-2.441,1.4-3.762.68-.228-.126-.033-.482-.659-.266-.763.253-.626,1.031-1.158,1.363-.79.5-2.881.746-4.356,1.174-.015-.4,1.4-.538,1.189-.986-.238-.5-.975-.024-1.821.446-.889.5-1.9.989-2.571.349-2.27.184.179,2.269-2.346,2.35.094-.328.6-.491.563-.872-2.118-.808-4.485,1.8-8.122,1.857,1.574-1.269-.926-.6-2.574-.3.646-1.843,5.049.022,2.971-2.464a2,2,0,0,1,.906.212,1.958,1.958,0,0,0,1.041.206c.783-.238.568-.869-.068-.759.223-.54.639-.454,1.086-.365a1.673,1.673,0,0,0,.8.024c.464-.145.063-1.471,1.22-.607.779-.118.783-.734,1.185-.984.218-.137,1.1-.075,1.255-.227.528-.522,1.068-.473,3.107-.95.613-.143.4-.433.589-.49.457-.139.8.214.662.266.8-.3.965-.786,1.816-1.1,1.4-.516,2.517-.347,3.73-1.059.858-.5,1.593-.469,3.732-1.061,2.579-.715,4.888-1.935,7.4-2.88-.584-1.075-1.459.266-2.51.455a8.693,8.693,0,0,1-1.741.14,3.211,3.211,0,0,0-2.026.542,21.418,21.418,0,0,1-3.1.947,42.676,42.676,0,0,1-8.125,1.856c-.729.194-.463.784-.523,1.25-1.308-.4-.8.181-2.511.455a2.643,2.643,0,0,0-1.984-.8,36.832,36.832,0,0,0-4.952,1.668c-.646.226-1.179.162-1.219.607a2.662,2.662,0,0,0,1.852-.091,6.9,6.9,0,0,1,1.946-.213c-.206.049-.462.844-.561.872-.345.1-.5-.009-.573-.115-.055-.078-.069-.155-.087-.15-2.146.509-2.1.88-3.8.3-1.472.385-1.056,1.528-3.04,1.707-.323-.515-.788.293-1.879.34.388-1.567,2.155-.872,3.036-1.706.3-1.426-2.56-.133-3.829-.076-.055,0-.085-.067-.149-.137a.517.517,0,0,0-.512-.128c-.889.132-1.772.432-1.917-.039-1.534,1.573.158.52-4.9,1.55-1.236.251-4.558,1.747-7.5,1.742a3.12,3.12,0,0,1-.409-.017,10.849,10.849,0,0,1-1.639.356,19.628,19.628,0,0,1-3.134.569c-.61-.316-.335,0-1.257.228a1.621,1.621,0,0,1-.985-.053c-.152-.057-.251-.113-.3-.1-.574.13-1.416.583-2.475.833-.781.185-6.745.645-7.61,1.363-.522.435-.876.247-3.136.57-.587.083-4.512,1.174-5.017.908a1.021,1.021,0,0,0-1.226.018,1.266,1.266,0,0,1-1.318.058,1.626,1.626,0,0,0-1.34.328,2.887,2.887,0,0,0-.509.392c-.34.071-.472-.028-.541-.123-.054-.077-.07-.15-.117-.143-1.024.163-2.123.478-3.139.569-1.627.144-4.985.672-8.19,1.1a3.5,3.5,0,0,1-1.111,0,3.3,3.3,0,0,0-.8-.036c-1.784.13-3.616.829-5.018.909h0c-.044,0-.076-.068-.143-.136a.539.539,0,0,0-.514-.128,3.551,3.551,0,0,1-1.2.006,4.353,4.353,0,0,0-.714-.045c.066-.46-.2-.65-.695-.645-.055-.959.34-2.022-.325-2.707-1.026-1.058,8.322-1.884,7.91-2.8a25.118,25.118,0,0,0-4.084.629,21.189,21.189,0,0,1-4.162.614c.129-1.377-1.376-1.43-1.753-1.462.165-.849.553-1.281.461-2.011-.094-.8-1.316-1.343-1.45-2.045-.157-.823.477-1.062.492-1.63.024-.857-.639-.858-.757-1.4-.134-.608.6-.768.524-1.25-.048-.285-.6-.554-.724-1.025a5.2,5.2,0,0,1-.267-3.031c-.191-.384-1.27-.032-1.321-.531.353-1.237-.79-2.276-.331-3.79.052-.172.587-.589.594-.493-.037-.681-.813-.666-.76-1.4.046-.622.424-.734.528-1.251.126-.642-.33-1.252-.166-1.9.018-.074.594-.163.595-.492a3.332,3.332,0,0,1,.458-2.008c.289-.558.121-.792.461-2.009a3.045,3.045,0,0,0,.429-2.389c-.169-.533-.677-.581-.726-1.022-.069-.622.476-.737.529-1.252a38.677,38.677,0,0,0-1-11.369c-.219-.833-1.4-1.243-.2-2.275.034-.028.612-.518.595-.492.175-.234.18-1.365.492-1.629.26-.22,2.011-.791,3.07-1.327.282-.14.976-.905,1.192-.985.538-.2,1.367-.109,1.878-.34.727-.331.076-.536.563-.871,1.184-.823,5.327-.617,4.92-2.047,2.443-.237,3-1.23,5.611-1.4,1.159,0,.718-1.116,1.154-1.363.361-.2.479-.061.545.083.037.083.058.167.1.181-.033-.045,1.862-.716,1.867-.72a12.961,12.961,0,0,1,3.067-1.325c.716-.233,2.339-1.173,2.508-.454,1.281-1.071.263-.968,2-1.854a9.276,9.276,0,0,1,3.047-.376,12.474,12.474,0,0,0,1.382-.041,3.56,3.56,0,0,0,1.15-1.364,8.132,8.132,0,0,0,3.052-.662,5.9,5.9,0,0,1,2.714-.646,1.32,1.32,0,0,1,1.157-.754,9.192,9.192,0,0,1,2.131-.609,3.37,3.37,0,0,0-.464-1.138c.779.073.952.707,1.8.719.741-.2.57-.989-.028-.925.236-.634.623-.476,1.039-.321a1.219,1.219,0,0,0,.734.114.211.211,0,0,0,.088-.052,1.278,1.278,0,0,0,.128-.271l.011,0c.141-.461.168-1.14.938-.272.733-.059.763-.8,1.15-1.06a1.276,1.276,0,0,1,.58-.059c.26,0,.519.009.6-.078.516-.572,1.016-.453,2.937-.807.58-.107.391-.481.573-.53a.52.52,0,0,1,.41.057,24.875,24.875,0,0,1,5.069-2.055,5.582,5.582,0,0,0-.41-1,26.184,26.184,0,0,1-5.136.688c-.688.156-.468.9-.543,1.454-1.2-.633-.754.131-2.363.276a2.457,2.457,0,0,0-1.812-1.181,27.212,27.212,0,0,0-4.691,1.475c-.613.2-1.107.065-1.165.6a1.773,1.773,0,0,0,1.568.129,5.02,5.02,0,0,1,1.985-.081c-.2.038-.469.969-.562.993a.405.405,0,0,1-.515-.174c-.06-.11-.071-.222-.088-.219-2.024.38-1.994.834-3.551-.05-1.389.306-1.054,1.733-2.912,1.733-.167-.4-.4-.216-.79-.027a1.875,1.875,0,0,1-.977.233c.432-1.852,2.048-.82,2.907-1.733.238-1.17-.994-.931-2.168-.7a6.437,6.437,0,0,1-1.4.185c-.115-.006-.094-.432-.6-.393-.17.013-.338.035-.5.055-.643.081-1.193.156-1.283-.31-1,1.156-.613,1.056-1.655,1.067a21.706,21.706,0,0,0-2.984.268c-1.164.169-4.328,1.615-7.064,1.288a2.6,2.6,0,0,1-.381-.064,8.012,8.012,0,0,1-1.543.25,14.05,14.05,0,0,1-2.947.346c-.554-.449-.311-.036-1.183.138a1.21,1.21,0,0,1-.856-.14c-.173-.1-.282-.2-.337-.186-.541.094-1.346.55-2.345.737-.243.044-1.011.065-1.962.1-1.935.069-4.631.2-5.193.716-.325.3-.573.3-1.273.3-.389,0-.917,0-1.676.049-.207.013-.86.147-1.618.29-1.26.236-2.812.5-3.1.26-.584-.477-.847-.3-1.135-.117s-.588.354-1.239-.071c-.4-.262-.958.027-1.337.3a2.493,2.493,0,0,0-.419.367c-.3.046-.421-.066-.485-.183s-.069-.217-.117-.211c-.962.083-2,.345-2.951.344-1.522,0-4.676.268-7.681.433-.948.049-1.012-.238-1.782-.257a12.4,12.4,0,0,0-2.513.284,10.535,10.535,0,0,1-2.205.266c-.094,0-.11-.431-.6-.391-.946.069-1.035-.191-1.785-.257.083-.55-.151-.807-.617-.856-.008-1.165.409-2.408-.18-3.308-.907-1.392,7.843-1.369,7.5-2.516a17.4,17.4,0,0,0-3.775.306c-1.977.243-3.989.49-3.965.294a1.69,1.69,0,0,0-1.567-1.959,9.33,9.33,0,0,0,.523-2.38c-.052-.977-1.167-1.768-1.258-2.633-.11-1.013.492-1.231.533-1.916.062-1.033-.557-1.106-.643-1.779-.1-.749.6-.863.546-1.454-.032-.349-.53-.733-.626-1.318a8.127,8.127,0,0,1-.111-3.694c-.16-.485-1.183-.176-1.207-.785.282-1.061-.183-2.084-.264-3.25l-.007-.12a3.918,3.918,0,0,1,.135-1.249c.056-.2.574-.649.576-.532,0-.829-.726-.895-.644-1.778.071-.747.429-.842.549-1.454.148-.76-.25-1.549-.068-2.309.021-.087.561-.131.576-.529a4.808,4.808,0,0,1,.52-2.379,20.176,20.176,0,0,0,.52-2.378,4.416,4.416,0,0,0,.51-2.841c-.133-.662-.6-.778-.631-1.315-.037-.76.478-.84.549-1.454a61.082,61.082,0,0,0-.408-13.856c-.166-1.03-1.247-1.655-.081-2.772.033-.031.594-.559.577-.53.174-.265.23-1.63.534-1.915.253-.238,1.911-.738,2.922-1.269.268-.14.949-.989,1.155-1.061a2.617,2.617,0,0,1,.844-.088,2.329,2.329,0,0,0,.923-.118c.692-.32.094-.639.563-.993,1.143-.864,4.993-.161,4.679-1.936a6.5,6.5,0,0,0,2.5-.543,6.429,6.429,0,0,1,2.8-.539c1.08.123.719-1.272,1.138-1.522.548-.326.486.331.59.39-.032-.057,1.769-.661,1.773-.665A9.937,9.937,0,0,1,88.39,240c.679-.2,2.235-1.163,2.36-.274,1.242-1.156.288-1.142,1.946-2.026a6.666,6.666,0,0,1,2.856-.12,9.083,9.083,0,0,0,1.291.1,3.809,3.809,0,0,0,1.135-1.523,6.059,6.059,0,0,0,2.989-.508c1.15-.421,2.136-.83,2.909-.179.715.038.266-.768.563-.993.673-.509,2.889-.558,3.524-.876.93-.46,1.532-.932,1.73-1.589,7.112-1.408,5.163-2.659,11.651-4.473-.446-2.5-2.454-4.89-1.8-7.637-.483.176-.96.365-.922.613-2.193-.658,1.256-.9,1.155-1.552l.083.025c.014-.029.027-.059.041-.087a57.476,57.476,0,0,1,5.7-1.578c.089-1-1.049-.81-2.136-.626a5.775,5.775,0,0,1-1.368.133c-.11-.014-.078-.459-.578-.441-.167.006-.335.022-.5.035-.627.057-1.165.109-1.241-.384-.936,1.084-.678,1.091-1.442,1.058l-.284-.01a19.984,19.984,0,0,0-2.848.151c-1.143.125-4.277,1.5-6.943,1.04a2.028,2.028,0,0,1-.37-.087,6.83,6.83,0,0,1-1.516.2,12.826,12.826,0,0,1-2.891.23c-.528-.5-.3-.049-1.16.092a1.131,1.131,0,0,1-.828-.18c-.169-.109-.274-.224-.329-.215-.532.074-1.331.518-2.313.671-.25.038-1.062.021-2.053.015-1.883-.013-4.413.013-4.964.523-.331.3-.576.287-1.277.253-.378-.019-.888-.042-1.615-.022-.2,0-.814.111-1.534.223-1.249.194-2.818.407-3.093.143-.557-.529-.818-.353-1.106-.175s-.584.348-1.209-.129c-.388-.3-.946-.011-1.323.263a2.4,2.4,0,0,0-.413.363.4.4,0,0,1-.468-.211c-.055-.116-.06-.235-.108-.231-.379.017-.77.065-1.164.113a10.793,10.793,0,0,1-1.732.116c-1.487-.071-4.577.072-7.521.111-.927.011-.981-.3-1.734-.35a11.308,11.308,0,0,0-2.476.188,9.309,9.309,0,0,1-2.151.179c-.093-.005-.1-.457-.579-.437-.927.03-1.006-.246-1.736-.351.1-.573-.125-.857-.579-.929.026-1.227.469-2.516-.08-3.492-.846-1.506,7.7-1.088,7.4-2.311a15.829,15.829,0,0,0-3.685.152c-1.944.168-3.927.339-3.9.134a1.776,1.776,0,0,0-1.476-2.136,10.261,10.261,0,0,0,.579-2.481c-.022-1.029-1.088-1.914-1.153-2.828-.077-1.071.518-1.274.576-1.992.09-1.087-.513-1.192-.576-1.9-.073-.794.608-.884.575-1.508-.021-.369-.5-.795-.575-1.414a9.241,9.241,0,0,1,0-3.9c-.143-.519-1.151-.239-1.157-.882.3-1.094-.11-2.179-.162-3.394l-.005-.2a4.394,4.394,0,0,1,.167-1.273c.061-.211.581-.655.58-.531.021-.875-.686-.976-.579-1.9.091-.783.445-.865.579-1.507.167-.795-.2-1.643,0-2.434.023-.09.552-.113.58-.532a5.306,5.306,0,0,1,.576-2.48,22.472,22.472,0,0,0,.578-2.48,4.91,4.91,0,0,0,.581-2.969c-.113-.7-.569-.844-.58-1.414-.014-.8.492-.861.58-1.506a69.458,69.458,0,0,0,0-14.607c-.133-1.093-1.172-1.8,0-2.923.033-.031.6-.562.579-.532.178-.271.273-1.707.577-1.993.253-.239,1.889-.689,2.893-1.2.267-.136.958-1,1.16-1.065a2.332,2.332,0,0,1,.827-.056,2.122,2.122,0,0,0,.905-.083c.687-.306.111-.669.58-1.019,1.141-.859,4.885.052,4.629-1.831a5.908,5.908,0,0,0,2.458-.459,5.846,5.846,0,0,1,2.748-.442c1.053.179.741-1.307,1.157-1.552.545-.319.464.369.566.437a17.688,17.688,0,0,1,1.751-.621,9.246,9.246,0,0,1,2.889-1.2c.67-.184,2.218-1.124,2.315-.182,1.247-1.162.315-1.191,1.961-2.045a6.039,6.039,0,0,1,2.8,0,8.448,8.448,0,0,0,1.258.163,3.905,3.905,0,0,0,1.154-1.552,5.528,5.528,0,0,0,2.946-.406l.086-.031a.3.3,0,0,1-.065-.193c.519-1.426-.654-2.725.009-4.468.076-.2.715-.649.714-.536.028-.8-.841-.837-.709-1.7.113-.727.548-.832.715-1.429.206-.743-.243-1.493,0-2.236.028-.085.679-.148.713-.535a4.144,4.144,0,0,1,.714-2.324,17.312,17.312,0,0,0,.715-2.322c.2-.568,1.031-1.314.719-2.771-.136-.636-.7-.729-.71-1.249-.015-.734.607-.833.716-1.431a47.605,47.605,0,0,0,.026-13.4c-.161-.991-1.438-1.555.005-2.681.041-.032.735-.564.714-.537.22-.261.338-1.587.714-1.875.313-.241,2.325-.787,3.561-1.341.329-.147,1.179-.994,1.429-1.072a3.879,3.879,0,0,1,1.016-.118,3.49,3.49,0,0,0,1.116-.151c.844-.336.138-.622.715-.981,1.406-.881,6.011-.352,5.7-2.057a9.809,9.809,0,0,0,3.024-.622,9.7,9.7,0,0,1,3.382-.63c1.3.078.913-1.259,1.426-1.518.672-.337.572.3.7.355-.039-.054,2.152-.71,2.156-.712a14.469,14.469,0,0,1,3.558-1.34c.824-.224,2.73-1.212,2.848-.356,1.537-1.168.39-1.119,2.416-2.038a9.933,9.933,0,0,1,3.437-.226,13.364,13.364,0,0,0,1.55.047,4.294,4.294,0,0,0,1.423-1.518,9.141,9.141,0,0,0,3.613-.609c1.4-.452,2.6-.885,3.5-.285.86.011.35-.754.715-.983.827-.518,3.494-.652,4.272-.985,1.135-.481,1.876-.96,2.139-1.606a20.525,20.525,0,0,1,8.355-.091,16.983,16.983,0,0,0,8.453-.255c-.5-2.7-3.352-5.171-1.41-8.31a118.646,118.646,0,0,1,14.243-3.128c1.137-.2,1.226-.545,2.135-.715,2.046-.38,4.4-.459,6.412-.8a21.614,21.614,0,0,0,2.133-.715,13.361,13.361,0,0,1,1.791-.227,13.264,13.264,0,0,0,1.771-.22c.375-.08,2.9-1.32,3.561-.894.034.022-.033.449,0,.445.538-.05.783-.54.714-.535a24.93,24.93,0,0,0,6.407-.806c1.364-.31,3.445-1.344,6.409-1.25.285.007.908.332.71.358,1.278-.157,1.5-.675,2.847-.8a2.979,2.979,0,0,1,1.13.082,2.285,2.285,0,0,0,1.006.095c1.167-.153,1.2-.514,2.136-.714a41.488,41.488,0,0,1,5-.654c1.44-.128,2.872-.257,4.254-.508,1.506-.277,2.373-.529,4.98-1.074,1.047-.216,1.3-.6,2.137-.714a7.213,7.213,0,0,1,1.716.008,7.025,7.025,0,0,0,1.842-.01c2.075-.327,4.181-1.256,6.41-1.25a1.964,1.964,0,0,0-.715,1.429c1.388-.135,1.265-.738,2.139-1.164.575-.277,1.466-.058,1.424-.624.494.251,1.854-.1,3.279-.46,1.536-.386,3.149-.78,3.839-.434a2.6,2.6,0,0,1,0,.432c.445-.125,3.488-.808,3.566-.879.4-.355,1.6-.978,2.133.179.724-.318.557-.807,1.426-1.074,3.007-.916,8.581-.91,9.968-.358,1.052-.134.09-.563,0-.445.718-.911,2.415-.967,4.273-1.43-.525,1.077-2.716,1.318-2.851,2.591a1.978,1.978,0,0,0,1.779-.671,1.983,1.983,0,0,1,1.782-.67c.607.005.671-.258.714-.535,2.958-.311.142.275,0,.894,1.061,1.072,2.969-1.147,3.559-1.788a6.719,6.719,0,0,0,3.562,0c-.948,1.21-.462.833.207.438.738-.435,1.7-.89,1.216.723,1.448-.462.2-2.282,2.848-2.144-.062.642-.121,1.281.709,1.251,2-.06-1.783-1.443.716-1.876,2.639-.278,1.786.424,1.42,1.607,4.362-.985,8.278-.917,13.531-2.146,2.817-.491-.8-1.451,2.135-1.607,0,.446,0,.9,0,1.34a3.038,3.038,0,0,0,1.107-.291c.524-.229.848-.438,1.031.022a10.252,10.252,0,0,1,2.133-.262c1.327-.08,2.656-.158,2.85-.809.127.032,3.515.483,3.559.445.77-.7,1.4-.571,1.42.269a4.313,4.313,0,0,0,1.431-1.519l3.556-.447c1.254-.265,1.627-.972,1.427-1.965,2.455.015.473,1.284,0,2.232a33.633,33.633,0,0,0,5.356-.918,31.923,31.923,0,0,1,6.032-.959c.839-.176.6-.888.718-1.429a2.956,2.956,0,0,1,1.419,1.163c1.032-.629,1.743-.7,2.135.176.914-.733,3.364-.695,4.277-1.428.766-.445,1.068-.089,1.222.26.1.229.136.457.2.454.2-.014,1.583-.547,2.137-.714a3.808,3.808,0,0,1,.6-.061,2.409,2.409,0,0,0,.821-.118c.475-.426.831-.415,1.706-.4.449.005,1.039.011,1.852-.043-.1.006-.035-.147.1-.3.163-.184.427-.363.614-.24,1.033.68,2.091.261,3.472-.19a10.989,10.989,0,0,1,2.937-.615c.085,0,.308-.045.557-.09a2.99,2.99,0,0,1,.87-.089c.58.374,1.035-.047,3.56-.446.161-.027.665-.055,1.3-.1,1.376-.088,3.353-.234,3.686-.53.647-.576.852-.441,1.231-.324a1.8,1.8,0,0,0,.9.057c.6-.1.7-.55,1.429-.625a9.479,9.479,0,0,1,1.792.048,10.359,10.359,0,0,0,3.9-.316c.57-.158.709-.54,1.426-.625a2.644,2.644,0,0,1,1.1.092,1.914,1.914,0,0,0,1.031.086c.483-.113.706-.983.711-.982.984-.139.2.679.709.8a3.3,3.3,0,0,0,.775-.363c.483-.248,1.06-.5,1.363-.352a2,2,0,0,0,1.814-.241c.6-.284,1.182-.566,1.742-.205a.927.927,0,0,0,1.253,0,2.072,2.072,0,0,1,.887-.27,4.642,4.642,0,0,1,1.3.064,4.234,4.234,0,0,0,1.544.024c3.17-.5,6.016-1.31,9.264-2.056-.809,1.4,1.735.231,4.27-.09a8.5,8.5,0,0,1,1.422-.179c.036.023-.04.448,0,.447a8.89,8.89,0,0,0,1.491-.282c1.1-.272,2.1-.536,2.066.282,2.278-.373-1.865-.659,1.426-1.073a8.732,8.732,0,0,1,1.426-.179c.584.375.345.1,2.844-.358,1.178-.213,7.411-4.584,8.586-4.808,1.057-.2,1.3-.616,2.136-.715a3.062,3.062,0,0,1,1.286.072,3.088,3.088,0,0,0,.849.107,16.231,16.231,0,0,0,2.294-.276,17.9,17.9,0,0,1,1.975-.26,6.505,6.505,0,0,1,1.258.064,5.713,5.713,0,0,0,1.594.025c1.541-.184,5.163-1.528,8.538-1.519-.131.378-.709.533-.709.983,2.826-.417,10.382-2.469,14.954-2.326.337.012.837.347.706.358a2.571,2.571,0,0,0,1.161-.366,2.066,2.066,0,0,1,.978-.349,5.083,5.083,0,0,1,1.273.068,4.507,4.507,0,0,0,1.576.022c1.274-.194,1.5-.635,2.848-.8a5.42,5.42,0,0,1,1.663.019,4.121,4.121,0,0,0,1.184.069c1.171-.122,1.206-.578,2.133-.715a2.72,2.72,0,0,1,1.3.066,2.8,2.8,0,0,0,.842.112c-.106,0-.035-.133.117-.268a.98.98,0,0,1,.6-.267c.039,0,.073.086.156.175a.639.639,0,0,0,.557.184c1.852-.14,3.787-.43,5.694-.718,1.963-.3,3.9-.589,5.693-.714a3.506,3.506,0,0,1,1.141.094,2.614,2.614,0,0,0,.994.085c1.374-.149,4.91-1.993,4.984-.178,1.306-.105,2.123-1.086,3.558-1.34a4.2,4.2,0,0,0,1.424.267c1.254-.092,2.873-.324,4.46-.553,1.493-.216,2.965-.429,4.083-.519a3.32,3.32,0,0,1,1.173.087,2.674,2.674,0,0,0,.963.09c1.277-.109,2.6-.3,3.913-.492,1.339-.193,2.666-.389,3.919-.491,1.536-.129,3.372-.019,6.408-.357-.178.019.344.688.714.356.743-.679,1.571-.575,3.556-.446.58.036.714.318,1.425.266,1.083-.078,2.521-.776,3.557-.893,1.159-.132,39.117-4.714,40.044-4.726.169,0,.782-.131,1.5-.269a7.719,7.719,0,0,1,2.774-.268c1.086.7.5-.113,2.852-.356-.13.014.294.4.7.359a97.453,97.453,0,0,1,11.395-.538c.3.009.886.337.707.355,1.255-.138,1.036-.82,2.135-.266a6.708,6.708,0,0,0,2.17-.22c.594-.111,1.14-.217,1.391-.228,1.591-.074,4.6-.341,7.83-.535a3.926,3.926,0,0,1,1.2.084,3.3,3.3,0,0,0,.94.092,15.5,15.5,0,0,0,1.924-.253,16.988,16.988,0,0,1,2.346-.282c1.594-.05,3.982-.236,7.121-.447a34.42,34.42,0,0,1,5.427.182,31.561,31.561,0,0,0,6.673.084c-.635,1.946-5.544,7.2-5.035,9.722-3.182.636-5.449,1.735-8.547,2.414a2.256,2.256,0,0,0-1.426,2.412,2.878,2.878,0,0,0-2.387.71,2.669,2.669,0,0,1-1.887.72c-.728.679-.7,1.735-1.429,2.412a9.191,9.191,0,0,1-3.388.22,9.223,9.223,0,0,0-3.02.137c.121,1.4,2.814.86,4.982.715a2.228,2.228,0,0,1-1.427,1.073,1.872,1.872,0,0,1-1.031-.1,3.787,3.787,0,0,0-.394-.167c-1.351.265-1.9,1.051-3.558.895-.429,1.031.57.853,1.613.673a6.775,6.775,0,0,1,1.235-.14c.176.009.061.418.706.36.713-.067,1.426-.2,2.138-.269-.124,1.132,1.092,1.261,2.132,1.518,1.381-1.272,2.453-1.119,3.824-.993a8.507,8.507,0,0,0,4.009-.438c-.251.62-1.255.86-1.428,1.52,2.157-.409,2.547-1.7,5.7-1.607.393.94-1.358.806-1.426,1.517.737.528,1.847.318,2.88.115a8.858,8.858,0,0,1,1.393-.205c-.123,0,.393.347.708.357.8.025,2.608,0,3.56,0-.241,0,.3-.535.711-.535-.1,0,.417.339.712.357,1.053.066,2.486-.009,4.043-.085,1.462-.07,3.033-.141,4.5-.094a2.79,2.79,0,0,1,.657.132,2.493,2.493,0,0,0,1.472.046c1.088-.305,1.011-.577,2.139-.27a6.008,6.008,0,0,0,1.674-.028,4.679,4.679,0,0,1,1.886.031c.063.028-.075.442,0,.445a7.009,7.009,0,0,0,1.26-.193,4.1,4.1,0,0,1,1.588-.165c.52.263.52.24,1.426.268.665.021,1.779.021,2.842.089.3.019.852.348.713.358a3.161,3.161,0,0,0,1.27-.292c.392-.2.473-.369,1.578-.067a6.088,6.088,0,0,0,1.67-.028,4.666,4.666,0,0,1,1.889.029,11.655,11.655,0,0,0,2.844.535c.837.076,2.034.107,3.33.142,1.5.041,3.131.086,4.5.212.269.025.659.021,1.088.018a11.964,11.964,0,0,1,1.757.072c.354.053,1.156.695,1.422.714a5.184,5.184,0,0,0,1.363-.184,4.446,4.446,0,0,1,1.485-.172c.329.049-.059.429.709.356.688-.063.554.466.713.8-.69-.016-9.161-.049-17.743-.069-9.483-.022-19.1-.032-18.518.006.354.023.435.758.711.8a3.018,3.018,0,0,0,1.054-.137,2.863,2.863,0,0,1,1.08-.132c.31.063.455.763.71.806a2.051,2.051,0,0,0,.694-.095,1.864,1.864,0,0,1,.729-.085c.633.147,1.592.949,2.134,1.071a6.489,6.489,0,0,0,1.732.093c.348-.012.713-.023,1.112,0,1.4,2.655.475,6.367-.725,9.022a6.181,6.181,0,0,1-2.442.553,3.848,3.848,0,0,0-1.831.43c-.577,1.622,1.057,1.584.707,3.038q-2.718.258-2.845-1.429c-2,1.054-3.566.722-5.313.409a10.85,10.85,0,0,0-4.656-.05c1.287.519,2.179,1.336,4.985.714a7.055,7.055,0,0,0,3.323,1.914l.056,0a2.31,2.31,0,0,1,1,.151,2.04,2.04,0,0,0,.8.156,8.809,8.809,0,0,0,1.611-.239,9.635,9.635,0,0,1,1.958-.258c1.335,0,3.334-.133,5.965-.271a19.972,19.972,0,0,1,4.587.448,17.94,17.94,0,0,0,5.581.37c-.471,2.407-.344,3.53.166,6.7-2.651.667-4.521,1.949-7.1,2.673a2.964,2.964,0,0,0-1.119,2.956,1.845,1.845,0,0,0-1.981.793,1.776,1.776,0,0,1-1.563.822c-.589.819-.534,2.141-1.121,2.959a5.213,5.213,0,0,1-2.837.139,5.211,5.211,0,0,0-2.532.049c.121,1.453,1.689,1.31,3.257,1.168.321-.03.641-.059.949-.075-.256.491-.491,1.13-1.164,1.285a1.148,1.148,0,0,1-.871-.169,3.39,3.39,0,0,0-.335-.224c-1.125.276-1.562,1.237-2.959.974-.327,1.274.508,1.094,1.378.909a3.7,3.7,0,0,1,1.032-.126c.148.017.064.524.6.478.6-.056,1.191-.19,1.788-.25-.068,1.41.956,1.619,1.838,1.984,1.12-1.533,2.023-1.3,3.175-1.088a4.83,4.83,0,0,0,3.357-.386c-.19.765-1.025,1.025-1.15,1.842,1.8-.424,2.084-2.024,4.732-1.78.361,1.191-1.114.953-1.148,1.84.636.691,1.561.472,2.422.26a4.983,4.983,0,0,1,1.164-.2c-.1,0,.343.449.606.476.67.061,2.191.108,2.992.141-.2-.006.233-.657.579-.641-.088,0,.36.441.609.475a22.507,22.507,0,0,0,3.281.059,33.8,33.8,0,0,1,3.887.059c.5.047.977.617,1.795.311.9-.339.83-.681,1.787-.25a3.4,3.4,0,0,0,1.389.031,2.761,2.761,0,0,1,1.6.111c.054.04-.048.551.014.558a3.923,3.923,0,0,0,1.054-.192c.556-.141,1.138-.286,1.327-.141.446.35.445.321,1.206.394.559.052,1.495.1,2.389.225.247.036.726.469.608.475a1.845,1.845,0,0,0,1.055-.312c.326-.233.386-.444,1.326-.021a3.375,3.375,0,0,0,1.388.032,2.751,2.751,0,0,1,1.6.112,7.451,7.451,0,0,0,2.4.784c1.523.28,4.434.362,6.589.759a22.887,22.887,0,0,1,2.393.227c.3.081.993.915,1.218.951a2.941,2.941,0,0,0,1.137-.177,2.507,2.507,0,0,1,1.242-.156c.279.076-.037.534.607.475.578-.053.479.608.626,1.033a7.268,7.268,0,0,0,1.779-.267,5.166,5.166,0,0,1,1.787-.232c.3.045.391.966.624,1.035a1.709,1.709,0,0,0,.881-.129,1.6,1.6,0,0,1,.9-.121c.262.09.408.972.622,1.033a1.171,1.171,0,0,0,.581-.088,1.044,1.044,0,0,1,.608-.078c.536.208,1.368,1.25,1.827,1.426a3.686,3.686,0,0,0,1.427.184,7.218,7.218,0,0,1,.964.042c1.264,3.377.6,7.978-.318,11.249a3.571,3.571,0,0,1-2.035.592,2.263,2.263,0,0,0-1.523.464c-.43,2,.94,2.023.694,3.826q-2.276.215-2.436-1.9c-1.646,1.235-2.968.759-4.445.3a6.279,6.279,0,0,0-3.912-.252c1.1.7,1.871,1.758,4.208,1.094a6.76,6.76,0,0,0,3.654,2.851c-.118.824-1.773.444-1.759,1.366-.4,1.97,2.434.372,1.856,2.542-4.837-.018-8.791-1-13.757-.881.266,2.2,3.6,1,4.829,2.128-.133.627-1.175.545-1.162,1.282.123.437.61.474.622,1.033.4,1.087,3.011-.262,2.433,1.9a3.292,3.292,0,0,0-2.39-.226c.767,4.253-1.469,6.152-1.553,9.74.341.59,1.038.589,1.768.589a4.443,4.443,0,0,1,1.233.113c.407.12.875.822,1.219.949a1.306,1.306,0,0,0,.571-.094c.267-.076.536-.152.619-.073.3.3,1.683,1.411,2.423,1.345,1.354-.122.268,1.141.068,2.792-.689.232-.881-.872-1.22-.951a4.9,4.9,0,0,0-1.674.07,5.17,5.17,0,0,1-2.5-.046c-.543-.2-.4-.876-1.218-.949a6.371,6.371,0,0,0-1.278.233c-.735.173-1.525.35-1.7.182-.622-.61-.65-.347-1.038-.052a2.114,2.114,0,0,1-1.338.385c.129,0-.373-.453-.612-.476a1.88,1.88,0,0,0-.606.082,2.035,2.035,0,0,1-.585.085,13.744,13.744,0,0,0-7.14,1c1.2,1.158,3.975.583,6.571.2-.227.339.331,1.391.041,1.676-.093.091-.344.084-.592.076s-.523-.016-.6.091c-.2.284-.293,1.512-.554,1.759-.586.554-2.318-.066-1.757,1.365a7.977,7.977,0,0,0-4.149,1.139c-.7.525,24.844.772,23.7,1.063a3.951,3.951,0,0,1-.408.037,1.941,1.941,0,0,0-.782.129c-.32.424-.464.331-.85.259a2.677,2.677,0,0,0-.931-.009c-.974.142-1,.661-1.774.808a2.685,2.685,0,0,1-1.488-.084,2.215,2.215,0,0,0-.9-.142c.194-.015-.283.6-.581.642a.579.579,0,0,1-.608-.476c-1.276.242-1.646,1.237-3.556,1.058-1-.1-1.284-.879-2.381.332-.8.882-.255.075-1.8-.31-1.265,1.349.338,1.55.083,3.352a7.433,7.433,0,0,0-3.3.613c-1.237.456-2.287.9-3.244.3-.416,1.309.53,1.116,1.479.923a5.425,5.425,0,0,1,.927-.139c-.494,1.1-4.2.9-4.734,1.783-.248.41.963.433,1.207.388-.15.258.968.23,2.795.031-.518.079-1.025.167-1.517.264-.054.01-.185.018-.342.029a2.269,2.269,0,0,0-.846.138c-.037.045-.834,1.062-1.175.725-.031-.03.009-.562-.015-.558-.684.062-1.4,1.1-2.974.414-.434,1.382,1.179,1.075,2.676.775a11.585,11.585,0,0,1,1.515-.24,5.758,5.758,0,0,1,1.039.14c1.044.186,2.43.374,3.127-.723.127.135,4.169,1.026,7.084,1.7-4.846.986-11.21,2.25-15.039,2.917.616.041.779.245,1.427.3a2.71,2.71,0,0,0,.866-.129,2.492,2.492,0,0,1,.92-.122,55.15,55.15,0,0,1,4.986,4.524c.247-.036.815-.568,1.251-.723-1.105-1.436-3.349-3.9-3.263-4.217,1.142-.635,5.765,4.865,6.188,4.916.2.023.364-.166.55-.356a.947.947,0,0,1,.626-.367c.339-.01.73.451.612.473,1.026-.192,1.283-.878,2.364-.89.017,0,.167.515.608.474a2.494,2.494,0,0,1,.595-.082c.185.043.747.472.61.473,1.033,0,1.26-.783,2.365-.889-.242.024.445.458.609.472a6.092,6.092,0,0,0,1.02,0,2.026,2.026,0,0,1,1.372.226c-.131.724-1.168.728-1.191.167a20.611,20.611,0,0,1-6.557.355,3.3,3.3,0,0,0-.759.069c-.534.09-.983.173-1.038-.377-1.435,1.646-1.568,1.593-3.221,1.673-.4.019-.892.047-1.512.108a6.721,6.721,0,0,1-1.786.249s.688-1.2.568-1.2c-.275-.006-.59.294-.932.6-.627.554-1.342,1.118-2.044-.181-.186.076-.372.148-.558.216a1.46,1.46,0,0,1-.062.631,2.351,2.351,0,0,0-.845-.319,36.065,36.065,0,0,1-9.451,1.318c-1.739.085-3.456.167-5.146.4-.972.131-1,.654-1.772.806a1.367,1.367,0,0,1-1.015-.138,1.208,1.208,0,0,0-.779-.17c-.573.067-1.264.994-2.371.889-1.274-.12-1.028.02-3.567.5-.987.188-1.991.2-2.975.415-1.2.265-1.432.5-2.935.9l.083-.013c-.078.668-1.072.626-1.771.809l-.191.027c-.661.337-1.39.613-1.7.306l-.006-.006a7.547,7.547,0,0,1-3.565.91,12.107,12.107,0,0,0-2.852.487c-.167.054-.564.178-1,.331a4.221,4.221,0,0,0,1.48,1.071c1.073-2.043,1.988-1.7,3.15-1.376a3.649,3.649,0,0,0,3.353-.419c-.167,1.031-1,1.359-1.1,2.462,1.791-.519,2.027-2.68,4.691-2.267.4,1.625-1.088,1.257-1.1,2.459.66.957,1.58.689,2.437.428a3.779,3.779,0,0,1,1.16-.236c-.1,0,.357.621.623.665.674.1,2.2.214,3,.284-.2-.015.213-.886.561-.85-.088-.008.375.608.625.663a16.488,16.488,0,0,0,3.231.184,25.445,25.445,0,0,1,3.962.2c.5.078,1,.867,1.808.475.895-.431.811-.9,1.785-.283a2.566,2.566,0,0,0,1.394.088c.646-.059,1.308-.12,1.607.2.055.056-.031.745.031.757a2.914,2.914,0,0,0,1.05-.227c.554-.176,1.133-.354,1.327-.15.458.489.455.449,1.221.571.563.088,1.5.178,2.4.379.25.057.743.66.625.663a1.463,1.463,0,0,0,1.048-.389c.32-.307.374-.59,1.329.013a2.542,2.542,0,0,0,1.392.087c.647-.059,1.309-.12,1.609.2a6.681,6.681,0,0,0,2.436,1.138c1.534.427,4.457.629,6.63,1.234a17.49,17.49,0,0,1,2.407.383c.3.118,1.024,1.272,1.25,1.327a2.195,2.195,0,0,0,1.134-.2,1.88,1.88,0,0,1,1.241-.172c.283.11-.021.722.624.661.579-.053.5.841.661,1.42a5.426,5.426,0,0,0,1.777-.305,3.809,3.809,0,0,1,1.785-.26c.3.07.421,1.32.658,1.422a1.266,1.266,0,0,0,.879-.147,1.214,1.214,0,0,1,.9-.136c.265.131.438,1.331.656,1.42a.878.878,0,0,0,.581-.1c.223-.088.448-.176.607-.088.544.3,1.41,1.737,1.876,1.99.773.423,1.447.213,2.319.365l.585,12.236c-.132,1.067-.293,2.085-.468,3.021a2.777,2.777,0,0,1-2.022.741,1.787,1.787,0,0,0-1.512.581c-.37,2.7,1.005,2.772.814,5.208q-2.275.22-2.5-2.652c-1.612,1.624-2.953.939-4.447.266a4.861,4.861,0,0,0-3.932-.464c1.121.986,1.931,2.441,4.254,1.613a8.16,8.16,0,0,0,3.752,3.98c-.093,1.112-1.764.545-1.721,1.8-.34,2.658,2.452.581,1.94,3.5-4.851-.175-8.846-1.636-13.821-1.622.335,2.983,3.642,1.465,4.908,3.035-.113.845-1.162.7-1.125,1.7.138.6.626.661.656,1.42.435,1.486,3.011-.261,2.5,2.656a2.6,2.6,0,0,0-2.4-.382c.9,5.79-1.282,8.294-1.255,13.156.569,1.278,1.975.595,3.03,1.046.412.174.9,1.14,1.253,1.323.1.056.336-.027.569-.109.266-.1.534-.189.618-.079.308.41,1.732,1.966,2.472,1.9,1.353-.125.3,1.555.154,3.786-.683.3-.91-1.21-1.253-1.327a3.629,3.629,0,0,0-1.677.043,3.921,3.921,0,0,1-2.509-.14c-.551-.284-.433-1.2-1.251-1.327a4.7,4.7,0,0,0-1.273.278c-.734.212-1.519.428-1.7.193-.642-.847-.661-.49-1.041-.1a1.677,1.677,0,0,1-1.329.48c.126,0-.388-.626-.629-.665a1.422,1.422,0,0,0-.6.093,1.466,1.466,0,0,1-.584.1c-1.711-.218-4.567-.526-7.129,1.131,1.239,1.608,4.005.915,6.6.477-.216.454.376,1.9.094,2.273-.091.12-.341.1-.59.085s-.526-.039-.6.1c-.194.378-.247,2.04-.5,2.366-.571.734-2.327-.16-1.719,1.8-1.546.135-3.037.323-4.125,1.416a4.628,4.628,0,0,1-2.347,1.135,2.647,2.647,0,0,1-.406.038c-.325.017-.723.041-.781.15-.31.564-.455.434-.845.324a2.015,2.015,0,0,0-.934-.041c-.971.163-.984.866-1.754,1.042a2.076,2.076,0,0,1-1.491-.158,1.783,1.783,0,0,0-.914-.224c.2-.014-.264.805-.562.852-.463.073-.65-.658-.625-.663-1.271.288-1.61,1.625-3.532,1.323-1.005-.161-1.315-1.231-2.377.376-.776,1.171-.254.093-1.815-.476-1.227,1.79.387,2.113.187,4.547a5.609,5.609,0,0,0-3.288.729c-1.227.58-2.264,1.143-3.244.307-.376,1.762.567,1.528,1.512,1.3a4.051,4.051,0,0,1,.924-.159c-.461,1.481-4.18,1.094-4.691,2.271-.238.549.979.617,1.221.565-.484,1.17-1.509,1.206-2.516,1.241-.112,0-.224.007-.336.013.331.284.733.713.895.739a3.049,3.049,0,0,0,1.173-.184,2.614,2.614,0,0,1,1.282-.158c.288.077-.038.548.626.489.6-.056.494.625.646,1.062a7.688,7.688,0,0,0,1.865-.281,5.231,5.231,0,0,1,1.815-.232c.307.046.4.992.643,1.063a1.755,1.755,0,0,0,.91-.132,1.667,1.667,0,0,1,.93-.123c.27.092.419,1,.642,1.063a1.212,1.212,0,0,0,.6-.091,1.083,1.083,0,0,1,.628-.08c.553.213,1.411,1.283,1.885,1.466a3.85,3.85,0,0,0,1.471.19,7.081,7.081,0,0,1,.994.042c1.3,3.473.625,8.205-.327,11.57a3.7,3.7,0,0,1-2.083.609,2.344,2.344,0,0,0-1.586.477c-.445,2.061.97,2.082.715,3.935q-2.346.221-2.513-1.955c-1.711,1.281-3.082.775-4.618.3a6.441,6.441,0,0,0-4-.25c1.13.723,1.93,1.808,4.341,1.124a6.974,6.974,0,0,0,3.769,2.933c-.122.847-1.829.454-1.815,1.4-.412,2.026,2.511.383,1.914,2.615-4.99-.018-9.068-1.033-14.189-.906.274,2.257,3.716,1.028,4.981,2.188-.136.646-1.212.562-1.2,1.32.127.449.63.488.643,1.063.413,1.117,3.106-.271,2.51,1.956a3.415,3.415,0,0,0-2.467-.231c.791,4.373-1.515,6.326-1.6,10.016.353.607,1.071.607,1.823.607a4.571,4.571,0,0,1,1.271.116c.42.121.9.845,1.258.976a1.374,1.374,0,0,0,.588-.1c.276-.079.554-.157.639-.076.308.305,1.736,1.452,2.5,1.383,1.4-.127.276,1.173.069,2.87-.71.239-.907-.9-1.257-.977a5.174,5.174,0,0,0-1.765.077,5.294,5.294,0,0,1-2.542-.053c-.56-.2-.417-.9-1.256-.977a6.164,6.164,0,0,0-1.279.231c-.77.18-1.609.373-1.791.2-.624-.612-.666-.372-1.037-.079a2.153,2.153,0,0,1-1.413.419c.133,0-.383-.464-.631-.489a2,2,0,0,0-.625.085,2.131,2.131,0,0,1-.6.087,14.2,14.2,0,0,0-7.364,1.026c1.237,1.192,4.1.6,6.777.207-.234.35.342,1.43.043,1.723-.1.092-.355.086-.61.077-.271-.008-.539-.016-.617.094-.209.292-.3,1.555-.571,1.809a1.727,1.727,0,0,1-.947.3c-.638.083-1.237.161-.867,1.1a8.242,8.242,0,0,0-4.279,1.173,5.875,5.875,0,0,1-2.443.915,3.815,3.815,0,0,1-.468.041,1.851,1.851,0,0,0-.759.13c-.319.418-.467.347-.832.275a2.725,2.725,0,0,0-1.006-.018c-1,.145-1.033.68-1.831.832a2.789,2.789,0,0,1-1.534-.086,2.3,2.3,0,0,0-.934-.146c.2-.015-.29.616-.6.66a.6.6,0,0,1-.628-.491c-1.316.25-1.7,1.273-3.668,1.089-1.031-.1-1.325-.9-2.456.342-.825.906-.263.077-1.857-.319-1.3,1.387.349,1.595.086,3.447a7.781,7.781,0,0,0-3.454.65c-1.254.462-2.319.893-3.294.29-.429,1.347.548,1.148,1.525.948a5.789,5.789,0,0,1,.956-.142c-.51,1.135-4.33.929-4.883,1.834-.257.422.993.445,1.244.4-.708,1.213-2.378.886-3.667,1.089-1.338.213-2.287.238-3.686.514-.985.192-1.03.629-1.824.831a71.522,71.522,0,0,1-10.193,1.509c-2.7.267-5.309.519-7.6.969-.064.012-.235.022-.43.036a2.028,2.028,0,0,0-.8.135c-.038.048-.859,1.093-1.213.746-.031-.031.012-.578-.015-.574a2.274,2.274,0,0,0-.769.308,2.4,2.4,0,0,1-2.3.119c-.45,1.43,1.238,1.1,2.79.79a11.835,11.835,0,0,1,1.532-.241,5.94,5.94,0,0,1,1.071.145c1.077.193,2.507.385,3.227-.743,1.782,1.912,5.48.633,9.86.355.985-.061,1.057.283,1.855.318a4.639,4.639,0,0,0,1.194-.174,4.257,4.257,0,0,1,1.261-.17c.115.012,1.993.859,2.467.235.406-.531.907-.363,3.071-.428.973-.028,1.067.248,1.853.32a2.849,2.849,0,0,0,.891-.133,2.583,2.583,0,0,1,.95-.125c.188.026.852.456.631.49a2.433,2.433,0,0,0,.65-.381c.63-.429,1.381-.88,1.2.7.6-.1.459-.768.583-1.232,1.178-.654,1.433.838,1.869.892.2.024.373-.168.563-.362a.988.988,0,0,1,.652-.383c.349-.009.752.464.63.489,1.059-.2,1.324-.9,2.439-.916.019,0,.173.528.627.488a2.1,2.1,0,0,0,.224-.042,1.016,1.016,0,0,1,.391-.042c.191.045.77.486.628.488a2.125,2.125,0,0,0,1.246-.453,2.5,2.5,0,0,1,1.194-.463c-.249.024.46.473.628.486a6.2,6.2,0,0,0,1.053,0,2.084,2.084,0,0,1,1.415.233c-.134.742-1.205.749-1.228.172a21.423,21.423,0,0,1-6.765.364,3.555,3.555,0,0,0-.8.074c-.542.092-1,.171-1.053-.389-1.839,2.1-1.6,1.509-4.882,1.831-.141.014-.369.067-.619.123a3.023,3.023,0,0,1-1.224.133c.005,0,.711-1.23.586-1.233-.28-.007-.6.3-.954.608-.648.572-1.388,1.159-2.115-.179-5.66,2.287-11.245,1.581-16.569,2.307-1,.136-1.026.673-1.827.831a1.418,1.418,0,0,1-1.051-.144,1.249,1.249,0,0,0-.8-.173,2.486,2.486,0,0,0-.862.428,2.478,2.478,0,0,1-1.583.485c-1.314-.121-1.061.022-3.681.514-.473.089-.949.14-1.426.191a15.341,15.341,0,0,0-1.642.237c-1.393.307-1.521.575-3.671,1.087-.348.085-2.449,1.591-3.05,1-.416-.4-.415-.253-.59-.072a.864.864,0,0,1-.639.244,3.425,3.425,0,0,1-1.083-.137,2.94,2.94,0,0,0-1.385-.1c-1.083.17-1.312.672-2.442.917a2.526,2.526,0,0,1-1.508-.086,1.9,1.9,0,0,0-.96-.146,6.8,6.8,0,0,0-1.3.488,7.677,7.677,0,0,1-2.985.686,2.817,2.817,0,0,1-.779-.138c-.675-.193-1.156-.387-1.042.965-1.039.36-1.172-.285-1.258-.977a3.807,3.807,0,0,0-2,.812c-1.151.721-2.2,1.423-2.29-.212-1.54.115-1.9,1.152-2.416,2.064a2.456,2.456,0,0,0-3.067.428c-.387,1.6,1.3.933,1.885,1.47-.3,1.088-3.045.968-4.9,1.255-1.919.3-3.53.365-5.526.77-1.36.278-5.721,1.453-7.947,2.26-1.213.438-1.17.105-1.825.831.007-.01-.356.074-.855.177a8.468,8.468,0,0,1-2.83.337c-.365-.359-1-.172-1.794.041a4.84,4.84,0,0,1-3.13.067c.436-1.149,1.823-.653.573-1.807-.169-.7-1.235-.409-1.229.173-.668-.051-.443-1.086-1.255-.979-1.829.266-.72,2.817-1.757,3.7-.182.64-1.2.644-2.291.659-1.017.014-2.094.039-2.6.6-.387.426-.378.365-.777.305a5.842,5.842,0,0,0-1.679.036,5.294,5.294,0,0,0-1.227.172c-.4.526-.409.362-.58.224-.107-.085-.278-.162-.646-.053-.746.218-.766,1.094-1.2,1.32-.683.355-.424-.48-.63-.489-.709-.032-.385.608-.6.659-3.236.792-6.513,1.253-9.823,1.72-2.834.4-5.693.8-8.574,1.421-.986.21-1.034.583-1.829.829a8.985,8.985,0,0,1-2.082.317,9.6,9.6,0,0,0-1.6.2c-.952.236-1.055.653-1.827.83a25.45,25.45,0,0,1-3.159.448,27.218,27.218,0,0,0-2.977.407c-1.285.273-2.053.587-4.284,1.174-1.386.364-3.929.879-6.737,1.515-.963.217-1.046.655-1.825.83a25.651,25.651,0,0,1-2.885.411c-.905.094-1.807.189-2.638.358-.988.2-1.036.581-1.826.831a7.884,7.884,0,0,1-2.033.308,8.856,8.856,0,0,0-1.65.205c-.952.234-1.057.653-1.83.831a25.2,25.2,0,0,1-3.141.446,28.276,28.276,0,0,0-2.993.41c-.985.2-1.03.606-1.828.831a7.694,7.694,0,0,1-1.543.216,7.643,7.643,0,0,0-1.524.212c-3.683,1.019-9.29,2.215-14.072,3.689-1.345.413-2.461.633-4.9,1.257-1.421.365-5.819,1.506-7.95,2.257a2.856,2.856,0,0,1-.888.117,2.612,2.612,0,0,0-.956.142c-.261.113-.7.682-.6.661a1.808,1.808,0,0,1-1.2-.123,1.86,1.86,0,0,0-1.267-.111c-1.194.3-2.5.71-3.668,1.089-1.8.584-6.539,1.475-9.176,2.43-1.831.664-3.275.683-6.122,1.428-1.309.344-2.966.731-5.507,1.344-1.3.313-2.052.563-4.286,1.174a3.634,3.634,0,0,1-.474.041,1.751,1.751,0,0,0-.75.128c-.547.722-.73.527-1.055.355a1.02,1.02,0,0,0-.789-.1c-1.143.279-2.423.686-3.667,1.088-3.1,1-10.626,1.976-14.075,3.687a1.794,1.794,0,0,1-.557.059c-.292.008-.595.016-.667.113-.04.049.057.561.015.576-.533.176-.758.005-.914-.166-.115-.125-.194-.25-.331-.239-.454.039-.641.639-1.213.746-.407.074-.83.111-1.255.148a9.31,9.31,0,0,0-1.812.279c-1.264.374-2.445,1.311-3.65,1.661a24.7,24.7,0,0,1-3.225.644,19.309,19.309,0,0,0-4.129.958,22.524,22.524,0,0,1-3.052,1,50.154,50.154,0,0,0-7.34,2.174,1.87,1.87,0,0,1-.559.059c-.292.006-.594.016-.667.113-.475.63-.823.58-1.823.832a4.318,4.318,0,0,1-.47.041,1.8,1.8,0,0,0-.759.13c-.549.722-.73.525-1.046.35a.963.963,0,0,0-.8-.094c-1.322.358-2.367,1.382-3.653,1.662-.069.015-.139.028-.208.039a9.169,9.169,0,0,1-1.683.061,4.791,4.791,0,0,0-3.02.585c1.408-1.633-.834-2.708-.727-4.512,0,.04,1.666-.314,1.213-.744.035-1.138-1.8.618-3.052,1a5.772,5.772,0,0,1-1.217.118c-1.23.049-2.717.139-2.437,1.546-.915-.375-1.966-.589-1.9-2.04.114-.8,2.389-.365,2.426-1.491.036-1.147,4.814-1.855,7.335-2.173.733.123.288-1.049.587-1.236.163-.1.475.055.8.21.633.3,1.312.595,1.023-1.039.664.842,1.69.4,2.659-.035.932-.419,1.81-.827,2.264-.076.716-.192.493-1.12.573-1.809,3.273.875-1.145,1.965-.516,4.106-2.714.469.249-1.663-1.283-2.126-2.319,1.966,1.5,4.111.127,5.168a1.205,1.205,0,0,1-1.094-.126,1.194,1.194,0,0,0-.76-.193c-1.158,1.229-.461,1.122-2.445.918q.028,1.148.056,2.3a1.3,1.3,0,0,0,1.479-.746,1.279,1.279,0,0,1,.953-.744c2.378.41,5.166.023,6.078-3.152-.961-.74-.958-.279-1.179.217a1.131,1.131,0,0,1-1.26.7q-.042-1.719-.086-3.443c.482-.561,1.673-.576,1.814-1.4-.13-1.835-1.985-3.542-.742-5.081-.673-.238-1.03.268-1.3.76-.355.646-.562,1.269-1.141.154-.718.194-.489,1.12-.571,1.807a1.925,1.925,0,0,0-1.812,1.406c-1.777-.942-2.842.765-4.282,1.174a2.128,2.128,0,0,1-1.035-.024c-.527-.108-1-.227-1.419.367-.376-1.147-.988-1.085-1.855-.319.022.409.424.4.825.392a2.946,2.946,0,0,1,.413.011c-2.233,2.147-1.9-2.214-1.323-3.848-1.244-.493-.9,1.168-1.2,1.317-.172.085-.366-.061-.583-.2a.852.852,0,0,0-.661-.2,11.437,11.437,0,0,0-3.039,1.578,2.58,2.58,0,0,0-2.458.007,3.006,3.006,0,0,1-2.467.1c-.715-.163-.308,1.094-.582,1.232-.691.347-.419-.476-.629-.487.038,0-1.992.722-2.444.915-.594.26-1.583.8-1.811,1.406a1.577,1.577,0,0,1-1.366-.138,1.707,1.707,0,0,0-1.715-.009c-1.067.671-.964,2.255-2.4,2.639-.081.681.163,1,.643,1.063-.2.465-.861.46-1.523.456-.7-.006-1.4-.013-1.531.547-2.05-.581,1.24-1.583.542-2.957-2.745.3-2.286,3.1-2.955,5.02a1.461,1.461,0,0,0-1.966.212c-.41.355-.712.691-1.1.214-.211-1.727.509-1.609,1.332-1.508.633.078,1.324.146,1.7-.641.424-1.051-.285-.952-.963-.854-.382.056-.755.112-.908-.039-.044-.044.04-.568-.014-.574-.926-.1-.888.684-1.214.744a.658.658,0,0,1-.557-.214.7.7,0,0,0-.683-.189c-.6.164-1.323,1.084-2.438.917.388.458.765.924.029,1.149-.416.991,2.913.526,2.453-.342,2,.176-2.726,2.633-2.426,1.487l-1.843.259c-.482-1.5,1.193-1.327,1.174-2.468-.78.375-.967,1.065-1.813,1.406a6.569,6.569,0,0,1-2.267.326c-1.194.035-2.381.068-3.243,1.017-.35.383-.5.333-.977.284a5.658,5.658,0,0,0-.864-.027,5.87,5.87,0,0,0-.878.127,5.463,5.463,0,0,1-.965.13c.091,0,.045.178-.059.356s-.268.357-.413.357A.173.173,0,0,1,289.649,403.538ZM339.06,397.2a2.515,2.515,0,0,0-.3.07c-.1,2.827,6.546-.551,3.656-1.66-.01,1.044-.548.776-1.04.5-.471-.263-.9-.534-.786.33.689.026.97.506,1.253.98a1.712,1.712,0,0,1-1.714-.013,1.658,1.658,0,0,0-.8-.231A1.622,1.622,0,0,0,339.06,397.2Zm10.966-3.384c-1.068.173-2.409.761-.846,1.426-.4-.533,2.192-1.107,1.811-1.4a.742.742,0,0,0-.4-.074A3.787,3.787,0,0,0,350.025,393.818Zm11.8-.851c-.093.015-.22.178-.376.57.071.8-1.769.9-.584,1.234.621.131.955-.436,1.073-.969.1-.429.049-.835-.1-.835ZM354,392.84a10.723,10.723,0,0,0-1.29.093c-.8.13-1.337.458-1.1,1.4a3.219,3.219,0,0,1,2.4-.686c.887.019,1.6.066,1.872-1.059A5.639,5.639,0,0,1,354,392.84Zm11.774,1.246c.127-.464-.012-1.134.585-1.234.04.346.109.667.625.49-.112-.658.067-1.636-.643-1.636h-.011C365.569,392.61,363.372,393.749,365.775,394.086Zm5.692-2.915c-.083.014-.159.138-.212.424-.148.8.435,2.191.64,1.064.111-.59-.173-1.489-.413-1.489Zm-9.821.8c.745.238,1.31.5,1.6-.41-.752.04-1.457.03-1.258-.977a5.613,5.613,0,0,1-.953.122c-.98.074-1.961.148-1.47,1.369a2.008,2.008,0,0,1,1.056-.3A3.376,3.376,0,0,1,361.646,391.966Zm8.693-2.058c-.418.068-.878.711-.955.8-2.021,2.224,2.66.14,1.214-.747a.353.353,0,0,0-.191-.054A.438.438,0,0,0,370.339,389.908Zm2.341-2.922c-.084.014-.183.137-.3.419.391,1.138-.667,3.877.711,3.933-.009-.758,1.064-.672,1.2-1.319a1.381,1.381,0,0,1-1.272-1.55c.019-.594-.092-1.483-.329-1.483Zm-9.9,2.321c-.453.074-.749.4-.79,1.273h.067c.257,0,.546.02.856.04,1.32.087,2.988.174,3.974-1.3a3.625,3.625,0,0,1-2.633.166,6.816,6.816,0,0,0-1.243-.2A1.453,1.453,0,0,0,362.781,389.307Zm16.439.6c-.128-.841.167-2.148-.67-2.21-.128.464.009,1.134-.588,1.233-.113-.661.065-1.643-.656-1.635.019.766.038,1.529.055,2.3l.029-.005a2.969,2.969,0,0,1,.477-.04A3.008,3.008,0,0,1,379.22,389.908Zm-21.566-.452c.069-.657.879-.739,1.689-.822.258-.025.517-.052.751-.1,1.124-1.731-1.59-1.006-2.5-1.379-.129-.056.1-1.134-.028-1.147-2.117-.249-4.88.982-4.854,2.978,1.8,1.336,3.249-.779,4.9-1.256C357.541,388.424,356.551,389.187,357.655,389.456Zm-18.96-1.776a1.563,1.563,0,0,0-1.363,1.724,3.157,3.157,0,0,0,2.428-1.49,1.228,1.228,0,0,0-.794-.257A1.632,1.632,0,0,0,338.694,387.68Zm42.895-1.561c-.781.876-.333,1.786.668,2.213,1.1-1.44-.138-.541-.652-1.637.023.051.253-.119.359-.288.094-.148.094-.3-.219-.3A1.462,1.462,0,0,0,381.589,386.12Zm-35.492-.841a1.962,1.962,0,0,0-.245.058c-.92,1.548,2.127,1.4,1.856.318a1.187,1.187,0,0,1-.763-.194,1.238,1.238,0,0,0-.639-.2A1.267,1.267,0,0,0,346.1,385.279Zm46.552-.122c.549-.494-1.037-.255-.645.063a8.474,8.474,0,0,0-1.224-.956,4.079,4.079,0,0,1-.163.894c-.126.506-.3,1.018-.407.917C390.7,386.531,392.545,385.25,392.648,385.157Zm-26.312-1.581c-1.684.274-2.938.88-3.227,2.238a5.7,5.7,0,0,0,4.865-2.406A15.942,15.942,0,0,0,366.336,383.576Zm31.191-.251c-.4,2.042-1.834.64-3.065.427C393.969,386.474,399.975,384.7,397.527,383.324Zm-44.406-.084a1.316,1.316,0,0,0-1.133,1.241,1.473,1.473,0,0,0,2.443-.914,1.764,1.764,0,0,0-1.049-.346A1.671,1.671,0,0,0,353.121,383.241Zm22.621-1.584c-.28.046-.4.723-.406.726-4.456,2.693,1.554.084.6-.661a.277.277,0,0,0-.166-.068Zm-17.043.161c.01.384.02.767.028,1.15l1.226-.168q-.012-.576-.03-1.152C359.518,381.7,359.11,381.762,358.7,381.818Zm52.3-1.066a1.863,1.863,0,0,0-1.2.861c1.861.336,2.331-.142,2.141-.514a.837.837,0,0,0-.749-.363A1.229,1.229,0,0,0,411,380.752Zm-28.3.6c.074-.69,1.064-1.455-.042-1.722C382.589,380.325,381.6,381.088,382.7,381.357Zm-20.42-4.068c-2.57.836-6.409.642-6.694,3.235,1.363.276,2.465-.732,3.668-1.087.643-.191,2.333-.921,2.439-.917.442.023.01.732.616-.086.278-.373.833.439.628.49a4.155,4.155,0,0,0,1.81-1.4c.392-.518,1.1-.525,1.81-.532s1.447-.014,1.86-.557c.061-.083.427-.108.749-.128a3.794,3.794,0,0,0,.481-.044c1.944-.534,2.906-.813,3.667-1.087a43.19,43.19,0,0,1,6.734-1.516c.413-.076.635-.667.6-.658a1.043,1.043,0,0,1,.784.1c.33.171.51.366,1.055-.355.074-.1.38-.107.673-.116a1.842,1.842,0,0,0,.555-.055c2.283-1.135,5.623-1.6,8.564-2.347,2.252-.576,4.373-1.58,6.736-1.515-.008-2.555-4.43.023-4.922.109a79.376,79.376,0,0,0-9.192,1.858c-2.608.847-5.468,1-7.965,1.687-1.137.312-2.6,1.312-3.651,1.661-1.814.594-2.758.924-4.3.6C367.887,376.238,364.682,376.5,362.281,377.289Zm54.8-.146C415.269,379.338,419.4,378.568,417.083,377.143Zm-43.025,1.091a1.9,1.9,0,0,0,1.18.13c.947-1.737-2.689-1.22-2.469-.234.072-.017.139-.031.2-.041a1.914,1.914,0,0,1,.308-.026A2.1,2.1,0,0,1,374.059,378.234Zm1.751-1.681c.01.384.02.766.028,1.15l1.227-.171c-.01-.383-.018-.765-.028-1.15Zm49.912,1.115c.407-2.022-2.406-1.913-2.474-.233l.132-.022a6.046,6.046,0,0,1,.958-.086A2.481,2.481,0,0,1,425.723,377.668Zm-16.143-5.242.028,1.15c.411-.057.819-.115,1.227-.171-.009-.384-.021-.766-.03-1.149Zm33.892,1.042a1.949,1.949,0,0,0,1.813-1.407C444.324,372.251,443.155,372.281,443.471,373.468Zm12.847-3.52,1.227-.171c.666-.923.625-1.492-.657-1.638C456.874,368.878,456.122,369.047,456.318,369.948Zm-249.6-1.9a4.169,4.169,0,0,0,.064-.7A1.248,1.248,0,0,0,206.722,368.047Zm203.913-2.682,1.229-.171c.544-.919-.309-1.24-1.034-1.122-.5.08-.931.365-.822.8.059,0,.115,0,.17,0C410.482,364.87,410.72,364.938,410.635,365.365Zm79.965-3.649,1.228-.171c.546-.919-.307-1.24-1.033-1.123-.5.081-.934.367-.824.806.06,0,.121-.006.178-.006C490.449,361.221,490.684,361.292,490.6,361.715Zm25.1-5.8c-.2.018-.377.04-.524.063-.769.125-.8.31-.518.441.563.261,2.371.32,2.271-.676C516.523,355.8,516.111,355.857,515.7,355.914Zm15.382-3.353c-1.387.224-1.953.6-.654,1.3-.6-.321,2.915-.168,2.429-1.491C532.194,352.419,531.587,352.48,531.086,352.561Zm17.712-2.984c.02.572-.478.751-.58,1.231.962-.188,2.127-.22,1.812-1.4C549.618,349.46,549.21,349.518,548.8,349.576Zm3.1.719c.471-.194,1.21-.186,1.217-.748-.814.108-.588-.926-1.259-.974C551.635,349.426,551.142,349.642,551.9,350.3Zm2.412-2.065a1.943,1.943,0,0,0,1.812-1.407C555.159,347.015,553.991,347.044,554.309,348.231Zm8.621-.049c.817-1.951-3.71-.94-3.7-.059.278-.053.553-.1.823-.147a9.489,9.489,0,0,1,1.48-.145A2.308,2.308,0,0,1,562.93,348.181Zm5.5-1.918a1.944,1.944,0,0,0,1.812-1.4C569.273,345.048,568.107,345.079,568.427,346.263ZM134.377,314.538a1.656,1.656,0,0,1,.151.072.488.488,0,0,0,.389-.146Zm-4.763-98.3c-.572.176-1.031.038-1.141.491,1.048-.2,2.107-.393,3.186-.583.94-.166,1-.522,1.754-.669.54-.1,1.108-.175,1.685-.233a3.052,3.052,0,0,0-.857-.348A24.973,24.973,0,0,0,129.614,216.237Zm8.8-1.329c.1-.016.206-.032.309-.05a2.723,2.723,0,0,0,.945-.328c-.266.005-.534.005-.8,0A.562.562,0,0,0,138.415,214.907Zm7.979-1.462-.027.007c0,.03,0,.048.009.048a.621.621,0,0,0,.349-.143C146.621,213.384,146.511,213.413,146.395,213.446Zm2.889-.717a1.992,1.992,0,0,1-.491.221,15.7,15.7,0,0,0,3.044-.5c-.193-.016-.359-.041-.511-.067a4.616,4.616,0,0,0-.777-.1A2.345,2.345,0,0,0,149.284,212.729ZM248.505,199.4c-.5.029-.967.254-.869.651.049,0,.1,0,.143,0,.292.012.525.075.434.441l.3-.025a5.421,5.421,0,0,0,.433-.775l.464-.054a1.2,1.2,0,0,0-.8-.244C248.576,199.392,248.54,199.393,248.505,199.4ZM712.218,156.16c.065-.011.066-.077.018-.189C712.231,156.03,712.226,156.093,712.218,156.16Zm-344.5,246.292c-.492-.35-.325-.806,1.953-.266a.962.962,0,0,1-.748.554,1.337,1.337,0,0,1-.217.017A1.82,1.82,0,0,1,367.714,402.452Zm4.573-1.121c-.167-.407.206-.9,1.666-.317a1.479,1.479,0,0,1-.917.7.726.726,0,0,1-.123.01A.677.677,0,0,1,372.287,401.331Zm-45.161-1.285c-.272-1.079,2.776-1.227,1.857.318l-1.229.173C327.856,400.032,327.5,400.027,327.126,400.046Zm-10.572-4.287c.1,1.02-.722,1.314-.559,2.381C314.708,397.741,314.247,395.836,316.553,395.759Zm1.454,1.885c-.341-.158-.227-.389,1.04-.5l1.228-.171c.05.491-.363.725-.861.806a2.739,2.739,0,0,1-.448.034A2.531,2.531,0,0,1,318.008,397.643Zm73.084-.744c.035.033.525-1.161.584-1.233.039-.047-.055-.562-.013-.575,1-.306,1.1.211.858.785-.219.509-.715,1.065-1.1,1.127a.4.4,0,0,1-.072.006A.339.339,0,0,1,391.091,396.9Zm-72.1-2.057q2.006-.439,1.881,1.466a1.824,1.824,0,0,0,1.188-1.893c.931-.366,1.216-.017,1.5.331a.967.967,0,0,0,.979.476c.745.1.281-1.017.59-1.236.209-.15.776-.047,1.292.064.8.172,1.473.361.547-.32.182-1.022.495-.558.905-.108.276.3.6.6.951.426-.414.3-.774,1.692-1.186,1.895a.109.109,0,0,1-.037.011,1.366,1.366,0,0,1-.579-.207,1.542,1.542,0,0,0-.628-.208,2.832,2.832,0,0,0-1.094.392c-.779.4-1.517.8-1.985-.539-.6.1-.461.769-.589,1.234a5.063,5.063,0,0,1-2.107-.041,4.967,4.967,0,0,0-2.812.151C317.438,395.508,318.958,395.753,318.993,394.842Zm-44.357-.735c2.351.655-1.309,1.129-1.183,1.894C271.1,395.344,274.761,394.87,274.636,394.106Zm54.833,1c-.339-1.766.818-2.364,1.14-3.614a2.8,2.8,0,0,0,1.858.314c.019.967-.69,1.331-1.184,1.9-.44.5-.55,1.234-1.437,1.378a2.1,2.1,0,0,1-.324.024Zm-41.986-4.522c.253-1.167,4.279-1.633,3.094.719C289.4,391.227,289.429,389.824,287.483,390.589Zm104.546-5.351.007.005Zm-.006,0,.006,0Zm0,0,0,0ZM392,385.22l.016.012Zm152.091-32.387a1.173,1.173,0,0,0-.759-.192,2.867,2.867,0,0,0,.569-1.811c1.086.37,2.4.957,1.283,2.125a1.75,1.75,0,0,1-.248.059,1.136,1.136,0,0,1-.845-.182Zm35.376-8.109c-.52,1.121-.913,1.122-1.673,1.185a5.837,5.837,0,0,0-1.984.477C575.85,344.907,577.846,344.961,579.47,344.724Zm-451.527-33.6c2.26.527-1.257.908-1.137,1.522C124.547,312.116,128.065,311.734,127.943,311.121Zm12.346-2.829c.242-.94,4.113-1.314,2.975.578C142.137,308.8,142.161,307.676,140.289,308.292Zm578.079-71.81h0Zm2.092-87.188a3.078,3.078,0,0,1-.56-.287,1.94,1.94,0,0,1,.286.1c.219.129.3.186.275.188Zm-3.2-.938,1.418-.29c-.43-.5-.409-.977,1.058-1.07.954-.059,1.024.274,1.8.31a4.446,4.446,0,0,0,1.159-.168,4.073,4.073,0,0,1,1.221-.165c.032,0-2.147.462-5.235,1.094.054.061.114.124.181.186a6.252,6.252,0,0,0,1.041.754C719.42,148.866,718.431,148.628,717.26,148.356Zm-5.531-3.058c-1.135.16-2.167.3-3.04.391C709.664,145.538,710.682,145.412,711.729,145.3Zm9.333-1.493c1.555-.267,3.031-.527,4.313-.757a2.823,2.823,0,0,1-.947.493c-4.01,1.013-8.573,1.3-12.7,1.757C714.535,144.9,717.955,144.338,721.062,143.8Zm5.135-1.072c1.355-.266,2.275-.292,3.573-.5.361-.057-1.534.3-4.395.814A2.29,2.29,0,0,1,726.2,142.733ZM703.779,78.015c-1.5.049-3.009.1-3.537-.925-1.61,1.06-5.663.746-7.753.521,1.009-1.147,2.562-1.024,4.037-.895a10.735,10.735,0,0,0,1.914.063,7.118,7.118,0,0,1,2.988.144,11.089,11.089,0,0,0,1.8.309c.508.048.421.446.609.474a3.951,3.951,0,0,0,1.247-.172c1.037-.241,2.128-.486,1.753.873A5.684,5.684,0,0,0,703.779,78.015ZM687.689,76.6q.6-.082,1.192-.166l.026,1.118-1.189.167C687.708,77.345,687.7,76.973,687.689,76.6Zm-4.773.105a1.807,1.807,0,0,0-.828.355c-.518.315-1.076.634-1.554-.022-.1-1.458,2.851-.533,3.572-.5a6.376,6.376,0,0,0,1.321-.158c1.13-.211,2.219-.418,1.682.859a1.147,1.147,0,0,1-1.059-.121,1.127,1.127,0,0,0-.739-.188c-.5.055-1.306.718-1.176.725C683.607,77.629,683.124,76.712,682.916,76.705Zm8.817-39.523c.037,0,.051,0,.043,0h-.041S691.735,37.183,691.734,37.182Z" transform="matrix(0.999, 0.052, -0.052, 0.999, 251.076, 674.977)" stroke="rgba(0,0,0,0)" stroke-miterlimit="10" stroke-width="1"/>
    </g>
  </g>
</svg>
