<?xml version="1.0" standalone="no"?>
<!DOCTYPE svg PUBLIC "-//W3C//DTD SVG 20010904//EN"
 "http://www.w3.org/TR/2001/REC-SVG-20010904/DTD/svg10.dtd">
<svg version="1.0" xmlns="http://www.w3.org/2000/svg"
 width="512.000000pt" height="512.000000pt" viewBox="0 0 512.000000 512.000000"
 preserveAspectRatio="xMidYMid meet">

<g transform="translate(0.000000,512.000000) scale(0.100000,-0.100000)"
fill="#000000" stroke="none">
<path d="M1949 5092 c-68 -35 -119 -112 -119 -179 0 -83 -21 -238 -36 -260
-25 -39 -58 -39 -142 0 -148 70 -328 115 -401 102 -85 -15 -158 -85 -181 -173
-13 -49 -6 -94 26 -174 30 -73 31 -131 3 -159 -24 -24 -58 -23 -159 6 -70 19
-219 19 -295 0 -73 -19 -185 -72 -243 -114 -92 -68 -116 -196 -57 -296 29 -50
75 -80 180 -120 125 -47 225 -120 284 -210 l26 -40 -3 -242 -3 -243 -58 -30
c-228 -122 -309 -409 -178 -632 32 -54 121 -139 175 -167 60 -30 147 -51 217
-51 l60 0 24 -73 c33 -101 58 -146 86 -157 36 -14 81 6 95 41 11 26 9 40 -23
122 -81 212 -113 444 -91 656 7 59 8 63 43 77 234 101 538 174 861 208 l135
15 50 -34 c118 -81 275 -118 414 -98 92 14 185 49 256 98 l50 34 135 -15 c318
-33 629 -107 853 -203 l44 -19 6 -62 c57 -539 -216 -1080 -688 -1365 -596
-361 -1377 -232 -1825 301 -64 75 -75 84 -106 84 -43 0 -74 -29 -74 -71 0 -24
14 -49 55 -100 58 -69 179 -189 233 -229 l31 -23 -87 -92 c-230 -241 -368
-559 -388 -897 -8 -136 3 -179 65 -238 26 -26 63 -51 87 -58 60 -18 2488 -18
2548 0 24 7 61 32 87 58 62 59 73 102 65 238 -20 344 -164 670 -402 913 l-75
75 65 52 c84 69 183 175 262 281 73 99 180 302 215 409 l23 72 61 0 c70 0 157
21 217 51 54 28 143 113 175 167 131 223 50 510 -178 632 l-58 30 -3 243 -3
242 26 40 c59 90 159 163 284 210 105 40 151 70 180 120 59 100 35 228 -57
296 -58 42 -170 95 -243 114 -76 19 -225 19 -295 0 -96 -27 -127 -29 -155 -11
-21 14 -25 24 -25 61 0 25 11 71 24 103 32 80 39 125 26 174 -23 88 -96 158
-181 173 -73 13 -253 -32 -401 -102 -133 -62 -154 -41 -172 169 -10 126 -15
150 -39 191 -35 59 -100 99 -171 105 -110 8 -281 -76 -421 -209 -49 -46 -93
-79 -105 -79 -12 0 -56 33 -105 79 -97 92 -190 150 -295 186 -96 33 -144 32
-211 -3z m239 -172 c62 -31 102 -60 162 -120 102 -101 127 -114 210 -114 83 0
108 13 210 114 60 60 100 89 162 120 109 53 146 59 180 29 24 -22 27 -34 37
-154 14 -164 25 -199 81 -256 83 -83 171 -89 309 -19 77 38 182 72 266 85 32
5 46 2 67 -14 38 -30 39 -50 6 -142 -52 -147 -38 -243 46 -316 64 -57 146 -66
276 -29 137 40 340 -2 434 -89 49 -46 22 -111 -56 -134 -124 -37 -291 -148
-364 -243 -20 -27 -41 -48 -47 -48 -5 0 -24 9 -42 20 -46 28 -229 104 -324
134 -93 29 -121 25 -145 -23 -17 -32 -11 -66 16 -89 8 -6 61 -28 119 -47 156
-54 322 -137 337 -170 8 -18 12 -96 12 -244 0 -206 -1 -220 -21 -245 -27 -35
-49 -33 -167 14 -213 84 -480 151 -747 185 l-130 17 31 64 c74 153 77 329 7
511 -7 17 22 15 189 -13 78 -13 91 -13 118 1 16 8 33 27 36 40 9 36 -13 81
-44 94 -31 12 -182 35 -331 51 -97 11 -107 14 -155 50 -115 86 -226 123 -366
123 -140 0 -251 -37 -366 -123 -49 -37 -54 -39 -195 -55 -374 -43 -703 -128
-945 -246 -55 -27 -103 -49 -106 -49 -3 0 -22 21 -42 48 -73 95 -222 195 -359
241 -61 21 -93 57 -83 95 8 33 34 57 100 90 117 59 246 71 374 36 122 -34 202
-22 265 38 75 71 90 171 43 298 -34 93 -34 126 1 154 22 17 35 20 68 15 88
-14 165 -39 266 -86 150 -69 224 -65 309 21 56 56 67 90 81 255 10 120 13 132
37 154 34 30 71 24 180 -29z m563 -1051 c191 -91 292 -294 248 -501 -49 -228
-280 -387 -506 -349 -366 62 -509 499 -250 762 90 92 190 130 332 126 91 -2
107 -5 176 -38z m-744 -153 c-71 -184 -66 -376 12 -522 l28 -52 -141 -19 -141
-19 -11 26 c-7 15 -14 131 -18 288 l-7 262 23 10 c22 9 189 37 237 39 16 1 21
-3 18 -13z m-1052 -949 l29 -15 -2 -158 c-2 -97 3 -194 11 -248 l13 -88 -56 5
c-99 9 -191 71 -238 161 -23 44 -27 63 -27 136 0 73 4 92 27 135 29 55 76 104
123 128 29 15 31 14 60 -13 17 -15 43 -34 60 -43z m3401 1 c60 -63 79 -113 79
-208 0 -73 -4 -92 -27 -136 -48 -91 -139 -152 -239 -161 l-57 -6 10 44 c5 24
11 136 13 248 l4 205 33 17 c18 9 44 29 57 43 l24 25 36 -19 c20 -10 50 -33
67 -52z m-2550 -1600 c32 -18 95 -48 140 -68 80 -35 83 -37 290 -258 115 -123
210 -227 212 -231 3 -9 -186 -211 -198 -211 -7 0 -501 521 -620 654 l-25 28
63 59 c34 32 66 59 70 59 5 0 35 -14 68 -32z m1645 -25 c32 -31 59 -60 59 -65
0 -5 -74 -87 -165 -183 -146 -154 -165 -178 -165 -208 0 -45 31 -77 75 -77 30
0 47 15 192 169 l158 169 23 -27 c30 -35 96 -164 128 -247 37 -99 63 -215 74
-339 12 -127 5 -158 -42 -174 -20 -7 -188 -11 -480 -11 l-449 0 115 124 c115
124 127 145 110 191 -9 24 -60 46 -88 39 -15 -3 -92 -77 -187 -180 l-162 -174
-205 0 -205 0 24 27 c13 14 206 220 428 457 l403 431 102 46 c55 25 117 55
136 67 19 12 41 22 48 22 8 0 40 -25 73 -57z m-892 -164 c73 0 161 3 194 7
l61 7 -124 -131 c-68 -73 -127 -132 -130 -132 -3 0 -62 59 -130 132 l-124 131
60 -7 c33 -4 120 -7 193 -7z m-570 -535 l153 -164 -58 -64 -59 -65 -117 0
-116 -1 -6 58 c-11 90 23 404 43 401 3 -1 75 -75 160 -165z"/>
<path d="M1810 2783 c-31 -12 -50 -37 -50 -68 0 -59 23 -73 150 -95 63 -11
125 -20 138 -20 31 0 72 43 72 75 0 50 -35 70 -155 89 -61 9 -117 19 -125 21
-8 2 -22 1 -30 -2z"/>
<path d="M3161 2766 c-101 -18 -127 -27 -142 -45 -26 -32 -24 -67 6 -96 29
-30 39 -30 185 -5 127 22 150 36 150 95 0 33 -21 59 -55 68 -11 3 -76 -5 -144
-17z"/>
<path d="M1893 2590 c-34 -14 -43 -42 -43 -133 0 -74 3 -86 23 -105 31 -29 77
-29 105 1 19 20 22 35 22 109 0 67 -4 90 -17 106 -21 25 -60 35 -90 22z"/>
<path d="M3163 2590 c-34 -14 -43 -42 -43 -133 0 -74 3 -86 23 -105 31 -29 77
-29 105 1 19 20 22 35 22 109 0 67 -4 90 -17 106 -21 25 -60 35 -90 22z"/>
<path d="M2225 2438 c-25 -20 -27 -25 -23 -80 11 -150 184 -242 316 -168 l42
24 42 -24 c132 -74 305 18 316 168 4 55 2 60 -23 80 -31 25 -44 27 -78 11 -26
-12 -47 -47 -47 -78 0 -25 -34 -53 -65 -53 -34 0 -62 26 -69 67 -7 36 -47 75
-76 75 -29 0 -69 -39 -76 -75 -7 -41 -35 -67 -69 -67 -31 0 -65 28 -65 53 0
31 -21 66 -47 78 -34 16 -47 14 -78 -11z"/>
</g>
</svg>
