<?xml version="1.0" encoding="UTF-8" standalone="no"?>
<!-- Created with Inkscape (http://www.inkscape.org/) -->

<svg
   xmlns:dc="http://purl.org/dc/elements/1.1/"
   xmlns:cc="http://creativecommons.org/ns#"
   xmlns:rdf="http://www.w3.org/1999/02/22-rdf-syntax-ns#"
   xmlns:svg="http://www.w3.org/2000/svg"
   xmlns="http://www.w3.org/2000/svg"
   xmlns:sodipodi="http://sodipodi.sourceforge.net/DTD/sodipodi-0.dtd"
   xmlns:inkscape="http://www.inkscape.org/namespaces/inkscape"
   id="svg3210"
   sodipodi:version="0.32"
   inkscape:version="0.47 r22583"
   width="300"
   height="299.99997"
   version="1.0"
   sodipodi:docname="Doujutsu Uchiha Ancestor.svg"
   inkscape:output_extension="org.inkscape.output.svg.inkscape">
  <metadata
     id="metadata8">
    <rdf:RDF>
      <cc:Work
         rdf:about="">
        <dc:format>image/svg+xml</dc:format>
        <dc:type
           rdf:resource="http://purl.org/dc/dcmitype/StillImage" />
      </cc:Work>
    </rdf:RDF>
  </metadata>
  <defs
     id="defs3213">
    <inkscape:perspective
       sodipodi:type="inkscape:persp3d"
       inkscape:vp_x="0 : 149.99998 : 1"
       inkscape:vp_y="0 : 1000 : 0"
       inkscape:vp_z="300 : 149.99998 : 1"
       inkscape:persp3d-origin="150 : 99.99999 : 1"
       id="perspective10" />
    <filter
       height="1.4122708"
       y="-0.2061354"
       width="2.2574259"
       x="-0.62871297"
       id="filter3195"
       inkscape:collect="always">
      <feGaussianBlur
         id="feGaussianBlur3197"
         stdDeviation="2.6314655"
         inkscape:collect="always" />
    </filter>
    <filter
       id="filter3175"
       inkscape:collect="always">
      <feGaussianBlur
         id="feGaussianBlur3177"
         stdDeviation="0.47804211"
         inkscape:collect="always" />
    </filter>
    <filter
       height="1.2188384"
       y="-0.10941921"
       width="1.1285562"
       x="-0.064278088"
       id="filter3171"
       inkscape:collect="always">
      <feGaussianBlur
         id="feGaussianBlur3173"
         stdDeviation="0.47804211"
         inkscape:collect="always" />
    </filter>
    <filter
       id="filter3167"
       inkscape:collect="always">
      <feGaussianBlur
         id="feGaussianBlur3169"
         stdDeviation="0.47804211"
         inkscape:collect="always" />
    </filter>
    <inkscape:perspective
       id="perspective3626"
       inkscape:persp3d-origin="150 : 100.00015 : 1"
       inkscape:vp_z="300 : 150.00023 : 1"
       inkscape:vp_y="0 : 1000 : 0"
       inkscape:vp_x="0 : 150.00023 : 1"
       sodipodi:type="inkscape:persp3d" />
  </defs>
  <sodipodi:namedview
     inkscape:window-height="930"
     inkscape:window-width="1276"
     inkscape:pageshadow="2"
     inkscape:pageopacity="0.0"
     guidetolerance="10.0"
     gridtolerance="10.0"
     objecttolerance="10.0"
     borderopacity="1.0"
     bordercolor="#666666"
     pagecolor="#ffffff"
     id="base"
     showgrid="false"
     inkscape:zoom="0.70710678"
     inkscape:cx="124.72033"
     inkscape:cy="82.117816"
     inkscape:window-x="-4"
     inkscape:window-y="-4"
     inkscape:current-layer="svg3210"
     inkscape:object-paths="false"
     inkscape:object-nodes="false"
     inkscape:snap-center="true"
     inkscape:window-maximized="0" />
  <path
     sodipodi:type="arc"
     style="fill:#d2c8e6;fill-opacity:1;fill-rule:evenodd;stroke:none;stroke-width:5;marker:none;visibility:visible;display:inline;overflow:visible;enable-background:accumulate"
     id="iris1"
     sodipodi:cx="11.803053"
     sodipodi:cy="-4.6187601"
     sodipodi:rx="23.857235"
     sodipodi:ry="23.354977"
     d="m 35.660288,-4.6187601 a 23.857235,23.354977 0 1 1 -47.71447,0 23.857235,23.354977 0 1 1 47.71447,0 z"
     transform="matrix(6.1197369,0,0,6.2513443,77.768422,178.87345)" />
  <path
     sodipodi:type="arc"
     style="fill:#ffffff;fill-opacity:1;fill-rule:evenodd;stroke:none;stroke-width:5;marker:none;visibility:visible;display:inline;overflow:visible;filter:url(#filter3195);enable-background:accumulate"
     id="iris2"
     sodipodi:cx="7.0316062"
     sodipodi:cy="-6.1255326"
     sodipodi:rx="5.0225759"
     sodipodi:ry="15.318856"
     d="m 12.054182,-6.1255326 a 5.0225759,15.318856 0 1 1 -10.0451517,0 5.0225759,15.318856 0 1 1 10.0451517,0 z"
     transform="matrix(24.887628,0,0,8.1598781,-5.4076085,174.98337)" />
  <path
     style="fill:none;fill-rule:evenodd;stroke:#000000;stroke-width:14.64845943;stroke-linecap:round;stroke-linejoin:miter;stroke-miterlimit:4;stroke-dasharray:none;stroke-opacity:1"
     d="M 151.6483,151.95621 C 157.63963,155.63064 159.65183,145.84418 157.87204,142.18481 C 153.04892,132.26818 139.01015,133.67746 131.73231,139.74197 C 118.71397,150.58997 121.56286,170.45959 132.97709,181.27041 C 149.7279,197.13571 176.90778,192.80624 191.48026,176.38468 C 210.90311,154.49731 204.86274,120.82112 182.76701,103.0992 C 154.96178,80.797986 113.41589,88.351017 91.900344,115.3135 C 65.842134,147.96866 75.210913,195.87127 108.08212,220.35601 C 146.8197,249.21044 202.93473,238.36881 231.31224,200.81315 C 264.0752,157.45368 251.34152,95.212868 207.66197,64.013598 C 158.03047,28.563007 87.275534,42.71496 52.06837,90.885007 C 12.571253,144.92454 28.684316,221.54983 83.187167,259.4416 C 142.59201,300.74139 226.01562,284.6542 268.80202,228.41745"
     id="path2390"
     sodipodi:nodetypes="cssssssssssss" />
  <path
     sodipodi:type="arc"
     style="fill:none;fill-opacity:1;fill-rule:evenodd;stroke:#000000;stroke-width:11.30890846000000000;stroke-linecap:butt;stroke-linejoin:round;marker:none;marker-start:none;marker-mid:none;marker-end:none;stroke-miterlimit:4;stroke-dasharray:none;stroke-dashoffset:0;stroke-opacity:1;visibility:visible;display:inline;overflow:visible;enable-background:accumulate"
     id="irisborder"
     sodipodi:cx="223.22835"
     sodipodi:cy="287.00787"
     sodipodi:rx="123.00337"
     sodipodi:ry="97.947128"
     d="M 346.23172,287.00787 A 123.00337,97.947128 0 1 1 100.22498,287.00787 A 123.00337,97.947128 0 1 1 346.23172,287.00787 z"
     transform="matrix(0,1.152003,-1.4467016,0,565.21475,-107.15974)" />
  <path
     sodipodi:type="arc"
     style="fill:#000000;fill-opacity:1;fill-rule:evenodd;stroke:#000000;stroke-width:0;stroke-linecap:butt;stroke-linejoin:bevel;stroke-miterlimit:4;stroke-dasharray:none;stroke-opacity:1"
     id="path3221"
     sodipodi:cx="290"
     sodipodi:cy="502.36218"
     sodipodi:rx="10"
     sodipodi:ry="10"
     d="M 300,502.36218 A 10,10 0 1 1 280,502.36218 A 10,10 0 1 1 300,502.36218 z"
     transform="matrix(0,1.2207049,-1.2207049,0,763.73597,-204.50441)" />
</svg>
