<?xml version="1.0" encoding="UTF-8"?>
<svg version="1.1" xmlns="http://www.w3.org/2000/svg" width="250" height="250">
<path d="M0 0 C1.41839144 -0.02528366 2.8366401 -0.06127361 4.25445557 -0.10894775 C12.50508377 -0.35881678 18.10321113 0.08515548 24.31655884 5.81088257 C27.75404083 9.49026868 30.396007 13.37073444 33.03384399 17.64901733 C33.53142212 18.42761108 34.02900024 19.20620483 34.54165649 20.00839233 C37.50598865 24.92071419 39.22386677 28.85332277 39.03384399 34.64901733 C36.90884399 37.58651733 36.90884399 37.58651733 35.49209595 39.04672241 C30.33854229 44.70933293 27.83337854 52.38423108 25.47134399 59.52401733 C24.86622483 61.30017814 24.26075948 63.07622104 23.65493774 64.85214233 C23.37247192 65.68938843 23.0900061 66.52663452 22.79898071 67.38925171 C21.29199791 71.83999607 19.6816758 76.24882879 18.03384399 80.64901733 C17.67902954 81.61025513 17.67902954 81.61025513 17.31704712 82.59091187 C3.25549572 120.53819147 3.25549572 120.53819147 -4.96615601 124.64901733 C-9.50235036 125.01867958 -11.95963142 124.49655762 -15.71615601 121.96151733 C-16.65072632 121.3337439 -17.58529663 120.70597046 -18.54818726 120.05917358 C-25.75228852 115.01388447 -32.8845697 109.86467322 -39.96615601 104.64901733 C-40.70744751 104.15627319 -41.44873901 103.66352905 -42.2124939 103.15585327 C-42.79120239 102.65859741 -43.36991089 102.16134155 -43.96615601 101.64901733 C-43.96615601 100.65901733 -43.96615601 99.66901733 -43.96615601 98.64901733 C-36.93942085 99.1524572 -29.94674692 99.69089701 -22.96615601 100.64901733 C-16.10246232 90.57851595 -12.55029905 79.22130104 -8.96615601 67.64901733 C-8.49580933 66.15024048 -8.49580933 66.15024048 -8.01596069 64.6211853 C-5.29045312 55.57347813 -3.61782196 46.59213467 -2.21615601 37.27401733 C-1.99431078 35.84420376 -1.77165802 34.41451525 -1.54818726 32.98495483 C-1.01157824 29.54102566 -0.48573562 26.09556208 0.03384399 22.64901733 C-14.06082999 23.04591406 -28.01693288 23.47866993 -41.96615601 25.64901733 C-41.18240601 26.43276733 -40.39865601 27.21651733 -39.59115601 28.02401733 C-38.04948934 29.565684 -36.50782267 31.10735067 -34.96615601 32.64901733 C-35.1832501 42.41825168 -40.47686285 52.16924136 -44.96615601 60.64901733 C-43.97615601 61.42245483 -43.97615601 61.42245483 -42.96615601 62.21151733 C-39.88017844 64.7188741 -36.86511883 67.28119647 -33.90365601 69.93417358 C-32.30332631 71.35059442 -30.64175991 72.69749757 -28.96615601 74.02401733 C-26.45765147 77.31642954 -26.24934664 79.42759168 -26.46615601 83.49276733 C-27.26614853 86.94273511 -29.22208595 88.55829729 -31.96615601 90.64901733 C-36.36319226 92.84753546 -41.25202573 92.63826624 -45.96615601 91.64901733 C-50.17729691 88.74846069 -53.52492059 85.44250519 -56.96615601 81.64901733 C-57.36407349 82.07722778 -57.76199097 82.50543823 -58.17196655 82.94662476 C-59.9982319 84.91082154 -61.82593248 86.87367738 -63.65365601 88.83651733 C-64.59241577 89.84682007 -64.59241577 89.84682007 -65.55014038 90.87753296 C-78.20091656 104.45559116 -91.86450441 116.05092979 -108.96615601 123.64901733 C-110.28615601 123.64901733 -111.60615601 123.64901733 -112.96615601 123.64901733 C-112.46505642 119.264396 -110.98320486 116.84891763 -107.96615601 113.64901733 C-107.30615601 113.64901733 -106.64615601 113.64901733 -105.96615601 113.64901733 C-105.69803101 113.05733765 -105.42990601 112.46565796 -105.15365601 111.85604858 C-103.95585361 109.62986978 -102.70679109 108.15665258 -100.96615601 106.33651733 C-91.23717632 95.39394351 -82.60855222 81.57620598 -77.96615601 67.64901733 C-80.50420279 66.18406397 -83.04625318 64.72697411 -85.59115601 63.27401733 C-86.66043335 62.65526733 -86.66043335 62.65526733 -87.75131226 62.02401733 C-91.74196178 59.75410659 -95.52345363 57.92436723 -99.96615601 56.64901733 C-99.96615601 55.98901733 -99.96615601 55.32901733 -99.96615601 54.64901733 C-96.84772351 53.60953983 -94.69140014 53.53406895 -91.42318726 53.55136108 C-90.35004272 53.55458374 -89.27689819 53.5578064 -88.17123413 53.56112671 C-87.05168335 53.56950562 -85.93213257 53.57788452 -84.77865601 53.58651733 C-83.08192749 53.59328491 -83.08192749 53.59328491 -81.35092163 53.60018921 C-78.55594674 53.61198235 -75.7610778 53.62844083 -72.96615601 53.64901733 C-71.1846035 47.57907733 -69.62007419 41.81189547 -69.27865601 35.46151733 C-69.21291382 34.35421265 -69.14717163 33.24690796 -69.07943726 32.10604858 C-69.04205444 31.29522827 -69.00467163 30.48440796 -68.96615601 29.64901733 C-90.63559658 33.9515577 -90.63559658 33.9515577 -110.34115601 43.46151733 C-115.27664708 46.81331237 -120.59037157 47.26872655 -126.39193726 46.20370483 C-132.97680815 44.27804511 -137.88939459 40.98758339 -141.27865601 34.89901733 C-143.21617969 30.66068426 -144.01714071 26.30901914 -143.96615601 21.64901733 C-142.21734045 19.90020178 -139.84490433 20.43736571 -137.49765015 20.30795288 C-125.39518235 19.54812006 -113.81674935 17.01675326 -102.02865601 14.33651733 C-85.07606036 10.50082293 -68.18990699 7.07695702 -50.96615601 4.64901733 C-50.29320496 4.55298218 -49.62025391 4.45694702 -48.9269104 4.35800171 C-32.68096429 2.05148722 -16.41981739 0.27487799 0 0 Z " fill="#000000" transform="translate(162.96615600585938,-0.649017333984375)"/>
<path d="M0 0 C3.28379125 0.27364927 4.63551028 0.57266722 6.8125 3.125 C7.534375 4.07375 8.25625 5.0225 9 6 C19.65450322 16.41596956 32.05688562 24.74554223 45 32 C45.68642578 32.38575195 46.37285156 32.77150391 47.08007812 33.16894531 C61.75036449 41.34084816 76.82111694 47.45597534 93 52 C93.89589844 52.26184082 94.79179687 52.52368164 95.71484375 52.79345703 C103.09980535 54.82214658 109.98120297 55.51882709 117.625 55.5 C118.67945313 55.52835938 119.73390625 55.55671875 120.8203125 55.5859375 C129.32100767 55.60697882 136.03664386 53.55685807 142.4375 47.8125 C145.73402818 41.87874928 147.3397642 35.79528394 147 29 C147.33 28.34 147.66 27.68 148 27 C163.40064892 31.70575384 174.82750878 39.8892238 183 54 C183.66 54.99 184.32 55.98 185 57 C186.00356373 62.10208736 186.26666743 66.93881623 183.48046875 71.47265625 C181.13856118 73.93622136 178.71704504 75.95574707 176 78 C174.95972656 78.78503906 173.91945312 79.57007813 172.84765625 80.37890625 C159.35507736 89.88548007 145.49955778 92.92091545 129.25 92.625 C128.51286774 92.61890717 127.77573547 92.61281433 127.01626587 92.60653687 C114.80228091 92.48856959 103.55688879 91.07248218 92 87 C90.2365625 86.42378906 90.2365625 86.42378906 88.4375 85.8359375 C50.78913788 72.53230954 19.70169118 43.74480862 1 9 C0.59007813 8.26523438 0.18015625 7.53046875 -0.2421875 6.7734375 C-1.30929309 4.27619039 -0.70996404 2.55587055 0 0 Z " fill="#000000" transform="translate(65,158)"/>
<path d="M0 0 C2.18017578 0.35913086 2.18017578 0.35913086 4 1 C4.89093675 4.55747279 5.00220256 7.01163212 4.125 10.5625 C2.14341983 19.70722473 1.89665134 28.86044008 1.8125 38.1875 C1.79944824 39.01878418 1.78639648 39.85006836 1.77294922 40.70654297 C1.76396916 47.17346501 1.8814854 54.17531386 5.875 59.5 C7.98127159 60.98677994 9.46422538 61.63774648 12 62 C11.88756399 65.71038824 10.65344023 67.70291277 8.1875 70.3125 C-0.78452039 78.74804906 -10.17653886 84.59889509 -22.703125 84.23828125 C-25.96926313 83.89944719 -27.59367547 83.26477603 -30 81 C-34.04459196 75.01812933 -34.67459018 69.46254833 -34.5625 62.375 C-34.55299316 61.4065918 -34.54348633 60.43818359 -34.53369141 59.44042969 C-34.17855318 47.11117996 -29.89059829 37.15376709 -23 27 C-22.29101562 25.92105469 -21.58203125 24.84210938 -20.8515625 23.73046875 C-16.44457227 17.18333104 -11.6349065 11.21852901 -6.125 5.5625 C-5.3040686 4.70144653 -5.3040686 4.70144653 -4.46655273 3.82299805 C-2.8828125 2.25390625 -2.8828125 2.25390625 0 0 Z " fill="#000000" transform="translate(34,148)"/>
<path d="M0 0 C4.48147493 0.48660498 6.24158052 1.9068073 9.3125 5.125 C13.61556025 9.1961588 17.65370061 11.44703165 23.0625 13.625 C31.79695531 17.17305486 39.43181962 21.36001604 44.18359375 29.88671875 C45.63702172 33.64894139 45.93191115 37.06943924 45 41 C42.05176306 44.98879115 38.68852783 47.40766979 34 49 C27.89452806 49.64546584 23.6495258 48.20762914 18.75 44.5625 C13.91134246 40.31540247 10.85390359 35.72586987 8 30 C7.63390625 29.32710937 7.2678125 28.65421875 6.890625 27.9609375 C2.79341961 19.79804368 0 9.10225946 0 0 Z " fill="#000000" transform="translate(110,132)"/>
<path d="M0 0 C9.28518209 3.7105221 17.4153023 9.55021626 21.54296875 18.81640625 C23.07858604 23.17835364 23.45846111 26.30452437 22.04296875 30.81640625 C19.60878619 34.72848536 17.52843285 36.69504022 13.04296875 37.81640625 C7.41298595 38.26323028 3.83932235 38.0820087 -0.95703125 34.81640625 C-6.84690899 29.59770063 -10.03400671 23.11517299 -13.28125 16.0859375 C-16.13463512 10.51884345 -19.35842766 7.28780093 -24.56640625 4.02734375 C-25.0253125 3.62773437 -25.48421875 3.228125 -25.95703125 2.81640625 C-25.95703125 1.82640625 -25.95703125 0.83640625 -25.95703125 -0.18359375 C-19.65733818 -3.33344029 -6.71277181 -1.85672412 0 0 Z " fill="#000000" transform="translate(191.95703125,139.18359375)"/>
</svg>
