<?xml version="1.0" standalone="no"?>
<!DOCTYPE svg PUBLIC "-//W3C//DTD SVG 20010904//EN"
 "http://www.w3.org/TR/2001/REC-SVG-20010904/DTD/svg10.dtd">
<svg version="1.0" xmlns="http://www.w3.org/2000/svg"
 width="300.000000pt" height="300.000000pt" viewBox="0 0 300.000000 300.000000"
 preserveAspectRatio="xMidYMid meet">

<g transform="translate(0.000000,300.000000) scale(0.100000,-0.100000)"
fill="#000000" stroke="none">
<path d="M580 2685 l0 -315 -245 0 -245 0 0 -120 0 -120 245 0 245 0 0 -24 c0
-51 -33 -196 -71 -311 -76 -229 -235 -507 -422 -737 l-86 -107 90 -118 c50
-65 94 -119 98 -121 11 -4 130 150 210 273 40 61 97 159 127 218 l54 109 0
-656 0 -656 130 0 130 0 0 725 c0 422 4 725 9 725 10 0 190 -199 224 -248 12
-18 26 -30 30 -29 5 1 37 67 70 146 l62 144 -77 72 c-43 39 -131 107 -198 150
l-120 79 0 183 0 183 205 0 205 0 0 120 0 120 -202 2 -203 3 -3 278 c-1 176 1
277 7 277 6 0 16 10 22 22 21 39 -9 48 -158 48 l-133 0 0 -315z"/>
<path d="M1360 1636 l0 -1244 -47 -10 c-27 -6 -76 -14 -109 -17 -34 -4 -66
-10 -72 -14 -7 -4 3 -55 32 -153 24 -80 47 -151 51 -157 8 -15 35 4 35 25 0
20 25 30 135 53 179 39 497 118 625 156 69 21 133 40 143 42 9 3 17 10 17 15
0 13 -51 191 -59 204 -4 8 -74 -3 -231 -37 -124 -26 -235 -48 -248 -48 l-22
-1 2 497 3 498 112 3 c110 3 113 2 117 -20 3 -13 12 -61 21 -108 96 -510 352
-906 757 -1172 88 -59 234 -135 242 -128 2 3 33 64 69 135 l65 130 -86 45
c-122 64 -305 188 -386 262 -38 34 -96 96 -128 137 -48 60 -57 76 -46 86 7 7
97 69 200 138 144 96 196 126 225 129 62 5 54 27 -52 146 -54 59 -100 108
-104 110 -3 1 -89 -72 -191 -163 -102 -90 -188 -164 -192 -165 -13 0 -49 69
-74 142 -22 66 -64 251 -64 284 0 11 34 14 190 14 l190 0 0 -25 0 -25 125 0
125 0 0 740 0 740 -685 0 -685 0 0 -1244z m1120 829 l0 -165 -432 2 -433 3 -3
163 -2 162 435 0 435 0 0 -165z m0 -590 l0 -175 -432 2 -433 3 -3 160 c-1 87
0 165 2 172 4 10 94 13 436 13 l430 0 0 -175z"/>
</g>
</svg>
