<?xml version="1.0" encoding="UTF-8"?>
<svg version="1.1" xmlns="http://www.w3.org/2000/svg" width="418" height="417">
<path d="M0 0 C137.94 0 275.88 0 418 0 C418 137.61 418 275.22 418 417 C280.06 417 142.12 417 0 417 C0 279.39 0 141.78 0 0 Z " fill="#D37EF3" transform="translate(0,0)"/>
<path d="M0 0 C137.94 0 275.88 0 418 0 C418 137.61 418 275.22 418 417 C280.06 417 142.12 417 0 417 C0 352.32 0 287.64 0 221 C0.33 221 0.66 221 1 221 C1.05422119 221.62116699 1.10844238 222.24233398 1.16430664 222.88232422 C6.19608611 277.57731737 31.33469063 328.40459172 73.12353516 364.44384766 C100.79926108 387.39532789 135.74483855 404.8386186 171.5 410.125 C172.4590625 410.27195312 173.418125 410.41890625 174.40625 410.5703125 C185.24759631 411.86656043 196.03018487 412.24004353 206.9375 412.25 C207.70801697 412.25100708 208.47853394 412.25201416 209.2723999 412.25305176 C221.74413924 412.24206657 233.74953517 411.48283363 246 409 C246.69512695 408.87141602 247.39025391 408.74283203 248.10644531 408.61035156 C298.81784212 399.15160503 345.79464982 367.18865328 375 325 C375.51256348 324.26201172 376.02512695 323.52402344 376.55322266 322.76367188 C391.03208316 301.60958085 401.01826188 277.68975553 406.8125 252.75 C407.00755127 251.91210938 407.20260254 251.07421875 407.40356445 250.2109375 C410.25611372 237.12469471 411.33753481 224.13658606 411.26074219 210.77319336 C411.25001999 208.56661423 411.26072101 206.36085175 411.2734375 204.15429688 C411.28274068 193.97506451 410.38122187 184.07902321 409 174 C408.8654541 172.95013916 408.7309082 171.90027832 408.59228516 170.81860352 C404.64812336 141.22051064 390.83578603 110.71846633 373 87 C372.24460937 85.96101563 371.48921875 84.92203125 370.7109375 83.8515625 C339.95771035 42.11866031 291.44382254 12.24089182 239.99609375 4.35546875 C186.57685187 -3.12438179 131.09509817 7.20674648 87.0625 39.5 C84.68014428 41.29903148 82.33383041 43.13859671 80 45 C79.46391113 45.4218457 78.92782227 45.84369141 78.37548828 46.27832031 C63.93492631 57.72613456 50.59013733 70.89754329 40 86 C39.60828613 86.54205078 39.21657227 87.08410156 38.81298828 87.64257812 C15.94849655 119.35339591 4.63323515 155.40303035 1 194 C0.67 194 0.34 194 0 194 C0 129.98 0 65.96 0 0 Z " fill="#FDFDFD" transform="translate(0,0)"/>
<path d="M0 0 C43.69664609 -0.77253739 89.17339454 11.82654719 124.47265625 38.125 C125.28041504 38.72513916 125.28041504 38.72513916 126.10449219 39.33740234 C168.51116163 71.08870999 200.74005112 118.47901623 208.59765625 171.625 C208.74460937 172.5840625 208.8915625 173.543125 209.04296875 174.53125 C210.33672892 185.35178957 210.71269413 196.11359833 210.72265625 207 C210.72366333 207.7685733 210.72467041 208.53714661 210.72570801 209.32901001 C210.71441488 222.12794832 209.96546431 234.5404283 207.47265625 247.125 C207.34407227 247.80336914 207.21548828 248.48173828 207.08300781 249.18066406 C199.63678347 287.0559884 179.9426844 321.47128297 153.47265625 349.125 C152.95219727 349.67800781 152.43173828 350.23101562 151.89550781 350.80078125 C118.36702997 386.31331128 68.33088093 410.59576025 19.18701172 412.3137207 C15.5395342 412.39771494 11.89411754 412.40670693 8.24584961 412.38574219 C6.03927048 412.37501999 3.833508 412.38572101 1.62695312 412.3984375 C-53.25954153 412.45165266 -102.06415435 389.26014513 -141.52734375 352.125 C-142.18605469 351.50882812 -142.84476563 350.89265625 -143.5234375 350.2578125 C-166.55121549 328.02776354 -183.0043987 297.43684579 -192.52734375 267.125 C-192.78789551 266.30435059 -193.04844727 265.48370117 -193.31689453 264.63818359 C-208.42198691 216.12847606 -203.41601757 162.75032583 -181.52734375 117.125 C-181.13675781 116.30805664 -180.74617188 115.49111328 -180.34375 114.64941406 C-165.93631467 84.97245915 -143.3815289 58.32094146 -116.52734375 39.125 C-115.97111328 38.71910645 -115.41488281 38.31321289 -114.84179688 37.89501953 C-91.40852446 20.92401554 -64.7725439 9.86607684 -36.52734375 4.125 C-35.76405762 3.96660645 -35.00077148 3.80821289 -34.21435547 3.64501953 C-22.80268266 1.3155438 -11.62464485 0.41194755 0 0 Z M-43.52734375 17.125 C-44.42195312 17.35493652 -45.3165625 17.58487305 -46.23828125 17.82177734 C-76.01705709 25.53391266 -102.5244189 40.920231 -125.52734375 61.125 C-126.44902344 61.92292969 -127.37070313 62.72085938 -128.3203125 63.54296875 C-133.50057386 68.09626958 -138.121935 72.82723766 -142.52734375 78.125 C-143.28660156 78.99640625 -144.04585937 79.8678125 -144.828125 80.765625 C-159.98550097 98.39815568 -171.98369709 119.10233103 -179.52734375 141.125 C-179.77822754 141.85444824 -180.02911133 142.58389648 -180.28759766 143.33544922 C-182.26440942 149.20727612 -183.97327614 155.12803566 -185.52734375 161.125 C-185.84928711 162.35162354 -185.84928711 162.35162354 -186.17773438 163.60302734 C-192.92992054 190.72430844 -191.94868037 223.06155846 -185.52734375 250.125 C-185.20588379 251.49060059 -185.20588379 251.49060059 -184.87792969 252.88378906 C-172.96801396 301.68497213 -141.32865529 346.02309575 -98.43603516 372.41162109 C-52.84979084 399.45569899 1.41546638 409.06460085 53.18896484 395.85205078 C85.50664755 387.00998235 117.17683985 370.530141 140.47265625 346.125 C145.47265625 341.125 145.47265625 341.125 146.94921875 339.75390625 C174.57878417 313.49927181 191.74205043 274.24722689 197.47265625 237.125 C197.58689941 236.45903809 197.70114258 235.79307617 197.81884766 235.10693359 C202.44403543 207.89712524 199.99169883 179.54983668 192.47265625 153.125 C192.29508789 152.48288574 192.11751953 151.84077148 191.93457031 151.17919922 C178.70864387 103.7568266 145.36203596 61.64196911 102.53515625 37.4375 C88.67228106 29.79142131 74.52139073 24.03372345 59.47265625 19.125 C58.24546875 18.72152344 57.01828125 18.31804688 55.75390625 17.90234375 C39.08670548 12.78146314 22.25216429 11.5409728 4.91015625 11.625 C3.4715625 11.62714508 3.4715625 11.62714508 2.00390625 11.6293335 C-13.69541959 11.68707079 -28.31991996 12.97527971 -43.52734375 17.125 Z " fill="#050308" transform="translate(201.52734375,0.875)"/>
<path d="M0 0 C10.02759415 10.02759415 14.119292 20.45769771 14.19970703 34.5078125 C13.97734736 45.52086247 8.77631294 54.76429349 1.15625 62.4921875 C-6.454765 69.44588756 -15.60662985 73.21149216 -25.9375 73.125 C-26.64269775 73.11936035 -27.34789551 73.1137207 -28.07446289 73.10791016 C-39.47270436 72.84432174 -47.64121931 68.86577796 -56 61.25 C-64.41138311 51.87731597 -68.92366108 41.93034051 -68.5 29.03515625 C-66.74497484 16.55253977 -61.30218025 6.71009289 -51.7578125 -1.39453125 C-35.34316607 -12.84486972 -15.95992154 -10.95288733 0 0 Z " fill="#624796" transform="translate(233.1875,175.1875)"/>
<path d="M0 0 C5.0023543 0.55496072 9.01538391 2.21328044 13.4375 4.5 C14.13198242 4.85457275 14.82646484 5.20914551 15.54199219 5.57446289 C43.13719759 19.8623833 67.65339444 39.83659908 86 65 C86.41991211 65.57556641 86.83982422 66.15113281 87.27246094 66.74414062 C117.43621988 108.70496688 128.98692979 160.91519825 120.8984375 211.83203125 C120.60279347 213.55534983 120.30350116 215.2780478 120 217 C119.87141602 217.77134277 119.74283203 218.54268555 119.61035156 219.33740234 C113.78003108 253.31793429 96.18021364 284.88425113 73.42773438 310.38134766 C71.88767674 312.12734323 70.38778456 313.90401354 68.88671875 315.68359375 C66.77094601 318.15798364 64.62194188 320.3995682 62.125 322.5 C59.13124907 325.03491012 59.13124907 325.03491012 56.203125 327.64453125 C17.56085228 362.90147666 -33.77252213 376.71770239 -85 375 C-126.48650189 373.08766125 -168.28653152 355.86030474 -199 328 C-199.90234375 327.2059375 -200.8046875 326.411875 -201.734375 325.59375 C-204.18520059 323.42514069 -206.600495 321.22514651 -209 319 C-209.66257813 318.3915625 -210.32515625 317.783125 -211.0078125 317.15625 C-216.89680219 311.52952301 -221.79852266 305.15705099 -226.71435547 298.68701172 C-227.83993514 297.21003574 -228.98301522 295.74643013 -230.12890625 294.28515625 C-236.3848809 286.08287838 -241.15673332 277.07680068 -246 268 C-246.5878125 266.91976563 -247.175625 265.83953125 -247.78125 264.7265625 C-250.35321429 259.85411905 -250.35321429 259.85411905 -251 258 C-250.67 257.01 -250.34 256.02 -250 255 C-246 260.625 -246 260.625 -246 264 C-245.34 264.33 -244.68 264.66 -244 265 C-244 266.32 -244 267.64 -244 269 C-243.34 269 -242.68 269 -242 269 C-241.731875 269.721875 -241.46375 270.44375 -241.1875 271.1875 C-240.05967316 274.04679724 -240.05967316 274.04679724 -238.375 276.6875 C-237 279 -237 279 -237 281 C-236.34 281 -235.68 281 -235 281 C-234.70867187 281.56847656 -234.41734375 282.13695312 -234.1171875 282.72265625 C-231.60331691 287.45790306 -228.93627789 291.46145301 -225.3515625 295.44140625 C-222.61727694 298.59452746 -220.80018531 302.26115358 -219 306 C-218.34 306 -217.68 306 -217 306 C-217 306.66 -217 307.32 -217 308 C-216.34 308 -215.68 308 -215 308 C-213.4140625 309.609375 -213.4140625 309.609375 -211.625 311.75 C-209.66242273 314.06903702 -207.7411705 316.25219284 -205.5625 318.375 C-204 320 -204 320 -204 322 C-203.01 322 -202.02 322 -201 322 C-201 322.66 -201 323.32 -201 324 C-199.68 324.66 -198.36 325.32 -197 326 C-197 326.66 -197 327.32 -197 328 C-196.34 328 -195.68 328 -195 328 C-195 328.66 -195 329.32 -195 330 C-194.41734375 330.11472656 -193.8346875 330.22945313 -193.234375 330.34765625 C-190.83476865 331.04824062 -189.27139067 331.98192595 -187.25 333.4375 C-186.32960937 334.08525391 -186.32960937 334.08525391 -185.390625 334.74609375 C-184.93171875 335.15988281 -184.4728125 335.57367188 -184 336 C-184 336.66 -184 337.32 -184 338 C-182.9790625 338.3403125 -182.9790625 338.3403125 -181.9375 338.6875 C-178.80836205 340.08562547 -176.36076623 341.81090901 -173.6484375 343.87890625 C-171.87939685 345.19132292 -171.87939685 345.19132292 -169 346 C-169 346.66 -169 347.32 -169 348 C-168.12359863 348.19710571 -168.12359863 348.19710571 -167.22949219 348.39819336 C-165.11408368 348.9692054 -163.3039645 349.6920858 -161.328125 350.62890625 C-160.66425781 350.94150391 -160.00039062 351.25410156 -159.31640625 351.57617188 C-158.63449219 351.90166016 -157.95257813 352.22714844 -157.25 352.5625 C-156.55261719 352.89185547 -155.85523438 353.22121094 -155.13671875 353.56054688 C-153.4229533 354.37047712 -151.71126806 355.18480638 -150 356 C-150 356.66 -150 357.32 -150 358 C-148.35 357.67 -146.7 357.34 -145 357 C-144.67 357.66 -144.34 358.32 -144 359 C-142.03233469 359.75679435 -140.02024799 360.3974699 -138 361 C-137.13503906 361.26167969 -136.27007812 361.52335937 -135.37890625 361.79296875 C-132.92125083 362.53549443 -130.46149119 363.27030893 -128 364 C-128 364.66 -128 365.32 -128 366 C-127.01 365.67 -126.02 365.34 -125 365 C-122.3125 365.4375 -122.3125 365.4375 -120 366 C-120 366.66 -120 367.32 -120 368 C-117.36 368 -114.72 368 -112 368 C-112 368.66 -112 369.32 -112 370 C-110.9275 369.79375 -109.855 369.5875 -108.75 369.375 C-104.77772149 368.97777215 -104.29610711 369.30308446 -101 371 C-98.89779816 371.34352662 -98.89779816 371.34352662 -96.70703125 371.37890625 C-95.91232422 371.41306641 -95.11761719 371.44722656 -94.29882812 371.48242188 C-93.47833984 371.50884766 -92.65785156 371.53527344 -91.8125 371.5625 C-83.12108119 371.87891881 -83.12108119 371.87891881 -82 373 C-79.05291431 373.10050242 -76.13436198 373.13869572 -73.1875 373.125 C-71.95676758 373.13080078 -71.95676758 373.13080078 -70.70117188 373.13671875 C-69.50911133 373.13478516 -69.50911133 373.13478516 -68.29296875 373.1328125 C-67.5661792 373.13168457 -66.83938965 373.13055664 -66.09057617 373.12939453 C-63.99589296 373.06389695 -63.99589296 373.06389695 -62.00219727 372.49780273 C-59.81657243 371.95439473 -57.92138284 371.88627584 -55.671875 371.90234375 C-54.87265625 371.90556641 -54.0734375 371.90878906 -53.25 371.91210938 C-52.425 371.92048828 -51.6 371.92886719 -50.75 371.9375 C-49.90953125 371.94201172 -49.0690625 371.94652344 -48.203125 371.95117188 C-46.13538599 371.96292039 -44.06768376 371.98085478 -42 372 C-42 371.34 -42 370.68 -42 370 C-41.35933594 369.95101563 -40.71867188 369.90203125 -40.05859375 369.8515625 C-34.00526504 369.32832395 -28.62366588 368.22545792 -22.8515625 366.2734375 C-21.71847656 365.89058594 -21.71847656 365.89058594 -20.5625 365.5 C-19.80324219 365.2421875 -19.04398438 364.984375 -18.26171875 364.71875 C-16.14394071 364.04574281 -14.03866622 363.50220493 -11.875 363 C-9.14056237 362.35436889 -7.01055445 361.57351485 -4.375 360.4375 C-1.17897524 359.0762302 1.56818773 358.41851369 5 358 C5 357.34 5 356.68 5 356 C6.00546875 355.58105469 7.0109375 355.16210938 8.046875 354.73046875 C12.51228542 352.81816686 16.80129177 350.5962637 21.1015625 348.34179688 C23.94700319 346.88490639 25.75429481 346 29 346 C29 345.34 29 344.68 29 344 C33.27477182 340.00731972 37.49162237 337.83612588 43 336 C43.33 335.34 43.66 334.68 44 334 C45 332 45 332 48.125 330.75 C49.07375 330.5025 50.0225 330.255 51 330 C51 329.34 51 328.68 51 328 C52.4609375 326.81640625 52.4609375 326.81640625 54.375 325.5625 C57.08590869 323.78311755 58.12796021 322.80805969 60 320 C60.66 320 61.32 320 62 320 C62 319.34 62 318.68 62 318 C62.66 318 63.32 318 64 318 C64.268125 317.41734375 64.53625 316.8346875 64.8125 316.234375 C66.01480991 313.97213399 67.33825913 312.19423682 69 310.25 C69.515625 309.63640625 70.03125 309.0228125 70.5625 308.390625 C72 307 72 307 74 307 C74 306.34 74 305.68 74 305 C75.66666667 303.33333333 77.33333333 301.66666667 79 300 C80.0828125 298.3603125 80.0828125 298.3603125 81.1875 296.6875 C81.785625 295.800625 82.38375 294.91375 83 294 C83.66 294 84.32 294 85 294 C85.2475 293.319375 85.495 292.63875 85.75 291.9375 C87.24197908 288.43134917 89.06835511 285.28379632 91 282 C91.66 282 92.32 282 93 282 C93.28875 281.278125 93.5775 280.55625 93.875 279.8125 C94.91666667 277.20833333 95.95833333 274.60416667 97 272 C97.66 272 98.32 272 99 272 C99.144375 271.4225 99.28875 270.845 99.4375 270.25 C99.95833333 268.16666667 100.47916667 266.08333333 101 264 C101.66 264 102.32 264 103 264 C103 262.68 103 261.36 103 260 C103.66 260 104.32 260 105 260 C105.12375 258.906875 105.2475 257.81375 105.375 256.6875 C106 253 106 253 108 250 C108.59070014 248.05396726 108.59070014 248.05396726 109 246 C109.64178421 242.97444588 110.20327502 241.69508748 112 239 C112.39387788 236.67612053 112.73486085 234.34206251 113 232 C113.66 232 114.32 232 115 232 C115.12375 230.741875 115.2475 229.48375 115.375 228.1875 C115.76777961 224.60759445 116.32481288 221.09967433 117 217.5625 C117.85122155 213.07939985 118.3921801 208.64116442 118.75390625 204.09375 C119 202 119 202 120 199 C120.09042299 197.6395263 120.12788514 196.2750956 120.12939453 194.91162109 C120.13254669 194.09422455 120.13569885 193.276828 120.13894653 192.43466187 C120.1369223 191.55645782 120.13489807 190.67825378 120.1328125 189.7734375 C120.13376923 188.87001617 120.13472595 187.96659485 120.13571167 187.03579712 C120.13639192 185.12770518 120.13454845 183.21961092 120.13037109 181.31152344 C120.12500824 178.37950495 120.13032771 175.44763879 120.13671875 172.515625 C120.13605819 170.66406216 120.13477747 168.81249942 120.1328125 166.9609375 C120.13584885 165.63755875 120.13584885 165.63755875 120.13894653 164.28744507 C120.52135606 160.3275799 120.52135606 160.3275799 119 157 C118.86287272 155.31485815 118.76705501 153.62633923 118.6875 151.9375 C118.02185042 142.97270318 115.81736164 134.11244683 112.80859375 125.6484375 C112 123 112 123 113 121 C112.34 121 111.68 121 111 121 C109.80712589 117.12315913 109 114.08378077 109 110 C108.34 110 107.68 110 107 110 C106.67386719 109.13117188 106.34773438 108.26234375 106.01171875 107.3671875 C105.57472656 106.21476562 105.13773437 105.06234375 104.6875 103.875 C104.25824219 102.73804688 103.82898438 101.60109375 103.38671875 100.4296875 C102.05427498 96.98489852 102.05427498 96.98489852 100.33203125 93.7578125 C99 91 99 91 99 88 C98.34 88 97.68 88 97 88 C96.32845067 86.71086513 95.66291141 85.41859796 95 84.125 C94.62875 83.40570313 94.2575 82.68640625 93.875 81.9453125 C93 80 93 80 93 78 C92.34 78 91.68 78 91 78 C90.34 76.02 89.68 74.04 89 72 C88.34 72 87.68 72 87 72 C86.34 70.02 85.68 68.04 85 66 C84.34 66 83.68 66 83 66 C83 65.34 83 64.68 83 64 C82.34 64 81.68 64 81 64 C80.67 62.68 80.34 61.36 80 60 C79.34 60 78.68 60 78 60 C75 56.53846154 75 56.53846154 75 54 C74.34 54 73.68 54 73 54 C73 53.34 73 52.68 73 52 C72.34 52 71.68 52 71 52 C71 51.34 71 50.68 71 50 C70.34 50 69.68 50 69 50 C67.84693976 48.33823672 66.69522248 46.67552332 65.55078125 45.0078125 C62.06009699 40.48838754 57.53684131 37.02456087 52.8125 33.875 C50 32 50 32 47.75 29.6875 C44.57076207 26.58051747 41.1543313 24.20147022 37.48828125 21.703125 C35.38747158 20.26520818 33.34895333 18.77619076 31.3125 17.25 C28.06230632 14.90521742 24.73067687 13.44658899 21 12 C21 11.34 21 10.68 21 10 C20.13375 9.7834375 20.13375 9.7834375 19.25 9.5625 C17.16666667 9.04166667 15.08333333 8.52083333 13 8 C13 7.34 13 6.68 13 6 C10.69 5.67 8.38 5.34 6 5 C5.67 4.01 5.34 3.02 5 2 C3.35 1.67 1.7 1.34 0 1 C0 0.67 0 0.34 0 0 Z " fill="#691CAA" transform="translate(278,27)"/>
<path d="M0 0 C2.79243144 0.02912352 5.58296699 0.02050348 8.37548828 0.00756836 C24.68839229 0.02457355 40.29591275 1.87511445 55.84814453 6.96655273 C57.26450195 7.4093457 57.26450195 7.4093457 58.70947266 7.86108398 C64.09564956 9.56277105 69.39039295 11.43524543 74.66064453 13.46655273 C73.17564453 14.45655273 73.17564453 14.45655273 71.66064453 15.46655273 C70.20658203 14.60030273 70.20658203 14.60030273 68.72314453 13.71655273 C61.06778164 9.84756538 52.08464117 8.4768348 43.70361328 6.91577148 C41.66064453 6.46655273 41.66064453 6.46655273 40.66064453 5.46655273 C28.10875968 3.2347171 15.48987988 3.18326615 2.77978516 3.26074219 C-0.39021605 3.27935131 -3.55992958 3.28124881 -6.72998047 3.28100586 C-8.74560802 3.28590989 -10.76123359 3.29173327 -12.77685547 3.29858398 C-13.72455811 3.29969681 -14.67226074 3.30080963 -15.64868164 3.30195618 C-16.51468994 3.30833603 -17.38069824 3.31471588 -18.27294922 3.32128906 C-19.03663818 3.32510086 -19.80032715 3.32891266 -20.5871582 3.33283997 C-22.36727559 3.27738856 -22.36727559 3.27738856 -23.33935547 4.46655273 C-25.23172806 4.65196405 -27.12886558 4.78965974 -29.02685547 4.90405273 C-33.47979796 5.24012387 -37.14753163 5.88297484 -41.33935547 7.46655273 C-43.4866839 7.9518247 -45.63871081 8.3894621 -47.80029297 8.80639648 C-51.42214433 9.74807784 -54.85016557 11.12311493 -58.33935547 12.46655273 C-59.71882915 12.98024863 -61.09903435 13.49198461 -62.47998047 14.00170898 C-63.15802734 14.2537207 -63.83607422 14.50573242 -64.53466797 14.76538086 C-65.9194648 15.28007246 -67.30489671 15.79305819 -68.69091797 16.30444336 C-71.40521553 17.31580519 -74.05912742 18.32214951 -76.63623047 19.65014648 C-78.33935547 20.46655273 -78.33935547 20.46655273 -81.33935547 20.46655273 C-81.83435547 21.95155273 -81.83435547 21.95155273 -82.33935547 23.46655273 C-84.77685547 24.71655273 -84.77685547 24.71655273 -87.33935547 25.46655273 C-87.99935547 25.13655273 -88.65935547 24.80655273 -89.33935547 24.46655273 C-89.33935547 25.12655273 -89.33935547 25.78655273 -89.33935547 26.46655273 C-90.15017578 26.87905273 -90.96099609 27.29155273 -91.79638672 27.71655273 C-112.60020168 38.56650513 -132.79033621 55.31484126 -146.75341797 74.31030273 C-149.22722803 77.67370952 -151.90138719 80.87447956 -154.54248047 84.10717773 C-156.3488238 86.47898507 -157.8511068 88.88505973 -159.33935547 91.46655273 C-160.35870532 93.19659434 -161.37952747 94.92576933 -162.40185547 96.65405273 C-162.90845703 97.51385742 -163.41505859 98.37366211 -163.93701172 99.25952148 C-165.33935547 101.46655273 -165.33935547 101.46655273 -167.33935547 103.46655273 C-167.48373047 104.22967773 -167.62810547 104.99280273 -167.77685547 105.77905273 C-168.42152146 108.85912359 -169.64915243 110.829836 -171.33935547 113.46655273 C-172.01141474 114.79717611 -172.67772496 116.13071319 -173.33935547 117.46655273 C-173.66935547 118.05694336 -173.99935547 118.64733398 -174.33935547 119.25561523 C-176.86236028 123.88769438 -178.0565696 128.15349486 -178.84716797 133.36499023 C-179.33935547 135.46655273 -179.33935547 135.46655273 -181.33935547 137.46655273 C-181.93146105 139.80381161 -182.44197326 142.16222439 -182.90185547 144.52905273 C-184.24213325 151.36933051 -184.24213325 151.36933051 -185.33935547 152.46655273 C-185.5463511 153.96152116 -185.70614806 155.46321193 -185.83935547 156.96655273 C-186.22824436 161.35544162 -186.22824436 161.35544162 -187.33935547 162.46655273 C-187.37118526 165.21755594 -187.27097065 167.95536179 -187.17919922 170.70483398 C-187.33935547 173.46655273 -187.33935547 173.46655273 -188.33276367 175.1652832 C-189.75556137 178.41808241 -189.62511874 181.56108138 -189.60498047 185.04858398 C-189.60689392 185.78098801 -189.60880737 186.51339203 -189.61077881 187.26799011 C-189.61213728 188.81538232 -189.60846443 190.36278606 -189.60009766 191.91015625 C-189.58943914 194.26060086 -189.59998011 196.61027315 -189.61279297 198.96069336 C-189.61147041 200.46915857 -189.60890603 201.9776233 -189.60498047 203.48608398 C-189.60902893 204.18111526 -189.61307739 204.87614655 -189.61724854 205.59223938 C-189.57374371 210.19690571 -188.72535553 214.09102193 -187.33935547 218.46655273 C-187.11781042 220.23136045 -186.94711824 222.00366104 -186.83935547 223.77905273 C-186.2281819 231.59564103 -184.57802596 238.96042227 -182.33935547 246.46655273 C-182.12408203 247.3340918 -181.90880859 248.20163086 -181.68701172 249.09545898 C-180.57239487 253.52380161 -179.54639225 257.46112912 -177.08935547 261.34155273 C-175.33935547 264.46655273 -175.33935547 264.46655273 -175.58935547 267.40405273 C-175.83685547 268.08467773 -176.08435547 268.76530273 -176.33935547 269.46655273 C-181.3805483 261.90476349 -183.5833742 252.05749798 -185.96435547 243.34155273 C-186.25499878 242.31674805 -186.25499878 242.31674805 -186.55151367 241.27124023 C-190.71598897 225.48042404 -191.89583061 209.41787831 -191.77685547 193.15405273 C-191.77381409 192.26368317 -191.77077271 191.3733136 -191.76763916 190.45596313 C-191.69726034 176.47325495 -190.89371406 163.05263845 -187.33935547 149.46655273 C-187.11973145 148.60916504 -186.90010742 147.75177734 -186.67382812 146.8684082 C-178.53521085 115.9094076 -163.25523669 84.0719911 -139.74560547 61.83764648 C-138.16243536 60.35728373 -138.16243536 60.35728373 -136.40185547 57.96655273 C-134.07767226 55.14936096 -131.55615147 52.89722323 -128.77685547 50.53686523 C-127.00713517 49.03373742 -125.25988614 47.50402592 -123.52685547 45.95874023 C-99.92462397 25.09305405 -70.89324177 11.47994488 -40.33935547 4.46655273 C-39.15974998 4.19498856 -39.15974998 4.19498856 -37.95631409 3.91793823 C-25.22839445 1.06372657 -13.03649228 -0.14764772 0 0 Z " fill="#6A1BAD" transform="translate(203.33935546875,12.533447265625)"/>
<path d="M0 0 C0.33 0 0.66 0 1 0 C1.01981934 0.90242432 1.03963867 1.80484863 1.06005859 2.73461914 C1.13855165 6.11003758 1.22525668 9.48504398 1.31738281 12.86010742 C1.35546427 14.31575518 1.390352 15.77149037 1.421875 17.22729492 C1.46798255 19.33023148 1.52589547 21.43257675 1.5859375 23.53515625 C1.6173584 24.797229 1.6487793 26.05930176 1.68115234 27.35961914 C2.01134927 31.12957809 2.8798011 34.39437697 4 38 C4.22154505 39.76480771 4.39223723 41.53710831 4.5 43.3125 C5.11117357 51.1290883 6.76132951 58.49386954 9 66 C9.21527344 66.86753906 9.43054687 67.73507812 9.65234375 68.62890625 C10.7669606 73.05724887 11.79296321 76.99457639 14.25 80.875 C16 84 16 84 15.75 86.9375 C15.5025 87.618125 15.255 88.29875 15 89 C-1.47089006 64.2936649 -0.49724412 28.3250649 0 0 Z " fill="#6C1DAF" transform="translate(12,193)"/>
<path d="M0 0 C0 5.70298375 -3.43227292 9.80267403 -7 14 C-7.91742768 15.10353444 -8.83408493 16.20770979 -9.75 17.3125 C-10.86375 18.6428125 -10.86375 18.6428125 -12 20 C-12.33 19.34 -12.66 18.68 -13 18 C-11.58564218 15.93588378 -10.16860148 13.87369683 -8.75 11.8125 C-8.35425781 11.23435547 -7.95851563 10.65621094 -7.55078125 10.06054688 C-5.16062218 6.59285708 -2.675004 3.25786037 0 0 Z " fill="#6219A1" transform="translate(54,85)"/>
<path d="M0 0 C0.33 0 0.66 0 1 0 C1.50423557 2.74928442 2.00353426 5.49931143 2.5 8.25 C2.64308594 9.02730469 2.78617188 9.80460938 2.93359375 10.60546875 C3.13662109 11.73662109 3.13662109 11.73662109 3.34375 12.890625 C3.46943359 13.58188477 3.59511719 14.27314453 3.72460938 14.98535156 C4 17 4 17 4 21 C3.34 21 2.68 21 2 21 C2 18.69 2 16.38 2 14 C1.34 14 0.68 14 0 14 C0 9.38 0 4.76 0 0 Z " fill="#190231" transform="translate(13,234)"/>
<path d="M0 0 C-2.80452702 1.51699416 -5.3857302 2.45308563 -8.5 3.125 C-9.2528125 3.29257812 -10.005625 3.46015625 -10.78125 3.6328125 C-13 4 -13 4 -17 4 C-17 3.01 -17 2.02 -17 1 C-11.27959989 0.1679418 -5.77759884 -0.12036664 0 0 Z " fill="#5E189A" transform="translate(253,396)"/>
<path d="M0 0 C-4.76794031 2.46617602 -8.30342326 3.11580769 -13.6875 3.0625 C-15.45673828 3.04896484 -15.45673828 3.04896484 -17.26171875 3.03515625 C-18.16535156 3.02355469 -19.06898438 3.01195312 -20 3 C-20 2.67 -20 2.34 -20 2 C-13.25846717 0.74158054 -6.86515862 -0.26404456 0 0 Z " fill="#5C1B96" transform="translate(192,13)"/>
<path d="M0 0 C0.66 0 1.32 0 2 0 C1.71617054 1.75128818 1.42260471 3.50100003 1.125 5.25 C0.96257812 6.22453125 0.80015625 7.1990625 0.6328125 8.203125 C0.05144152 10.77264117 -0.70840265 12.72071056 -2 15 C-2.66 15 -3.32 15 -4 15 C-3.45276317 11.62537285 -2.9451 9.91765 -1 7 C-0.60612212 4.67612053 -0.26513915 2.34206251 0 0 Z " fill="#6F1BB5" transform="translate(391,259)"/>
<path d="M0 0 C-1.32 0.33 -2.64 0.66 -4 1 C-4 1.66 -4 2.32 -4 3 C-7.47325181 4.1577506 -10.36067448 4.06866652 -14 4 C-11.37350692 2.24900461 -9.38191413 1.30690675 -6.4375 0.3125 C-5.65246094 0.04050781 -4.86742187 -0.23148438 -4.05859375 -0.51171875 C-2 -1 -2 -1 0 0 Z " fill="#61199E" transform="translate(152,21)"/>
<path d="M0 0 C4.05281712 1.22527029 7.44360764 2.69880494 11 5 C10.67 5.99 10.34 6.98 10 8 C8.33055479 6.85821872 6.6645052 5.71147095 5 4.5625 C4.071875 3.92441406 3.14375 3.28632813 2.1875 2.62890625 C1.465625 2.09136719 0.74375 1.55382812 0 1 C0 0.67 0 0.34 0 0 Z " fill="#611B9F" transform="translate(91,364)"/>
<path d="M0 0 C1.04973814 4.19895255 0.72795155 6.79405774 0 11 C-0.99 11 -1.98 11 -3 11 C-2.01 7.37 -1.02 3.74 0 0 Z " fill="#5F199B" transform="translate(21,145)"/>
<path d="M0 0 C0.66 0.33 1.32 0.66 2 1 C-1.465 3.97 -1.465 3.97 -5 7 C-3.92643531 2.70574125 -3.4915227 2.25259529 0 0 Z " fill="#661BA6" transform="translate(336,350)"/>
</svg>
