<?xml version="1.0" encoding="UTF-8" standalone="no"?>
<!-- Created with Inkscape (http://www.inkscape.org/) -->
<svg
   xmlns:svg="http://www.w3.org/2000/svg"
   xmlns="http://www.w3.org/2000/svg"
   xmlns:xlink="http://www.w3.org/1999/xlink"
   xmlns:sodipodi="http://sodipodi.sourceforge.net/DTD/sodipodi-0.dtd"
   xmlns:inkscape="http://www.inkscape.org/namespaces/inkscape"
   width="300.00021"
   height="300.00021"
   id="svg2"
   sodipodi:version="0.32"
   inkscape:version="0.46"
   sodipodi:docname="Shukaku Eye.svg"
   inkscape:output_extension="org.inkscape.output.svg.inkscape"
   version="1.0">
  <defs
     id="defs4">
    <linearGradient
       id="linearGradientShukaku">
      <stop
         style="stop-color:#f1e673;stop-opacity:1;"
         offset="0"
         id="stop3351" />
      <stop
         style="stop-color:#e2a93a;stop-opacity:1;"
         offset="1"
         id="stop3353" />
    </linearGradient>
    <filter
       inkscape:collect="always"
       id="filter3345">
      <feGaussianBlur
         inkscape:collect="always"
         stdDeviation="0.39822692"
         id="feGaussianBlur3347" />
    </filter>
    <radialGradient
       inkscape:collect="always"
       xlink:href="#linearGradientShukaku"
       id="radialGradient3355"
       cx="297.5"
       cy="439.86218"
       fx="297.5"
       fy="439.86218"
       r="12.923014"
       gradientUnits="userSpaceOnUse" />
  </defs>
  <sodipodi:namedview
     id="base"
     pagecolor="#ffffff"
     bordercolor="#666666"
     borderopacity="1.0"
     gridtolerance="10000"
     guidetolerance="10"
     objecttolerance="50"
     inkscape:pageopacity="0.0"
     inkscape:pageshadow="2"
     inkscape:zoom="1"
     inkscape:cx="200.92058"
     inkscape:cy="177.39582"
     inkscape:document-units="px"
     inkscape:current-layer="layer1"
     showgrid="false"
     inkscape:object-paths="false"
     inkscape:object-nodes="true"
     inkscape:snap-center="true"
     inkscape:snap-global="true"
     inkscape:window-width="1280"
     inkscape:window-height="930"
     inkscape:window-x="-4"
     inkscape:window-y="-4"
     showguides="true"
     inkscape:guide-bbox="true" />
  <g
     inkscape:label="Layer 1"
     inkscape:groupmode="layer"
     id="layer1"
     transform="translate(-329.72738,-428.18124)">
    <path
       sodipodi:type="arc"
       style="fill:url(#radialGradient3355);fill-opacity:1;fill-rule:nonzero;stroke:#000000;stroke-width:0.84602797;stroke-linecap:butt;stroke-linejoin:round;marker:none;marker-start:none;marker-mid:none;marker-end:none;stroke-miterlimit:4;stroke-dasharray:none;stroke-dashoffset:0;stroke-opacity:1;visibility:visible;display:inline;overflow:visible;enable-background:accumulate"
       id="Iris"
       sodipodi:cx="297.5"
       sodipodi:cy="439.86218"
       sodipodi:rx="12.5"
       sodipodi:ry="12.5"
       d="M 310,439.86218 A 12.5,12.5 0 1 1 285,439.86218 A 12.5,12.5 0 1 1 310,439.86218 z"
       transform="matrix(11.607181,0,0,11.607181,-2973.316,-4527.4713)" />
    <path
       style="opacity:1;fill:#000000;fill-opacity:1;stroke:none;stroke-width:1;stroke-linecap:butt;stroke-linejoin:round;stroke-miterlimit:4;stroke-dasharray:none;stroke-dashoffset:55.5000029;stroke-opacity:0.50196078"
       d="M 87.59297,149.90743 C 103.02947,145.34421 118.42671,139.07119 128.87977,128.69423 C 139.33283,118.31727 144.6619,103.64019 150.09297,87.40743 C 155.05499,102.66073 160.93844,118.24848 171.30617,128.69421 C 181.6739,139.13994 195.00003,145.34961 212.59297,149.90743 C 196.07384,154.06062 181.50475,160.43845 171.30617,171.12061 C 161.10759,181.80277 154.73069,196.12114 150.09297,212.40743 C 145.00443,197.10945 139.14154,181.65775 128.87977,171.12061 C 118.618,160.58347 104.47005,154.56212 87.59297,149.90743 z"
       id="Pupil"
       transform="translate(329.72738,428.18124)"
       sodipodi:nodetypes="czczczczc" />
    <path
       transform="matrix(8.6634023,0,0,8.6634023,-2097.5419,-3232.6144)"
       d="M 310,439.86218 A 12.5,12.5 0 1 1 285,439.86218 A 12.5,12.5 0 1 1 310,439.86218 z"
       sodipodi:ry="12.5"
       sodipodi:rx="12.5"
       sodipodi:cy="439.86218"
       sodipodi:cx="297.5"
       id="Middle circle"
       style="fill:none;fill-opacity:1;fill-rule:nonzero;stroke:#000000;stroke-width:1.54846131999999990;stroke-linecap:butt;stroke-linejoin:round;marker:none;marker-start:none;marker-mid:none;marker-end:none;stroke-miterlimit:4;stroke-dasharray:0.77423065000000002, 0.77423065000000002;stroke-dashoffset:5.72930708999999980;stroke-opacity:1;visibility:visible;display:inline;overflow:visible;enable-background:accumulate;filter:url(#filter3345)"
       sodipodi:type="arc" />
    <path
       sodipodi:type="arc"
       style="opacity:1;fill:#000000;fill-opacity:1;stroke:none;stroke-width:15;stroke-linecap:butt;stroke-linejoin:round;stroke-miterlimit:4;stroke-dasharray:none;stroke-dashoffset:55.5000029;stroke-opacity:1"
       id="Dot4"
       sodipodi:cx="-151.67441"
       sodipodi:cy="8.6722193"
       sodipodi:rx="15.202796"
       sodipodi:ry="13.435029"
       d="M -136.47161,8.6722193 A 15.202796,13.435029 0 1 1 -166.8772,8.6722193 A 15.202796,13.435029 0 1 1 -136.47161,8.6722193 z"
       transform="matrix(0.6577737,0,0,0.7443229,527.08769,519.13375)" />
    <path
       transform="matrix(0.6577737,0,0,0.7443229,527.08769,624.13375)"
       d="M -136.47161,8.6722193 A 15.202796,13.435029 0 1 1 -166.8772,8.6722193 A 15.202796,13.435029 0 1 1 -136.47161,8.6722193 z"
       sodipodi:ry="13.435029"
       sodipodi:rx="15.202796"
       sodipodi:cy="8.6722193"
       sodipodi:cx="-151.67441"
       id="Dot3"
       style="opacity:1;fill:#000000;fill-opacity:1;stroke:none;stroke-width:15;stroke-linecap:butt;stroke-linejoin:round;stroke-miterlimit:4;stroke-dasharray:none;stroke-dashoffset:55.5000029;stroke-opacity:1"
       sodipodi:type="arc" />
    <path
       sodipodi:type="arc"
       style="opacity:1;fill:#000000;fill-opacity:1;stroke:none;stroke-width:15;stroke-linecap:butt;stroke-linejoin:round;stroke-miterlimit:4;stroke-dasharray:none;stroke-dashoffset:55.5000029;stroke-opacity:1"
       id="Dot1"
       sodipodi:cx="-151.67441"
       sodipodi:cy="8.6722193"
       sodipodi:rx="15.202796"
       sodipodi:ry="13.435029"
       d="M -136.47161,8.6722193 A 15.202796,13.435029 0 1 1 -166.8772,8.6722193 A 15.202796,13.435029 0 1 1 -136.47161,8.6722193 z"
       transform="matrix(0.6577737,0,0,0.7443229,632.08769,519.13375)" />
    <path
       transform="matrix(0.6577737,0,0,0.7443229,632.08769,624.13375)"
       d="M -136.47161,8.6722193 A 15.202796,13.435029 0 1 1 -166.8772,8.6722193 A 15.202796,13.435029 0 1 1 -136.47161,8.6722193 z"
       sodipodi:ry="13.435029"
       sodipodi:rx="15.202796"
       sodipodi:cy="8.6722193"
       sodipodi:cx="-151.67441"
       id="Dot2"
       style="opacity:1;fill:#000000;fill-opacity:1;stroke:none;stroke-width:15;stroke-linecap:butt;stroke-linejoin:round;stroke-miterlimit:4;stroke-dasharray:none;stroke-dashoffset:55.5000029;stroke-opacity:1"
       sodipodi:type="arc" />
  </g>
</svg>
