<?xml version="1.0" standalone="no"?>
<!DOCTYPE svg PUBLIC "-//W3C//DTD SVG 20010904//EN"
 "http://www.w3.org/TR/2001/REC-SVG-20010904/DTD/svg10.dtd">
<svg version="1.0" xmlns="http://www.w3.org/2000/svg"
 width="320.000000pt" height="320.000000pt" viewBox="0 0 320.000000 320.000000"
 preserveAspectRatio="xMidYMid meet">

<g transform="translate(0.000000,320.000000) scale(0.100000,-0.100000)"
fill="#000000" stroke="none">
<path d="M1389 3186 c-614 -89 -1110 -499 -1304 -1080 -280 -836 172 -1741
1010 -2022 404 -135 835 -104 1219 87 671 335 1018 1090 836 1817 -153 605
-632 1059 -1249 1183 -129 26 -383 33 -512 15z m516 -116 c539 -123 946 -483
1114 -986 64 -189 85 -334 78 -534 -7 -174 -24 -273 -73 -425 -92 -279 -295
-559 -538 -740 -156 -116 -395 -218 -611 -262 -140 -28 -436 -25 -573 5 -273
61 -489 168 -690 342 -370 319 -564 832 -502 1320 71 548 441 1019 955 1213
95 36 204 64 311 82 128 21 408 13 529 -15z"/>
</g>
</svg>
