<?xml version="1.0" encoding="UTF-8" standalone="no"?>
<!-- Created with Inkscape (http://www.inkscape.org/) -->

<svg
   xmlns:svg="http://www.w3.org/2000/svg"
   xmlns="http://www.w3.org/2000/svg"
   xmlns:xlink="http://www.w3.org/1999/xlink"
   xmlns:sodipodi="http://sodipodi.sourceforge.net/DTD/sodipodi-0.dtd"
   xmlns:inkscape="http://www.inkscape.org/namespaces/inkscape"
   id="svg3347"
   sodipodi:version="0.32"
   inkscape:version="0.47 r22583"
   width="100"
   height="100"
   sodipodi:docname="Nature Icon Smoke.svg"
   inkscape:output_extension="org.inkscape.output.svg.inkscape"
   version="1.0">
  <defs
     id="defs3350">
    <linearGradient
       id="linearGradientSmoke">
      <stop
         offset="0"
         id="stopSmoke0"
         style="stop-color:#5c638a;stop-opacity:1" />
      <stop
         id="stopSmoke1"
         offset="1"
         style="stop-color:#7d6352;stop-opacity:1" />
    </linearGradient>
    <radialGradient
       gradientUnits="userSpaceOnUse"
       r="50"
       fy="49.999996"
       fx="49.999996"
       cy="49.999996"
       cx="49.999996"
       id="radialGradientSmoke"
       xlink:href="#linearGradientSmoke"
       inkscape:collect="always" />
  </defs>
  <sodipodi:namedview
     inkscape:window-height="940"
     inkscape:window-width="1280"
     inkscape:pageshadow="2"
     inkscape:pageopacity="0.0"
     guidetolerance="10.0"
     gridtolerance="10.0"
     objecttolerance="50"
     borderopacity="1.0"
     bordercolor="#666666"
     pagecolor="#ffffff"
     id="base"
     showgrid="false"
     inkscape:zoom="1"
     inkscape:cx="54.311491"
     inkscape:cy="41.550884"
     inkscape:window-x="-8"
     inkscape:window-y="-8"
     inkscape:current-layer="svg3347"
     inkscape:snap-center="true"
     inkscape:object-nodes="true"
     inkscape:window-maximized="1" />
  <path
     id="Smoke icon"
     style="fill:url(#radialGradientSmoke);fill-opacity:1;fill-rule:evenodd;stroke:#000000;stroke-width:5.6603775;stroke-linecap:butt;stroke-linejoin:miter;stroke-miterlimit:4;stroke-opacity:1;stroke-dasharray:none"
     d="m 26.414905,7.5473601 4.716983,-4.71698 37.73585,0 4.716983,4.71698 9.433962,0 0,9.4339599 9.433961,0 0,9.43396 4.716982,4.71699 0,37.73585 -4.716983,4.71698 0,9.43396 -9.43396,0 0,9.43396 -9.43396,0 -4.716985,4.71698 -37.73585,0 -4.716981,-4.71698 -9.433962,0 0,-9.43396 -9.4339621,0 0,-9.43396 -4.716983,-4.71698 0,-37.73585 4.716985,-4.71699 0,-9.43396 9.4339601,0 0,-9.4339599 9.43396,0 z"
     sodipodi:nodetypes="ccccccccccccccccccccccccccccc" />
  <path
     d="m 30.065546,21.697998 5.168192,0.492209 c 1.14847,0.16412 1.066434,0.656329 -0.246105,1.476626 l 0,13.781843 c 2.132886,-1.968798 3.937649,-4.101699 5.414295,-6.398712 l 2.953253,3.44546 9.351965,0 0,-6.398713 -10.336383,0 0,-3.937669 34.946818,0 0,3.937669 -10.828592,0 0,6.398713 9.59807,0 0,17.719513 -4.183774,0 0,-1.476626 -24.856539,0 0,2.21494 -4.183774,0 0,-17.719513 c -1.31258,2.297008 -3.93769,4.840084 -7.875339,7.629234 l 0,12.797426 c 4.101719,3.609544 7.054969,6.480759 8.859757,8.613653 l -4.183773,4.675983 C 37.858832,65.668649 36.054068,63.125573 34.24932,61.3208 33.100819,68.539863 30.393674,74.200258 26.127876,78.301999 l -3.199355,-4.675982 c 4.758008,-4.429876 7.137013,-11.484859 7.137026,-21.164974 z m 14.274052,41.099427 0,-4.675984 12.551322,0 0,-5.906504 4.675982,0 c 1.476581,2e-5 1.558617,0.492229 0.246105,1.476627 l 0,4.429877 13.535739,0 0,4.675984 -13.53574,0 0,7.875339 16.488991,0 0,4.675984 -37.653965,0 0,-4.675984 16.242887,0 0,-7.875338 z m 17.965618,-34.700714 -5.414296,0 0,6.398713 5.414296,0 z m 0,10.336383 -5.414296,0 0,8.367547 5.414296,0 z m 9.598069,0 -5.414296,0 0,8.367547 5.414296,0 z m -19.196139,0 -5.660401,0 0,8.367547 5.660401,0 z M 27.604502,34.987633 c 1.640685,0.492245 1.72272,0.984454 0.246105,1.476627 -0.164079,6.562812 -0.738322,12.141171 -1.722731,16.735096 l -4.429878,-2.707148 c 1.312552,-5.086129 1.886796,-10.664489 1.722731,-16.735095 z"
     style="font-size:50px;font-family:MS Gothic;-inkscape-font-specification:MS Gothic"
     id="Smoke kanji" />
</svg>
