<?xml version="1.0" standalone="no"?>
<!DOCTYPE svg PUBLIC "-//W3C//DTD SVG 20010904//EN"
 "http://www.w3.org/TR/2001/REC-SVG-20010904/DTD/svg10.dtd">
<svg version="1.0" xmlns="http://www.w3.org/2000/svg"
 width="100.000000pt" height="100.000000pt" viewBox="0 0 100.000000 100.000000"
 preserveAspectRatio="xMidYMid meet">

<g transform="translate(0.000000,100.000000) scale(0.100000,-0.100000)"
fill="#000000" stroke="none">
<path d="M250 955 c-40 -40 -48 -44 -99 -47 l-56 -3 -3 -56 c-3 -51 -7 -59
-47 -99 l-45 -44 0 -206 0 -206 45 -44 c40 -40 44 -48 47 -99 l3 -56 56 -3
c51 -3 59 -7 99 -47 l44 -45 206 0 206 0 44 45 c40 40 48 44 99 47 l56 3 3 56
c3 51 7 59 47 99 l45 44 0 206 0 206 -45 44 c-40 40 -44 48 -47 99 l-3 56 -56
3 c-51 3 -59 7 -99 47 l-44 45 -206 0 -206 0 -44 -45z m252 -205 l-4 -50 -54
0 c-51 0 -54 -1 -54 -25 0 -24 3 -25 55 -25 54 0 55 0 55 -30 0 -29 -2 -30
-45 -30 -51 0 -50 3 -60 -122 l-6 -78 26 0 c18 0 25 5 25 20 0 16 7 20 30 20
37 0 39 -16 9 -76 -15 -32 -32 -48 -65 -64 -35 -18 -43 -26 -39 -41 6 -18 5
-18 -24 -1 -17 9 -33 22 -35 29 -3 7 8 42 25 79 29 63 29 67 12 80 -20 15 -33
18 -33 7 0 -5 -14 -33 -32 -63 l-31 -55 -20 45 c-20 45 -33 192 -19 214 3 6 7
17 9 25 1 8 7 17 13 21 7 4 10 9 9 11 -2 2 4 15 13 28 l17 23 32 -22 32 -23
18 24 c19 24 18 24 -6 46 -21 18 -22 23 -10 33 8 7 15 9 15 5 0 -4 7 -2 16 6
9 7 41 18 72 25 32 7 57 13 57 13 0 1 -2 -21 -3 -49z m98 -11 c0 -35 -3 -39
-25 -39 -21 0 -25 5 -25 29 0 44 9 59 31 54 15 -4 19 -14 19 -44z m119 -36 c2
-2 -10 -3 -27 -3 -28 0 -32 3 -32 27 l0 26 28 -24 c15 -13 29 -25 31 -26z
m-119 -83 c0 -25 -4 -30 -25 -30 -21 0 -25 5 -25 30 0 25 4 30 25 30 21 0 25
-5 25 -30z m100 0 c0 -25 -4 -30 -25 -30 -21 0 -25 5 -25 30 0 25 4 30 25 30
21 0 25 -5 25 -30z m90 -102 l0 -38 -70 0 -70 0 0 30 c0 25 4 30 25 30 14 0
25 -5 25 -11 0 -6 12 -9 28 -7 26 3 27 6 30 63 l4 60 14 -45 c7 -25 14 -62 14
-82z m-290 -8 c0 -25 -4 -30 -25 -30 -21 0 -25 5 -25 30 0 25 4 30 25 30 21 0
25 -5 25 -30z m100 0 c0 -25 -4 -30 -25 -30 -21 0 -25 5 -25 30 0 25 4 30 25
30 21 0 25 -5 25 -30z m0 -184 c0 -120 4 -116 -115 -115 l-70 0 30 22 c62 46
84 77 97 138 10 51 15 59 35 59 23 0 23 -2 23 -104z m130 75 c0 -42 -10 -61
-31 -61 -23 0 -27 -47 -5 -52 10 -2 7 -8 -10 -21 l-24 -18 0 38 c0 21 -3 62
-6 91 l-7 52 42 0 c39 0 41 -2 41 -29z"/>
<path d="M252 607 c-23 -30 -20 -37 27 -70 l49 -35 12 24 c15 28 6 42 -45 73
-25 15 -36 17 -43 8z"/>
</g>
</svg>
