<?xml version="1.0" standalone="no"?>
<!DOCTYPE svg PUBLIC "-//W3C//DTD SVG 20010904//EN"
 "http://www.w3.org/TR/2001/REC-SVG-20010904/DTD/svg10.dtd">
<svg version="1.0" xmlns="http://www.w3.org/2000/svg"
 width="18.000000pt" height="18.000000pt" viewBox="0 0 18.000000 18.000000"
 preserveAspectRatio="xMidYMid meet">

<g transform="translate(0.000000,18.000000) scale(0.100000,-0.100000)"
fill="#000000" stroke="none">
<path d="M0 90 l0 -90 90 0 90 0 0 90 0 90 -90 0 -90 0 0 -90z m86 29 c4 -8 9
-7 15 2 6 9 9 1 10 -26 1 -39 2 -39 9 -10 l8 30 1 -32 c1 -29 -2 -33 -24 -33
-17 0 -25 6 -26 18 0 15 -1 14 -8 -2 -7 -19 -8 -19 -13 2 -11 42 10 80 28 51z"/>
</g>
</svg>
