<?xml version="1.0" standalone="no"?>
<!DOCTYPE svg PUBLIC "-//W3C//DTD SVG 20010904//EN"
 "http://www.w3.org/TR/2001/REC-SVG-20010904/DTD/svg10.dtd">
<svg version="1.0" xmlns="http://www.w3.org/2000/svg"
 width="18.000000pt" height="18.000000pt" viewBox="0 0 18.000000 18.000000"
 preserveAspectRatio="xMidYMid meet">

<g transform="translate(0.000000,18.000000) scale(0.100000,-0.100000)"
fill="#000000" stroke="none">
<path d="M0 90 l0 -90 90 0 90 0 0 90 0 90 -90 0 -90 0 0 -90z m108 43 c-10
-2 -26 -2 -35 0 -10 3 -2 5 17 5 19 0 27 -2 18 -5z m-42 -52 c-13 -20 -26 -11
-26 16 0 25 1 26 16 11 9 -9 13 -21 10 -27z m38 15 c-3 -13 -1 -27 5 -30 21
-13 11 -26 -19 -26 -32 0 -36 6 -20 30 8 13 10 12 10 -3 0 -10 5 -15 10 -12 7
4 7 12 0 25 -13 24 -13 33 0 25 6 -3 10 -1 10 4 0 6 2 11 5 11 3 0 3 -11 -1
-24z m33 -23 c-4 -17 -4 -17 -12 0 -4 9 -4 25 0 35 8 16 8 16 12 0 3 -10 3
-26 0 -35z"/>
</g>
</svg>
