<?xml version="1.0" standalone="no"?>
<!DOCTYPE svg PUBLIC "-//W3C//DTD SVG 20010904//EN"
 "http://www.w3.org/TR/2001/REC-SVG-20010904/DTD/svg10.dtd">
<svg version="1.0" xmlns="http://www.w3.org/2000/svg"
 width="314.000000pt" height="314.000000pt" viewBox="0 0 314.000000 314.000000"
 preserveAspectRatio="xMidYMid meet">

<g transform="translate(0.000000,314.000000) scale(0.100000,-0.100000)"
fill="#000000" stroke="none">
<path d="M0 1570 l0 -1570 1570 0 1570 0 0 1570 0 1570 -1570 0 -1570 0 0
-1570z m2298 -727 l-723 -723 -722 722 -723 723 722 722 723 723 722 -722 723
-723 -722 -722z m-1508 1512 c-189 -189 -346 -343 -348 -341 -7 7 81 171 131
246 62 91 209 240 297 301 67 45 237 138 255 139 5 0 -145 -155 -335 -345z
m1480 212 c96 -65 242 -211 307 -307 28 -41 69 -113 92 -159 42 -83 42 -83 14
-63 -34 25 -653 646 -653 655 0 12 160 -72 240 -126z m430 -1471 c-42 -111
-143 -265 -242 -371 -102 -110 -290 -239 -414 -285 -19 -7 91 109 316 335 190
190 346 345 347 345 1 0 -2 -11 -7 -24z m-1913 -318 c183 -183 333 -336 333
-341 0 -4 -44 15 -97 42 -182 94 -345 237 -453 396 -52 77 -135 235 -123 235
4 0 158 -150 340 -332z"/>
<path d="M1130 2110 l0 -230 -140 0 -140 0 0 -145 0 -145 70 0 70 0 0 80 0 80
585 0 585 0 0 -75 0 -75 70 0 70 0 0 140 0 140 -140 0 -140 0 0 230 0 230
-445 0 -445 0 0 -230z m750 50 l0 -50 -197 -2 -198 -3 4 -112 3 -113 -111 0
-111 0 0 165 0 165 305 0 305 0 0 -50z m0 -225 l0 -55 -130 0 -130 0 0 55 0
55 130 0 130 0 0 -55z"/>
<path d="M1140 1225 l0 -435 70 0 70 0 0 140 0 140 295 0 296 0 -3 -62 -3 -63
-82 -3 c-93 -3 -90 1 -69 -87 l11 -50 112 0 c110 0 113 1 140 28 l28 27 3 400
3 400 -436 0 -435 0 0 -435z m730 250 l0 -55 -295 0 -295 0 0 55 0 55 295 0
295 0 0 -55z m0 -220 l0 -55 -295 0 -295 0 0 55 0 55 295 0 295 0 0 -55z"/>
</g>
</svg>
