<?xml version="1.0" encoding="UTF-8" standalone="no"?>
<!-- Created with Inkscape (http://www.inkscape.org/) -->

<svg
   xmlns:svg="http://www.w3.org/2000/svg"
   xmlns="http://www.w3.org/2000/svg"
   xmlns:xlink="http://www.w3.org/1999/xlink"
   xmlns:sodipodi="http://sodipodi.sourceforge.net/DTD/sodipodi-0.dtd"
   xmlns:inkscape="http://www.inkscape.org/namespaces/inkscape"
   id="svg3347"
   sodipodi:version="0.32"
   inkscape:version="0.47 r22583"
   width="100"
   height="100"
   sodipodi:docname="Nature Icon Yin-Yang.svg"
   inkscape:output_extension="org.inkscape.output.svg.inkscape"
   version="1.0">
  <defs
     id="defs3350">
    <linearGradient
       id="linearGradientYin">
      <stop
         style="stop-color:#000000;stop-opacity:1;"
         id="stopYin0"
         offset="0" />
      <stop
         style="stop-color:#3c3c3c;stop-opacity:1;"
         offset="1"
         id="stopYin1" />
    </linearGradient>
    <linearGradient
       id="linearGradientYang">
      <stop
         style="stop-color:#ffffff;stop-opacity:1"
         id="stopYang0"
         offset="0" />
      <stop
         style="stop-color:#dcdcdc;stop-opacity:1;"
         offset="1"
         id="stopYang1" />
    </linearGradient>
    <linearGradient
       y2="94.42749"
       x2="-50.969933"
       y1="18.955791"
       x1="-126.44163"
       gradientTransform="matrix(-1,0,0,-1,-38.705779,106.69164)"
       gradientUnits="userSpaceOnUse"
       id="linearGradientYang2"
       xlink:href="#linearGradientYang"
       inkscape:collect="always" />
    <linearGradient
       y2="18.955791"
       x2="-50.969933"
       y1="94.42749"
       x1="-126.44163"
       gradientTransform="matrix(-1,0,0,-1,-38.705779,106.69164)"
       gradientUnits="userSpaceOnUse"
       id="linearGradientYin2"
       xlink:href="#linearGradientYin"
       inkscape:collect="always" />
  </defs>
  <sodipodi:namedview
     inkscape:window-height="930"
     inkscape:window-width="1280"
     inkscape:pageshadow="2"
     inkscape:pageopacity="0.0"
     guidetolerance="10.0"
     gridtolerance="10.0"
     objecttolerance="50"
     borderopacity="1.0"
     bordercolor="#666666"
     pagecolor="#ffffff"
     id="base"
     showgrid="false"
     inkscape:zoom="1"
     inkscape:cx="65.005451"
     inkscape:cy="43.714159"
     inkscape:window-x="-4"
     inkscape:window-y="-4"
     inkscape:current-layer="svg3347"
     inkscape:snap-center="true"
     inkscape:object-paths="false"
     inkscape:object-nodes="false"
     inkscape:window-maximized="0"
     inkscape:snap-nodes="true"
     inkscape:snap-smooth-nodes="false"
     inkscape:snap-midpoints="false" />
  <g
     id="Yin-Yang icon"
     transform="translate(-4.8779293e-8,2.5512207e-6)">
    <g
       transform="translate(4e-7,-1.4e-6)"
       id="Yin-Yang icon background">
      <path
         id="Yang tomoe"
         d="m 50.000001,100 c 27.18277,0 49.28425,-21.70094 49.96875,-48.71875 0.0109,-0.42885 0.0312,-0.84978 0.0312,-1.28125 0,-13.80712 -11.19288,-25 -25,-25 -13.80712,0 -25,11.19288 -25,25 0,13.80712 -11.19288,25 -25,25 C 11.624301,75 0.700781,64.4905 0.031201,51.28125 0.715701,78.29906 22.817191,100 49.999951,100 z"
         style="fill:url(#linearGradientYang2);fill-opacity:1;fill-rule:nonzero;stroke:none" />
      <path
         style="fill:url(#linearGradientYin2);fill-opacity:1;fill-rule:nonzero;stroke:none"
         d="M 50.000001,0 C 22.817231,0 0.715751,21.70094 0.031251,48.71875 0.020351,49.1476 5.1e-5,49.56853 5.1e-5,50 c 0,13.80712 11.19288,25 25,25 13.80712,0 25,-11.19288 25,-25 0,-13.80712 11.19288,-25 24.99999,-25 13.37565,0 24.29917,10.5095 24.96875,23.71875 C 99.284291,21.70094 77.182811,0 50.000051,0 z"
         id="Yin tomoe" />
    </g>
    <path
       sodipodi:nodetypes="ccccccccccccccccccccc"
       id="Yin-Yang icon border"
       d="m 2.8301888,31.132074 9.4339632,-9.433963 0,-9.433962 9.433962,0 9.433962,-9.4339628 37.73585,0 9.433963,9.4339628 9.433963,0 0,9.433962 9.433962,9.433963 0,37.73585 -9.433962,9.433962 0,9.433963 -9.433963,0 -9.433963,9.433962 -37.73585,0 -9.433962,-9.433962 -9.433962,0 0,-9.433963 -9.4339632,-9.433962 0,-37.73585 z"
       style="fill:none;stroke:#000000;stroke-width:5.6603775;stroke-linecap:butt;stroke-linejoin:miter;stroke-miterlimit:4;stroke-opacity:1;stroke-dasharray:none" />
  </g>
  <path
     d="m 23.141892,44.22477 c 0.471312,4.023619 -0.707012,6.035413 -3.535062,6.035413 l -1.131231,0 -0.424125,-2.548288 1.414031,0 c 0.659875,8e-6 0.9898,-0.715287 0.989812,-2.145917 -0.09425,-3.755358 -0.895556,-6.661295 -2.403843,-8.71782 l 2.82805,-8.44958 -4.100681,0 0,27.226417 -2.403844,0 0,-29.372348 7.63575,0 0.424125,-0.402314 1.979637,1.877689 -0.565625,0.26825 -1.555437,4.425973 c 5.27903,-1.4306 8.578429,-4.113 9.898204,-8.047223 l 2.969469,0.670642 c 0.47125,0.178889 0.424125,0.402375 -0.141444,0.670569 1.50828,2.682437 5.04335,4.738945 10.60523,6.169537 l -1.13123,2.548288 c -2.262445,-0.625919 -4.147811,-1.475344 -5.656075,-2.54833 l 0,1.743567 -9.615397,0 0,-1.743567 c -1.225514,1.072986 -3.205158,2.190642 -5.938927,3.353005 l -1.272625,-2.145919 -1.555437,4.023606 c 1.508287,2.145933 2.403844,4.5154 2.686657,7.108375 z M 33.605717,27.459733 c -1.036975,1.609462 -2.3096,2.950675 -3.817861,4.023606 l 8.484161,0 c -1.791131,-0.983531 -3.346564,-2.324719 -4.6663,-4.023606 z m 9.04978,27.628781 -1.55543,-1.877681 -15.695718,1.743562 c -0.282813,0.715305 -0.565625,0.715305 -0.848413,0 l -0.707019,-2.682406 4.3835,-0.134056 1.838225,-4.828325 -5.797518,0 0,-2.145933 21.210429,0 0,2.145933 -12.30205,0 -2.686656,4.8283 9.049786,-0.670575 C 38.224853,50.21555 37.470711,49.589658 37.282197,49.589645 L 39.403233,48.1143 c 2.262414,1.520025 4.19492,3.2636 5.79752,5.230695 z m -16.26133,-14.216756 9.191194,0 1.555431,-3.353005 -11.312238,0 0,-2.145925 12.160649,0 0.141361,-0.67057 2.686669,1.743556 -0.424189,0.402314 -2.121041,4.023605 4.383486,0 0,2.145925 -16.261329,0 z"
     style="font-size:63.45048523px;fill:#ffffff;fill-opacity:1;font-family:MS Gothic;-inkscape-font-specification:MS Gothic"
     id="Yin kanji" />
  <path
     d="m 61.477283,56.35187 c 1.799228,2.386205 2.698853,4.86418 2.698864,7.433925 -1.1e-5,3.579294 -1.089025,5.36893 -3.26705,5.36893 l -1.704539,0 -0.568186,-2.753305 1.42045,0 c 0.946959,1.3e-5 1.373089,-0.963645 1.278409,-2.890962 -0.0947,-2.661513 -0.946984,-5.001813 -2.55682,-7.020925 l 2.840911,-8.948244 -4.403411,0 0,27.533036 -2.840914,0 0,-29.735672 7.95455,0 0.568186,-0.688308 2.414775,2.064994 -0.568186,0.550689 z m 20.596584,7.70925 -1.42045,0 c -1.515189,6.699694 -6.58145,10.554319 -15.198856,11.563875 l -0.85228,-2.615637 c 7.38635,-0.550688 11.837097,-3.533408 13.35228,-8.948238 l -1.988644,0 c -1.60987,3.854625 -5.018956,6.194925 -10.22727,7.020925 l -0.852266,-2.340306 c 4.356036,-0.917775 7.0549,-2.477969 8.09658,-4.680619 l -2.27273,0 c -1.32577,1.28488 -3.030314,2.294419 -5.113634,3.02863 l -1.136361,-2.340311 c 3.030286,-0.91775 5.113625,-2.661514 6.249995,-5.231275 l -6.392045,0 0,-2.202639 21.306825,0 0,2.202639 -11.93183,0 c -0.378814,0.826 -0.852289,1.6061 -1.42045,2.3403 l 12.499997,0 -0.284061,8.672906 c -0.0947,2.936863 -1.183739,4.405288 -3.26705,4.405288 l -2.840906,0 -0.426125,-2.615633 2.414767,0 c 0.85225,0 1.325733,-0.550686 1.42045,-1.65198 z m -12.073856,-10.737881 9.659086,0 0,-2.340319 -9.659086,0 z m 0,-4.542956 9.659086,0 0,-2.20265 -9.659086,0 z m 12.073856,-4.405288 0,11.15088 -14.488631,0 0,-11.15088 z"
     style="font-size:62px;font-family:MS Gothic;-inkscape-font-specification:MS Gothic"
     id="Yang kanji" />
</svg>
