<?xml version="1.0" standalone="no"?>
<!DOCTYPE svg PUBLIC "-//W3C//DTD SVG 20010904//EN"
 "http://www.w3.org/TR/2001/REC-SVG-20010904/DTD/svg10.dtd">
<svg version="1.0" xmlns="http://www.w3.org/2000/svg"
 width="378.000000pt" height="459.000000pt" viewBox="0 0 378.000000 459.000000"
 preserveAspectRatio="xMidYMid meet">

<g transform="translate(0.000000,459.000000) scale(0.100000,-0.100000)"
fill="#000000" stroke="none">
<path d="M1502 4117 l-382 -382 235 -235 c129 -129 235 -239 235 -245 0 -16
-173 -185 -190 -185 -8 0 -120 105 -247 232 l-233 233 -380 -380 -380 -380
235 -235 c129 -129 235 -240 235 -245 0 -5 -106 -116 -235 -245 l-235 -235
380 -380 380 -380 240 240 240 240 102 -103 103 -102 -240 -240 -240 -240 380
-380 380 -380 380 380 380 380 -233 233 c-127 127 -232 239 -232 247 0 16 169
190 185 190 5 0 116 -106 245 -235 l235 -235 380 380 380 380 -233 233 c-127
127 -232 239 -232 247 0 8 106 121 235 250 l235 235 -383 383 -382 382 -235
-235 c-129 -129 -242 -235 -250 -235 -17 0 -190 169 -190 185 0 5 107 117 237
247 l238 238 -380 380 -380 380 -383 -383z m452 134 c53 -53 56 -60 40 -69
-17 -10 -16 -12 14 -22 20 -8 32 -19 32 -30 0 -11 5 -22 10 -25 6 -4 8 -15 5
-25 -8 -24 66 -88 97 -85 13 1 22 8 20 14 -4 22 14 10 62 -38 27 -27 45 -54
42 -60 -4 -6 0 -11 11 -11 21 0 163 -138 163 -159 0 -18 -131 -152 -142 -145
-4 3 -8 17 -9 32 0 15 -3 22 -5 15 -3 -7 -12 -9 -21 -6 -9 4 -21 -1 -29 -12
-12 -16 -10 -21 12 -42 l26 -24 -23 -25 c-12 -13 -31 -24 -40 -24 -11 0 -16
-5 -13 -13 6 -17 -51 -71 -65 -62 -6 3 -9 10 -7 14 7 11 -25 7 -48 -6 -18 -10
-17 -11 4 -26 25 -17 22 -43 -6 -54 -10 -4 -31 9 -60 38 l-44 43 147 148 148
148 -85 86 c-47 48 -104 104 -127 126 -24 22 -40 45 -36 52 3 6 2 7 -2 3 -5
-4 -37 20 -71 54 -49 49 -66 60 -81 54 -10 -5 -25 -10 -33 -10 -8 -1 -21 -3
-27 -4 -7 0 -13 -12 -13 -26 0 -27 -82 -129 -113 -140 -10 -4 -23 -18 -29 -31
-13 -29 -65 -67 -55 -40 5 12 -1 11 -27 -6 -25 -16 -32 -27 -28 -44 6 -30 -21
-56 -51 -50 -17 3 -24 -1 -24 -12 0 -20 21 -42 39 -42 13 0 42 -37 43 -54 0
-5 9 -10 19 -12 20 -3 158 -135 176 -169 6 -11 29 -33 51 -49 21 -17 39 -38
39 -48 0 -10 4 -18 9 -18 19 0 196 -168 187 -177 -3 -3 -11 -1 -18 3 -7 5 -25
7 -39 5 -18 -1 -32 5 -42 19 -16 23 -37 20 -37 -6 0 -8 13 -17 28 -20 21 -4
38 -20 61 -60 l33 -53 36 14 c31 14 37 14 52 0 24 -22 36 -18 15 5 -10 11 -24
20 -32 20 -7 0 -13 7 -13 15 0 8 2 15 5 15 6 0 85 -78 85 -84 0 -16 -14 -36
-25 -36 -7 0 -15 -7 -19 -15 -3 -9 0 -15 8 -15 8 0 17 -8 20 -17 6 -15 8 -14
21 5 18 25 63 25 79 0 9 -14 3 -25 -29 -58 -21 -22 -44 -40 -50 -40 -5 0 -123
113 -260 250 -137 138 -244 250 -236 250 10 0 11 3 2 14 -6 8 -11 18 -9 22 1
5 -5 20 -14 34 -9 14 -19 39 -22 55 -2 17 -5 32 -6 35 -1 3 -2 8 -1 13 0 4 -6
7 -15 7 -8 0 -12 5 -9 10 3 6 0 10 -7 10 -7 0 -24 3 -38 7 -24 6 -24 6 -7 -14
9 -11 17 -27 17 -36 0 -9 4 -18 9 -22 10 -6 11 -45 1 -45 -12 0 -114 110 -116
126 -3 18 -22 34 -41 34 -12 0 -18 19 -14 49 2 7 -3 10 -9 6 -6 -4 -9 -14 -5
-23 5 -13 2 -12 -15 3 -11 10 -18 25 -15 33 3 9 0 12 -9 9 -8 -3 -21 2 -30 12
-15 16 -14 20 14 46 22 21 33 26 41 18 6 -6 19 -9 29 -6 16 4 17 9 9 31 -13
34 19 71 59 66 15 -2 19 -1 10 2 -26 8 -23 15 25 62 32 32 47 40 65 36 22 -6
26 0 23 36 -2 22 109 128 138 132 17 2 25 10 26 26 2 27 54 84 68 75 6 -3 7
-2 4 4 -6 9 37 63 51 63 4 0 34 -27 66 -59z m28 -408 c49 -48 88 -95 88 -103
0 -17 -169 -190 -185 -190 -6 0 -53 43 -105 95 l-95 95 95 95 c52 52 99 95
105 95 5 0 49 -39 97 -87z m-402 -18 c-7 -9 -15 -13 -18 -10 -3 2 1 11 8 20 7
9 15 13 18 10 3 -2 -1 -11 -8 -20z m-627 -529 c-3 -5 -1 -6 5 -2 12 7 283
-264 295 -297 12 -31 0 -81 -24 -103 -20 -18 -22 -16 -157 119 -76 75 -143
137 -150 137 -8 0 -38 -25 -68 -55 -52 -52 -94 -71 -94 -41 0 7 -6 19 -14 25
-11 9 -15 7 -19 -8 -6 -24 -57 -17 -57 8 0 9 40 56 89 105 66 66 91 85 97 75
5 -8 7 -22 5 -32 -6 -41 62 -61 99 -30 27 24 25 36 -4 29 -14 -3 -28 -2 -31 4
-3 5 -3 10 2 10 4 0 8 14 9 30 1 29 -6 37 -19 23 -4 -3 -19 -8 -33 -9 l-27 -3
34 35 33 35 17 -23 c10 -12 15 -27 12 -32z m2064 -108 c62 -62 113 -119 113
-126 0 -7 4 -11 8 -8 5 3 39 -26 76 -63 62 -62 66 -70 50 -80 -17 -9 -16 -11
14 -23 19 -7 32 -19 32 -30 0 -9 5 -20 10 -23 6 -3 10 -16 10 -28 0 -11 12
-33 26 -48 l26 -27 -63 -61 c-64 -62 -89 -74 -89 -45 0 10 -6 14 -15 10 -9 -3
-15 0 -15 8 0 8 -7 17 -16 20 -25 9 -37 7 -31 -6 19 -52 18 -56 -5 -51 -23 5
-23 5 2 -13 27 -19 40 -34 40 -47 0 -9 -121 -127 -131 -127 -15 0 -21 22 -9
30 10 6 6 15 -15 34 -17 16 -32 23 -39 18 -6 -5 -20 -12 -31 -16 -11 -4 43 56
120 133 77 77 141 146 143 153 1 7 -81 96 -183 198 -102 102 -185 190 -185
197 0 7 -4 13 -10 13 -13 0 -60 -49 -60 -62 0 -7 -12 -25 -27 -40 -26 -27 -44
-36 -42 -20 5 27 -3 52 -16 52 -8 0 -15 5 -15 11 0 7 -8 18 -17 25 -16 12 -12
19 47 78 35 36 68 66 72 66 5 0 14 -11 20 -25 6 -14 17 -25 24 -25 7 0 11 -6
8 -13 -6 -16 23 -43 34 -32 4 4 1 10 -5 12 -18 6 -16 33 2 33 10 0 15 10 15
30 0 17 3 30 7 30 4 0 58 -51 120 -112z m-947 -48 c0 -11 -4 -20 -10 -20 -5 0
-10 9 -10 20 0 11 5 20 10 20 6 0 10 -9 10 -20z m-331 -32 c22 -21 41 -41 41
-45 0 -3 -82 -88 -181 -189 -179 -179 -198 -193 -221 -160 -4 6 -5 19 -2 29 7
24 -9 21 -51 -7 l-36 -25 43 -12 c24 -6 50 -13 58 -16 9 -3 -12 -30 -65 -83
-59 -58 -83 -76 -92 -68 -9 7 -15 6 -19 -6 -4 -9 -4 -20 0 -23 8 -8 -84 -103
-99 -103 -6 0 -30 19 -53 43 l-42 43 118 117 c64 64 124 117 131 117 8 0 11 3
7 7 -7 8 405 425 415 420 4 -1 25 -19 48 -39z m900 11 c-11 -8 -10 -12 5 -24
10 -7 15 -18 12 -24 -4 -5 -2 -12 3 -16 6 -3 8 -12 5 -20 -4 -8 1 -18 10 -21
9 -3 13 -10 10 -15 -3 -5 -10 -7 -15 -4 -5 4 -9 0 -9 -7 0 -8 -21 -35 -47 -60
-51 -49 -71 -51 -103 -13 -12 14 -12 18 1 26 9 6 10 9 2 9 -8 0 -12 12 -11 28
1 19 21 47 66 94 36 37 70 64 75 61 5 -3 3 -10 -4 -14z m-1942 -101 c-3 -10
-1 -21 5 -24 5 -3 12 4 15 15 3 13 12 21 21 19 29 -6 23 -25 -19 -64 -23 -22
-63 -61 -87 -87 -25 -26 -53 -47 -61 -46 -32 3 -41 -1 -41 -19 0 -10 -6 -24
-12 -31 -11 -11 -9 -11 11 -1 18 9 22 9 16 0 -4 -7 11 -31 41 -61 34 -35 43
-49 31 -49 -15 0 -16 -4 -7 -20 6 -11 7 -20 3 -20 -4 0 -1 -5 7 -10 12 -7 8
-10 -15 -10 -26 -1 -27 -2 -10 -10 11 -4 30 -22 43 -39 23 -31 45 -38 71 -22
12 8 12 12 2 25 -7 8 -11 20 -9 27 3 10 50 -36 298 -290 25 -25 55 -59 68 -76
13 -16 25 -29 28 -27 6 4 71 -56 154 -141 l54 -57 -39 -40 c-21 -22 -44 -40
-50 -40 -17 0 -77 58 -71 69 4 5 -1 11 -9 13 -8 2 -94 82 -190 178 -170 169
-175 175 -150 183 34 12 30 44 -4 39 -20 -3 -23 0 -18 17 3 14 0 21 -9 21 -8
0 -14 -9 -14 -19 0 -11 -4 -22 -8 -25 -9 -5 -381 362 -384 378 -2 17 85 96
107 96 17 0 24 7 28 28 3 16 35 56 81 100 l75 73 26 -17 c18 -11 25 -24 22
-36z m320 -140 c51 -51 93 -97 93 -103 0 -16 -173 -185 -190 -185 -16 0 -190
169 -190 185 0 10 180 195 190 195 2 0 46 -42 97 -92z m1053 -103 c0 -16 -174
-185 -190 -185 -9 0 -56 41 -105 90 l-90 90 100 100 100 100 92 -92 c51 -51
93 -97 93 -103z m877 103 c51 -51 93 -97 93 -103 0 -6 -43 -53 -95 -105 l-95
-95 -100 100 -100 100 97 97 c54 54 100 98 103 98 2 0 46 -42 97 -92z m-514
51 c-15 -15 8 -39 37 -39 18 0 21 -5 18 -24 -4 -19 -1 -22 14 -18 10 2 18 1
18 -4 0 -14 -154 -164 -168 -164 -7 0 -10 -4 -7 -10 9 -15 -1 -12 -18 4 -9 10
-13 32 -11 65 1 28 -2 54 -8 57 -9 6 118 144 131 144 3 0 0 -5 -6 -11z m-178
-273 c4 -45 12 -56 25 -36 8 12 10 12 10 1 0 -7 -29 -43 -64 -79 -68 -70 -96
-77 -96 -24 0 53 -34 66 -75 30 -32 -27 -31 -35 5 -78 31 -36 39 -70 17 -70
-7 0 -32 19 -55 43 l-42 43 91 89 c86 86 91 89 105 71 7 -11 14 -15 14 -10 0
6 -5 15 -12 22 -9 9 -4 20 22 47 34 35 34 35 43 13 5 -13 10 -40 12 -62z m291
-12 c-24 -23 -20 -32 22 -53 21 -11 49 -36 63 -55 16 -24 32 -36 48 -36 18 0
22 4 17 18 -4 10 5 5 22 -13 16 -16 28 -33 25 -37 -2 -5 3 -8 12 -8 9 0 13 -4
10 -10 -3 -5 2 -10 12 -10 17 0 46 -33 48 -55 1 -5 6 -9 13 -7 14 2 179 -154
187 -177 3 -9 23 -29 45 -45 22 -17 40 -38 40 -48 0 -10 4 -18 9 -18 20 0 196
-168 186 -178 -3 -3 -11 0 -17 6 -7 7 -16 8 -22 3 -16 -12 -56 5 -56 24 0 10
-7 15 -17 13 -28 -5 -22 -42 7 -46 26 -4 80 -69 80 -98 0 -12 6 -15 23 -10 59
17 73 17 87 1 12 -14 2 -27 -78 -106 -51 -49 -98 -89 -106 -89 -21 0 -56 54
-56 86 0 20 13 41 42 71 l42 43 -149 150 c-82 83 -144 150 -137 150 10 0 10 5
2 20 -6 11 -8 20 -5 20 4 0 -3 12 -14 26 -11 15 -19 30 -16 34 3 5 1 19 -4 32
-5 12 -10 28 -12 33 -5 19 -25 33 -60 40 -33 7 -34 7 -16 -12 9 -11 17 -24 17
-30 0 -6 7 -23 14 -39 8 -15 12 -32 9 -37 -8 -13 -123 104 -123 125 0 9 -12
23 -27 30 -19 9 -29 22 -31 41 -2 15 -8 25 -13 21 -5 -3 -7 -10 -4 -15 4 -5 2
-9 -3 -9 -14 0 -33 26 -25 33 3 4 0 7 -7 7 -8 0 -49 35 -92 77 l-77 78 47 48
c26 26 48 43 50 37 2 -5 -4 -17 -12 -26z m-811 -110 c74 -74 133 -140 129
-145 -3 -5 0 -8 7 -7 7 2 13 -4 14 -12 1 -8 6 -14 12 -13 5 1 42 -30 81 -70
38 -40 111 -112 161 -160 50 -49 91 -93 91 -97 0 -5 9 -12 20 -15 24 -8 17
-25 -11 -25 -10 0 -19 -5 -19 -11 0 -5 6 -7 13 -3 8 5 8 2 -2 -9 -7 -9 -17
-17 -21 -17 -12 0 -9 53 4 69 9 12 8 13 -9 7 -42 -18 -66 -18 -84 -2 -10 9
-21 13 -26 9 -4 -5 -5 1 -2 12 8 27 -59 103 -76 86 -8 -8 -6 -19 6 -41 10 -17
14 -30 10 -30 -13 0 -454 446 -448 453 3 4 2 5 -2 2 -8 -6 -53 34 -53 47 0 5
14 1 31 -7 17 -9 36 -14 42 -12 7 3 5 7 -5 11 -10 3 -26 9 -35 13 -20 8 -31
10 -53 12 -14 1 66 91 82 91 4 0 68 -61 143 -136z m-1065 95 c0 -6 -4 -7 -10
-4 -5 3 -10 11 -10 16 0 6 5 7 10 4 6 -3 10 -11 10 -16z m14 -45 c5 -14 4 -15
-9 -4 -17 14 -19 20 -6 20 5 0 12 -7 15 -16z m906 -289 c0 -16 -174 -185 -190
-185 -9 0 -56 41 -105 90 l-90 90 100 100 100 100 92 -92 c51 -51 93 -97 93
-103z m880 -100 c-52 -52 -99 -95 -105 -95 -6 0 -53 43 -105 95 l-95 95 100
100 100 100 100 -100 100 -100 -95 -95z m-1690 -50 l45 -46 -75 -74 c-43 -43
-81 -72 -89 -70 -19 7 -41 -13 -34 -32 4 -9 -12 -33 -43 -64 l-48 -49 37 -38
c21 -21 34 -42 30 -47 -5 -4 -3 -5 3 -2 6 4 43 -26 82 -66 39 -40 107 -108
151 -151 79 -79 81 -80 101 -61 11 10 22 16 24 14 9 -11 25 -72 21 -79 -3 -5
0 -21 5 -36 10 -24 7 -31 -22 -61 -36 -37 -65 -42 -76 -14 -4 11 -10 20 -15
20 -14 1 -117 107 -110 114 3 4 1 7 -5 7 -7 0 -26 12 -43 27 -24 22 -29 33
-24 53 6 22 5 23 -7 7 -12 -16 -22 -8 -116 87 -107 109 -141 170 -40 71 58
-57 117 -81 132 -56 4 6 1 11 -6 11 -16 1 -48 43 -57 78 -5 19 -14 27 -30 27
-13 0 -28 7 -35 15 -6 8 -22 21 -34 28 -20 11 -25 10 -46 -12 l-23 -25 -43 44
-44 45 34 35 c20 21 44 35 58 35 19 0 22 3 14 13 -9 10 8 32 71 95 81 80 83
82 105 66 30 -21 41 -10 17 16 -18 20 -18 21 30 70 27 28 52 50 55 50 3 0 26
-20 50 -45z m960 0 c43 -44 43 -45 25 -65 -10 -11 -26 -20 -36 -20 -11 0 -16
-5 -14 -13 3 -7 -19 -37 -50 -67 -44 -44 -57 -52 -67 -41 -11 10 -10 15 5 25
18 14 21 66 3 63 -6 -1 -12 8 -14 21 -2 12 -9 22 -15 22 -6 0 15 27 48 60 33
33 62 60 65 60 3 0 26 -20 50 -45z m993 -32 c5 -8 4 -20 -4 -29 -14 -17 -34
-13 -34 7 0 7 -9 15 -20 18 -11 2 -25 11 -32 20 -11 13 -12 10 -6 -19 3 -19
12 -42 19 -51 20 -22 18 -32 -11 -59 -16 -15 -25 -19 -25 -10 0 17 -11 7 -14
-13 -3 -21 -26 -47 -42 -47 -8 0 -19 -12 -25 -27 -8 -20 -13 -24 -17 -13 -11
30 -35 39 -59 21 -28 -20 -29 -35 -4 -58 19 -18 19 -19 -23 -63 -24 -25 -57
-58 -74 -74 l-31 -29 -10 26 c-6 15 -15 27 -21 27 -6 0 -9 4 -6 9 3 4 -4 17
-15 27 -20 18 -19 18 53 91 49 49 75 69 83 63 8 -7 11 -3 11 13 -1 15 5 22 16
21 9 -1 14 4 12 11 -3 6 2 18 11 25 14 12 18 11 26 -1 5 -8 9 -9 9 -3 0 6 11
16 24 23 16 9 22 19 18 33 -3 14 11 35 53 78 l58 59 36 -31 c20 -17 40 -37 44
-45z m-1191 -126 c2 -14 10 -21 20 -21 10 1 15 -2 12 -7 -3 -5 0 -18 6 -29 10
-19 4 -25 -22 -21 -5 0 -8 -6 -8 -14 0 -8 -9 -19 -20 -25 -11 -6 -18 -16 -14
-21 6 -10 -43 -69 -57 -69 -4 0 -9 12 -11 28 -2 15 -8 26 -15 25 -7 -2 -13 4
-13 12 0 9 -7 18 -15 21 -25 10 -17 26 46 90 62 63 85 70 91 31z m-432 -172
c0 -16 -174 -185 -190 -185 -9 0 -56 41 -105 90 l-90 90 100 100 100 100 92
-92 c51 -51 93 -97 93 -103z m880 -100 c-52 -52 -99 -95 -105 -95 -6 0 -53 43
-105 95 l-95 95 100 100 100 100 100 -100 100 -100 -95 -95z m137 270 c8 -9
12 -19 9 -22 -4 -4 -16 3 -28 15 -14 13 -17 22 -10 22 8 0 20 -7 29 -15z m823
-80 l95 -95 -95 -95 c-52 -52 -99 -95 -105 -95 -16 0 -185 173 -185 190 0 16
169 190 185 190 6 0 53 -43 105 -95z m386 -52 c-11 -11 -19 6 -11 24 8 17 8
17 12 0 3 -10 2 -21 -1 -24z m-1970 -8 c-3 -9 1 -18 10 -22 8 -3 13 -12 10
-19 -3 -7 -1 -16 5 -20 6 -3 8 -13 4 -22 -3 -8 0 -19 7 -24 10 -6 10 -8 1 -8
-7 0 -13 -6 -13 -13 0 -7 -22 -34 -49 -61 l-49 -48 -31 16 c-17 9 -31 23 -31
32 0 9 5 12 13 8 7 -5 6 0 -3 11 -24 29 -12 56 53 123 61 61 85 77 73 47z
m2027 -9 c4 -11 0 -11 -18 -2 -13 6 -21 14 -19 18 6 10 31 -1 37 -16z m-1178
-116 c3 -5 1 -10 -5 -10 -6 0 -2 -12 9 -26 12 -15 22 -38 22 -53 1 -15 3 -19
6 -9 4 15 31 33 39 25 5 -5 -127 -137 -137 -137 -5 0 -9 13 -9 29 0 23 -7 32
-30 43 -16 7 -30 17 -30 23 0 11 111 125 122 125 4 0 10 -4 13 -10z m-455
-176 c85 -85 147 -152 138 -148 -21 7 -23 -8 -7 -39 9 -16 9 -22 0 -25 -7 -2
0 -18 19 -42 24 -30 35 -36 55 -32 34 6 31 47 -4 47 -8 0 -16 7 -18 15 -4 13
-3 13 6 0 8 -11 13 -12 19 -3 8 13 145 -117 292 -277 47 -51 90 -97 95 -101 6
-4 31 -26 57 -49 l47 -41 -155 -157 c-135 -135 -158 -154 -172 -144 -10 7 -25
15 -35 19 -11 3 -16 12 -12 21 3 8 -1 22 -10 31 -13 15 -7 24 61 92 67 67 75
72 80 52 7 -24 27 -35 49 -27 21 8 19 24 -7 51 -21 22 -21 23 -3 43 17 19 15
22 -99 137 l-116 118 31 8 c36 9 34 31 -3 35 -20 2 -25 7 -21 23 4 13 0 19
-12 19 -12 0 -16 -6 -12 -19 15 -57 -26 -24 -265 216 l-256 257 36 38 c20 21
43 38 52 38 8 0 85 -70 170 -156z m1019 -53 c58 -57 67 -62 84 -51 17 10 23 9
38 -11 10 -13 19 -31 19 -40 0 -26 11 -29 43 -13 l30 16 -22 -30 c-38 -54 -79
-83 -109 -76 -15 4 -31 9 -37 13 -5 3 -18 4 -28 3 -9 -2 -20 5 -24 15 -4 10
-16 30 -27 45 -11 15 -17 31 -13 34 9 9 -44 36 -59 30 -17 -6 -38 20 -30 39 5
14 -4 19 -29 16 -6 0 -42 31 -80 69 l-70 70 32 32 32 32 -6 -38 c-9 -55 19
-43 31 13 l9 42 76 -73 c41 -40 105 -102 140 -137z m-1617 160 c-9 -6 -8 -12
7 -25 11 -10 24 -15 29 -12 5 3 18 -7 30 -23 l20 -28 -77 -77 c-42 -42 -82
-76 -89 -76 -6 0 -12 -5 -12 -11 0 -8 -5 -7 -16 2 -12 10 -15 26 -12 67 4 41
2 52 -9 48 -7 -3 -13 -2 -13 2 0 11 143 152 149 146 3 -3 0 -9 -7 -13z m1948
-26 c8 -16 25 -27 47 -31 18 -3 33 -9 33 -12 0 -3 -40 -45 -89 -93 -105 -103
-120 -105 -145 -26 l-17 51 68 68 c37 37 72 68 79 68 6 0 17 -11 24 -25z
m-1057 -93 c-3 -11 7 -26 27 -41 30 -22 31 -24 14 -42 -13 -14 -20 -16 -30 -8
-8 6 -11 15 -9 20 3 4 -8 15 -24 24 -42 21 -46 33 -20 61 24 26 51 18 42 -14z
m-113 -172 c0 -5 -2 -10 -4 -10 -3 0 -8 5 -11 10 -3 6 -1 10 4 10 6 0 11 -4
11 -10z m-920 -14 c0 -3 -4 -8 -10 -11 -5 -3 -10 -1 -10 4 0 6 5 11 10 11 6 0
10 -2 10 -4z m1824 -70 c21 -11 24 -15 13 -25 -11 -8 -19 -5 -37 14 -26 28
-16 32 24 11z m-1152 -97 c13 -7 17 -14 10 -18 -8 -4 -3 -16 14 -34 l25 -28
-32 -37 c-53 -60 -98 -91 -86 -58 5 13 -9 24 -38 32 -5 1 -18 5 -27 9 -22 9
-24 -8 -3 -25 8 -7 15 -21 15 -30 0 -10 6 -20 13 -23 17 -6 -6 -43 -25 -39 -7
2 -10 0 -5 -4 4 -4 -7 -22 -24 -40 -27 -28 -30 -36 -19 -49 10 -13 10 -18 -2
-33 -30 -34 -30 -46 -2 -20 l30 28 39 -40 c21 -22 35 -40 30 -40 -5 0 -4 -5 3
-12 9 -9 9 -15 -1 -27 -9 -12 -6 -12 9 1 20 17 22 16 65 -29 24 -25 39 -43 32
-39 -16 9 -24 -7 -12 -24 6 -10 9 -11 9 -2 0 27 29 9 100 -63 l74 -75 57 56
c53 53 57 55 64 34 5 -16 12 -20 28 -16 54 15 63 15 82 1 19 -15 15 -19 -78
-110 -54 -52 -103 -92 -110 -89 -20 8 -49 54 -51 80 -1 25 -6 27 -42 25 -14
-1 -23 5 -26 17 -8 30 -56 37 -82 13 l-22 -21 -53 54 c-34 35 -51 58 -46 67 6
8 4 10 -4 4 -21 -12 -108 81 -116 124 -9 56 -25 90 -46 96 -10 4 -19 13 -19
21 0 8 -11 19 -24 24 -13 5 -27 15 -30 22 -3 7 -4 -4 -1 -24 3 -21 3 -38 -1
-38 -12 0 -44 32 -44 44 0 12 331 346 343 346 5 0 18 -5 29 -11z m298 -234
l95 -95 -95 -95 c-52 -52 -99 -95 -105 -95 -16 0 -185 173 -185 190 0 16 169
190 185 190 6 0 53 -43 105 -95z m80 -356 c0 -11 -4 -17 -10 -14 -5 3 -10 13
-10 21 0 8 5 14 10 14 6 0 10 -9 10 -21z m-257 -214 c57 -53 67 -59 95 -56 10
2 11 -2 2 -18 -6 -12 -16 -21 -24 -21 -7 0 -45 34 -85 75 -84 86 -75 102 12
20z"/>
<path d="M1860 4230 c0 -5 5 -10 10 -10 6 0 10 5 10 10 0 6 -4 10 -10 10 -5 0
-10 -4 -10 -10z"/>
<path d="M1872 4198 c-20 -20 -14 -27 13 -15 14 7 25 15 25 20 0 11 -25 8 -38
-5z"/>
<path d="M1790 4130 c0 -5 4 -10 9 -10 6 0 13 5 16 10 3 6 -1 10 -9 10 -9 0
-16 -4 -16 -10z"/>
<path d="M1665 4050 c3 -5 8 -10 11 -10 2 0 4 5 4 10 0 6 -5 10 -11 10 -5 0
-7 -4 -4 -10z"/>
<path d="M1712 4049 c2 -7 10 -15 17 -17 8 -3 12 1 9 9 -2 7 -10 15 -17 17 -8
3 -12 -1 -9 -9z"/>
<path d="M2037 4019 c7 -7 15 -10 18 -7 3 3 -2 9 -12 12 -14 6 -15 5 -6 -5z"/>
<path d="M2100 3991 c0 -5 5 -13 10 -16 6 -3 10 -2 10 4 0 5 -4 13 -10 16 -5
3 -10 2 -10 -4z"/>
<path d="M1645 3960 c17 -19 45 -27 45 -14 0 11 -34 33 -49 34 -11 0 -10 -5 4
-20z"/>
<path d="M2198 3886 c7 -11 8 -17 11 -37 2 -17 23 -5 32 18 6 18 3 22 -21 25
-19 3 -27 1 -22 -6z"/>
<path d="M1445 3790 c3 -5 8 -10 11 -10 2 0 4 5 4 10 0 6 -5 10 -11 10 -5 0
-7 -4 -4 -10z"/>
<path d="M770 3170 c0 -5 4 -10 9 -10 6 0 13 5 16 10 3 6 -1 10 -9 10 -9 0
-16 -4 -16 -10z"/>
<path d="M794 3123 c4 -10 4 -14 0 -10 -4 4 -14 -2 -22 -14 -18 -26 -15 -28
25 -17 29 7 30 10 20 33 -13 28 -33 35 -23 8z"/>
<path d="M700 3111 c0 -5 5 -13 10 -16 6 -3 10 -2 10 4 0 5 -4 13 -10 16 -5 3
-10 2 -10 -4z"/>
<path d="M1065 3110 c3 -5 11 -10 16 -10 6 0 7 5 4 10 -3 6 -11 10 -16 10 -6
0 -7 -4 -4 -10z"/>
<path d="M2750 3200 c0 -5 5 -10 11 -10 5 0 7 5 4 10 -3 6 -8 10 -11 10 -2 0
-4 -4 -4 -10z"/>
<path d="M2680 3169 c-8 -5 -13 -9 -10 -10 3 0 13 -2 23 -4 9 -2 17 1 17 5 0
15 -15 19 -30 9z"/>
<path d="M2911 3146 c-10 -12 -8 -13 8 -9 12 3 18 9 15 14 -7 12 -10 11 -23
-5z"/>
<path d="M3130 2962 c0 -4 6 -14 13 -21 10 -11 10 -14 0 -18 -7 -3 -13 -9 -13
-14 0 -5 11 -3 25 3 22 10 23 13 10 20 -8 5 -15 16 -15 23 0 8 -4 15 -10 15
-5 0 -10 -4 -10 -8z"/>
<path d="M3296 2744 c-8 -22 -4 -25 11 -9 7 8 9 16 4 19 -5 3 -12 -1 -15 -10z"/>
<path d="M1179 2557 c6 -8 8 -17 4 -20 -3 -4 1 -7 10 -7 21 0 21 7 3 26 -18
18 -32 19 -17 1z"/>
<path d="M1137 2543 c-4 -3 2 -13 14 -21 23 -16 32 -12 23 12 -6 16 -25 21
-37 9z"/>
<path d="M590 2915 c-16 -19 -10 -19 26 0 25 13 26 15 8 15 -12 0 -27 -7 -34
-15z"/>
<path d="M520 2860 c0 -5 5 -10 10 -10 6 0 10 5 10 10 0 6 -4 10 -10 10 -5 0
-10 -4 -10 -10z"/>
<path d="M442 2769 c2 -6 8 -10 13 -10 5 0 11 4 13 10 2 6 -4 11 -13 11 -9 0
-15 -5 -13 -11z"/>
<path d="M575 2690 c3 -5 8 -10 11 -10 2 0 4 5 4 10 0 6 -5 10 -11 10 -5 0 -7
-4 -4 -10z"/>
<path d="M932 2226 c7 -8 16 -12 21 -9 11 7 -2 23 -19 23 -12 0 -12 -2 -2 -14z"/>
<path d="M1648 2538 c18 -18 49 -19 56 -3 4 12 -3 15 -31 15 -29 0 -34 -3 -25
-12z"/>
<path d="M1625 2500 c3 -5 8 -10 11 -10 2 0 4 5 4 10 0 6 -5 10 -11 10 -5 0
-7 -4 -4 -10z"/>
<path d="M1885 2321 c-3 -5 -1 -12 4 -15 5 -4 8 -22 6 -40 -3 -33 -2 -34 21
-24 15 7 23 17 19 26 -3 7 -5 18 -5 23 0 5 -7 9 -16 9 -10 0 -14 6 -10 15 6
16 -9 21 -19 6z"/>
<path d="M2035 2180 c-3 -5 -2 -10 4 -10 5 0 13 5 16 10 3 6 2 10 -4 10 -5 0
-13 -4 -16 -10z"/>
<path d="M470 1880 c0 -5 5 -10 10 -10 6 0 10 5 10 10 0 6 -4 10 -10 10 -5 0
-10 -4 -10 -10z"/>
<path d="M705 1568 c10 -33 46 -63 56 -46 10 15 -14 54 -30 51 -6 -2 -11 2
-11 7 0 6 -5 10 -11 10 -6 0 -8 -9 -4 -22z"/>
<path d="M798 1503 c7 -3 16 -2 19 1 4 3 -2 6 -13 5 -11 0 -14 -3 -6 -6z"/>
<path d="M2520 1990 c0 -6 7 -10 15 -10 8 0 15 2 15 4 0 2 -7 6 -15 10 -8 3
-15 1 -15 -4z"/>
<path d="M2340 1835 c7 -8 17 -12 22 -9 6 4 5 10 -3 15 -22 14 -33 10 -19 -6z"/>
<path d="M1541 1934 c0 -11 3 -14 6 -6 3 7 2 16 -1 19 -3 4 -6 -2 -5 -13z"/>
<path d="M1400 1890 c0 -5 9 -10 21 -10 11 0 17 5 14 10 -3 6 -13 10 -21 10
-8 0 -14 -4 -14 -10z"/>
<path d="M1712 1499 c2 -7 10 -15 17 -17 8 -3 12 1 9 9 -2 7 -10 15 -17 17 -8
3 -12 -1 -9 -9z"/>
<path d="M1845 1420 c-3 -5 1 -10 10 -10 9 0 13 5 10 10 -3 6 -8 10 -10 10 -2
0 -7 -4 -10 -10z"/>
<path d="M2206 955 c7 -17 20 -20 28 -6 3 5 -1 12 -10 15 -22 9 -24 8 -18 -9z"/>
<path d="M2595 1620 c3 -5 8 -10 11 -10 2 0 4 5 4 10 0 6 -5 10 -11 10 -5 0
-7 -4 -4 -10z"/>
<path d="M2545 1590 c3 -5 8 -10 11 -10 2 0 4 5 4 10 0 6 -5 10 -11 10 -5 0
-7 -4 -4 -10z"/>
<path d="M2586 1581 c-4 -5 -2 -12 3 -15 5 -4 12 -2 15 3 4 5 2 12 -3 15 -5 4
-12 2 -15 -3z"/>
</g>
</svg>
