<?xml version="1.0" standalone="no"?>
<!DOCTYPE svg PUBLIC "-//W3C//DTD SVG 20010904//EN"
 "http://www.w3.org/TR/2001/REC-SVG-20010904/DTD/svg10.dtd">
<svg version="1.0" xmlns="http://www.w3.org/2000/svg"
 width="300.000000pt" height="300.000000pt" viewBox="0 0 300.000000 300.000000"
 preserveAspectRatio="xMidYMid meet">

<g transform="translate(0.000000,300.000000) scale(0.100000,-0.100000)"
fill="#000000" stroke="none">
<path d="M1315 2989 c-341 -47 -627 -188 -871 -433 -221 -221 -349 -457 -415
-766 -19 -87 -23 -136 -23 -290 0 -161 3 -201 26 -305 124 -582 558 -1025
1138 -1162 129 -31 399 -43 532 -24 262 38 502 137 711 295 88 66 246 228 308
316 144 203 234 431 270 678 19 133 7 403 -24 533 -136 576 -584 1015 -1157
1136 -131 27 -377 38 -495 22z m122 -106 c-3 -10 -26 -112 -52 -228 -26 -115
-52 -232 -59 -258 l-11 -49 -125 116 c-123 114 -126 118 -162 207 -56 137 -57
124 9 149 76 28 204 58 295 69 112 13 110 13 105 -6z m258 2 c106 -14 298 -65
319 -85 9 -9 -6 -54 -56 -160 -26 -56 -45 -78 -145 -165 -64 -55 -119 -101
-123 -103 -3 -1 -12 23 -19 55 -7 32 -33 145 -57 251 -43 186 -49 222 -40 222
3 0 57 -7 121 -15z m-695 -209 l42 -105 -11 -142 c-7 -79 -13 -144 -15 -146
-1 -2 -110 49 -242 113 l-239 116 50 46 c87 79 346 239 366 226 4 -2 26 -51
49 -108z m1286 -17 c74 -50 166 -125 172 -141 2 -4 -106 -62 -240 -128 l-243
-119 -6 72 c-16 181 -12 229 27 319 20 45 40 93 45 106 l9 22 82 -41 c46 -23
115 -63 154 -90z m-1094 -232 l117 -112 -17 -72 c-10 -39 -20 -74 -23 -77 -3
-4 -54 17 -112 44 l-107 50 0 43 c0 77 13 237 19 237 3 -1 59 -51 123 -113z
m748 -35 l0 -137 -95 -48 c-52 -26 -99 -47 -104 -47 -8 0 -46 145 -46 173 0
13 228 206 237 201 4 -3 8 -67 8 -142z m-1327 -184 c63 -130 112 -239 109
-242 -3 -3 -73 -6 -156 -6 -151 0 -152 0 -234 35 -136 57 -127 45 -88 123 71
140 228 354 247 335 4 -4 59 -115 122 -245z m1966 188 c28 -36 72 -94 96 -130
46 -68 121 -214 114 -220 -2 -2 -51 -22 -108 -45 l-103 -43 -137 11 c-76 6
-142 11 -148 11 -7 0 41 108 104 240 64 132 120 240 123 240 4 0 30 -29 59
-64z m-1762 -77 c136 -67 289 -141 339 -164 51 -24 94 -47 97 -52 7 -10 -55
-278 -66 -290 -5 -4 -70 -22 -145 -40 -106 -24 -140 -29 -148 -20 -9 10 -311
626 -331 675 -3 6 -3 12 0 12 3 0 118 -55 254 -121z m1496 -156 c-74 -153
-150 -311 -169 -351 -30 -64 -36 -72 -56 -67 -173 40 -270 64 -273 67 -5 5
-65 263 -65 280 0 9 129 77 343 181 188 92 345 167 349 167 4 0 -54 -125 -129
-277z m-1994 -189 l94 -39 109 -125 c91 -105 106 -126 91 -132 -10 -4 -119
-30 -243 -58 -124 -28 -235 -53 -248 -55 -22 -5 -23 -4 -18 40 3 25 9 66 12
93 14 125 76 327 97 319 7 -3 54 -22 106 -43z m2509 -25 c31 -84 59 -215 68
-313 7 -74 6 -78 -12 -73 -20 6 -433 100 -492 112 -18 4 -32 11 -30 15 2 5 53
63 115 128 111 118 113 120 210 160 54 22 103 39 108 38 6 -1 20 -31 33 -67z
m-289 -15 c5 -4 -41 -57 -140 -161 l-78 -81 -43 10 c-24 6 -59 14 -80 19 l-36
9 51 111 52 111 135 -7 c74 -4 137 -8 139 -11z m-1749 -91 c25 -54 45 -102 45
-107 0 -8 -130 -44 -162 -46 -11 0 -213 222 -213 234 0 5 57 8 225 14 l60 2
45 -97z m855 -12 c177 -78 262 -283 194 -467 -31 -82 -121 -172 -203 -203
-144 -54 -318 -10 -410 102 -61 75 -80 130 -81 232 0 78 4 98 28 150 46 99
123 165 232 202 57 19 180 10 240 -16z m-1272 -456 c133 -30 250 -58 259 -63
14 -6 -6 -31 -105 -134 l-122 -126 -98 -38 c-59 -23 -101 -34 -106 -28 -11 11
-56 153 -70 219 -8 38 -31 202 -31 222 0 8 52 -2 273 -52z m2523 -16 c-12
-137 -75 -379 -98 -379 -5 0 -54 19 -109 41 l-99 41 -105 121 c-58 66 -105
124 -105 128 0 4 26 13 58 19 31 7 140 32 242 55 102 24 194 44 204 44 17 1
18 -5 12 -70z m-452 -168 c80 -90 102 -120 90 -125 -9 -3 -74 -6 -145 -6
l-129 0 -51 101 c-27 56 -49 102 -47 104 2 1 41 12 88 23 47 11 86 20 87 21 1
1 49 -53 107 -118z m-1675 93 c39 -9 71 -20 71 -25 0 -5 -24 -56 -52 -114
l-53 -105 -95 6 c-52 4 -114 10 -138 13 l-44 6 109 117 c59 64 113 117 119
118 6 0 44 -7 83 -16z m284 -64 c72 -17 133 -33 135 -35 8 -8 71 -289 66 -294
-10 -10 -689 -338 -693 -335 -9 8 334 694 347 694 8 0 73 -14 145 -30z m1184
-227 c69 -142 145 -299 168 -350 l44 -91 -102 48 c-327 154 -597 291 -597 302
0 7 14 74 31 149 l32 136 126 30 c69 17 136 31 149 32 20 1 37 -28 149 -256z
m-1644 32 c70 -4 127 -10 127 -14 0 -18 -231 -472 -239 -469 -13 5 -102 115
-148 183 -35 53 -128 225 -121 225 2 0 53 20 113 45 61 25 117 43 125 41 8 -3
72 -8 143 -11z m2085 -26 c53 -23 101 -44 105 -49 26 -24 -230 -419 -265 -408
-8 3 -238 466 -238 480 0 7 72 13 218 16 77 2 90 -1 180 -39z m-1383 -262 c10
-45 14 -82 9 -87 -5 -5 -58 -51 -119 -104 l-110 -95 -6 87 c-4 48 -7 113 -8
145 l-1 57 103 49 c66 31 104 44 108 37 4 -6 15 -46 24 -89z m555 48 l110 -55
-6 -98 c-4 -53 -10 -116 -13 -138 l-6 -42 -119 113 -120 113 19 81 c10 44 20
81 22 81 2 0 53 -25 113 -55z m-810 -220 l0 -155 -42 -100 c-49 -117 -36 -114
-178 -35 -119 67 -292 197 -279 209 10 10 475 234 487 235 9 1 12 -36 12 -154z
m1190 35 c124 -61 226 -114 228 -119 11 -34 -384 -291 -408 -264 -14 15 -82
197 -82 219 0 104 16 274 26 274 6 0 112 -50 236 -110z m-397 -85 c105 -98
107 -101 147 -200 22 -55 40 -105 40 -111 0 -25 -236 -87 -379 -100 -57 -6
-71 -4 -71 7 0 8 12 64 25 124 14 61 39 171 56 245 38 173 35 164 57 148 10
-7 67 -58 125 -113z m-483 -21 c15 -65 39 -173 54 -239 15 -66 30 -129 33
-139 5 -18 1 -19 -73 -12 -129 12 -363 71 -378 95 -3 4 16 55 42 114 l47 107
115 99 c63 55 119 99 124 97 5 -1 21 -56 36 -122z"/>
</g>
</svg>
